<?xml version="1.0" encoding="UTF-8"?>
<svg xmlns="http://www.w3.org/2000/svg" xmlns:xlink="http://www.w3.org/1999/xlink" width="524.302pt" height="325.877pt" viewBox="0 0 524.302 325.877">
<defs>
<g>
<g id="glyph-0-0">
<path d="M 10 -15.3125 L 12.890625 -15.3125 C 13.9375 -15.3125 14.203125 -15.265625 14.421875 -15.09375 L 14.65625 -14.5 L 14.78125 -12.796875 L 15.765625 -12.796875 C 15.8125 -14.671875 15.890625 -15.546875 16.09375 -16.734375 L 15.9375 -16.859375 C 9.109375 -16.78125 9.109375 -16.78125 8.265625 -16.78125 C 7.40625 -16.78125 7.40625 -16.78125 0.5625 -16.859375 L 0.421875 -16.734375 C 0.625 -15.546875 0.671875 -14.671875 0.75 -12.796875 L 1.734375 -12.796875 L 1.859375 -14.5 C 1.859375 -14.65625 1.984375 -14.953125 2.046875 -15.078125 C 2.171875 -15.25 2.578125 -15.3125 3.609375 -15.3125 L 6.515625 -15.3125 L 6.515625 -3.34375 C 6.515625 -1.140625 6.484375 -1.09375 5.328125 -0.984375 L 4.40625 -0.921875 L 4.40625 0.078125 C 7.40625 0 7.40625 0 8.234375 0 C 9.078125 0 9.109375 0 12.109375 0.078125 L 12.109375 -0.921875 L 11.1875 -0.984375 C 10.03125 -1.09375 10 -1.140625 10 -3.34375 Z M 10 -15.3125 "/>
</g>
<g id="glyph-0-1">
<path d="M 5.171875 -17.8125 L 3.390625 -17.28125 C 2.75 -17.078125 1.9375 -16.921875 0.59375 -16.75 L 0.59375 -15.859375 L 1.703125 -15.796875 C 2.28125 -15.734375 2.34375 -15.515625 2.34375 -14.0625 L 2.34375 -2.46875 C 2.34375 -1.140625 2.234375 -0.9375 1.453125 -0.890625 L 0.59375 -0.84375 L 0.59375 0.078125 L 3.78125 0 C 4.28125 0 5.46875 0.03125 7.125 0.078125 L 7.125 -0.84375 L 6.265625 -0.890625 C 5.5 -0.9375 5.375 -1.140625 5.375 -2.46875 L 5.375 -7.84375 C 5.375 -8.71875 6.390625 -9.53125 7.46875 -9.53125 C 9.109375 -9.53125 9.796875 -8.65625 9.796875 -6.65625 L 9.796875 0.078125 C 11.21875 0.03125 11.625 0 12.03125 0 C 12.375 0 12.375 0 14.53125 0.078125 L 14.53125 -0.84375 L 13.71875 -0.890625 C 12.9375 -0.9375 12.828125 -1.140625 12.828125 -2.46875 L 12.828125 -7.078125 C 12.828125 -8.984375 12.59375 -9.921875 11.953125 -10.625 C 11.3125 -11.28125 10.296875 -11.65625 9.078125 -11.65625 C 8.34375 -11.65625 7.75 -11.515625 7.34375 -11.1875 L 5.375 -9.65625 L 5.375 -17.671875 Z M 5.171875 -17.8125 "/>
</g>
<g id="glyph-0-2">
<path d="M 11.40625 -7.296875 C 11.40625 -9.953125 9.546875 -11.65625 6.734375 -11.65625 C 5.859375 -11.65625 5.21875 -11.484375 4.546875 -11.09375 L 3.390625 -10.390625 C 1.75 -9.4375 1.046875 -7.9375 1.046875 -5.59375 C 1.046875 -1.65625 3.015625 0.421875 6.703125 0.421875 C 8.125 0.421875 9.03125 0.171875 10.625 -0.640625 L 11.15625 -1.828125 L 10.859375 -2.203125 C 9.703125 -1.5625 8.953125 -1.34375 7.96875 -1.34375 C 6.6875 -1.34375 5.46875 -2.03125 4.84375 -3.09375 C 4.453125 -3.78125 4.3125 -4.359375 4.25 -5.515625 L 7.5 -5.515625 C 8.90625 -5.515625 10.03125 -5.671875 11.40625 -6.015625 Z M 6.1875 -6.75 L 6.09375 -6.75 C 5.9375 -6.75 5.265625 -6.78125 4.90625 -6.8125 L 4.109375 -6.828125 C 4.1875 -9.28125 4.78125 -10.265625 6.21875 -10.265625 C 7.625 -10.265625 8.21875 -9.28125 8.265625 -6.828125 Z M 6.1875 -6.75 "/>
</g>
<g id="glyph-0-3">
<path d="M 11.609375 -5.09375 L 12.71875 -2.28125 C 12.828125 -2.03125 12.875 -1.78125 12.875 -1.578125 C 12.875 -1.21875 12.640625 -0.9375 12.375 -0.921875 L 11.0625 -0.84375 L 11.0625 0.078125 C 14.53125 0 14.53125 0 14.828125 0 C 15.09375 0 15.09375 0 18.734375 0.078125 L 18.734375 -0.84375 L 18.140625 -0.921875 C 17.453125 -1.015625 17.109375 -1.28125 16.78125 -2 L 10.375 -16.984375 L 8.609375 -16.984375 C 8.265625 -16.0625 8.015625 -15.390625 7.921875 -15.125 C 7.578125 -14.15625 7.328125 -13.515625 7.203125 -13.234375 L 2.71875 -2.40625 C 2.296875 -1.4375 1.875 -0.96875 1.34375 -0.921875 L 0.59375 -0.84375 L 0.59375 0.078125 C 1.234375 0.046875 1.8125 0.046875 2 0.03125 C 2.703125 0 3.171875 0 3.390625 0 C 3.609375 0 4.078125 0 4.78125 0.03125 C 5 0.046875 5.515625 0.046875 6.1875 0.078125 L 6.1875 -0.84375 L 4.953125 -0.921875 C 4.53125 -0.9375 4.234375 -1.28125 4.234375 -1.703125 C 4.234375 -1.875 4.28125 -2.125 4.359375 -2.328125 L 5.390625 -5.09375 Z M 8.46875 -12.765625 L 11.03125 -6.484375 L 5.984375 -6.484375 Z M 8.46875 -12.765625 "/>
</g>
<g id="glyph-0-4">
<path d="M 13.09375 -9.109375 L 13.21875 -10.6875 C 12.203125 -10.59375 11.734375 -10.5625 11.1875 -10.5625 C 10.984375 -10.5625 10.6875 -10.5625 10.296875 -10.59375 C 9.28125 -11.328125 8.125 -11.65625 6.53125 -11.65625 C 3.359375 -11.65625 1.15625 -9.828125 1.15625 -7.234375 C 1.15625 -6.3125 1.484375 -5.5 2.078125 -4.84375 C 2.546875 -4.359375 2.921875 -4.140625 3.78125 -3.84375 L 2.03125 -2.5 C 1.78125 -2.328125 1.609375 -1.8125 1.609375 -1.3125 C 1.609375 -0.421875 2.046875 0.03125 3.296875 0.34375 L 1.28125 1.53125 C 0.921875 1.75 0.640625 2.40625 0.640625 3.0625 C 0.640625 5.21875 2.71875 6.578125 5.984375 6.578125 C 10.328125 6.578125 13.234375 4.328125 13.234375 1.046875 C 13.234375 -1.046875 12.078125 -2.03125 9.578125 -2.03125 L 8.984375 -2.03125 C 6.53125 -1.953125 5.640625 -1.9375 5.375 -1.9375 C 4.609375 -1.9375 4.203125 -2.171875 4.203125 -2.671875 C 4.203125 -3.046875 4.4375 -3.34375 4.921875 -3.640625 C 5.375 -3.609375 5.625 -3.59375 5.921875 -3.59375 C 7.625 -3.59375 9.203125 -4.15625 10.21875 -5.171875 C 10.984375 -5.9375 11.3125 -6.8125 11.3125 -8.046875 C 11.3125 -8.4375 11.28125 -8.734375 11.1875 -9.203125 Z M 6.234375 -10.421875 C 7.546875 -10.421875 8.265625 -9.359375 8.265625 -7.40625 C 8.265625 -5.640625 7.59375 -4.734375 6.28125 -4.734375 C 5 -4.734375 4.203125 -5.84375 4.203125 -7.703125 C 4.203125 -9.484375 4.90625 -10.421875 6.234375 -10.421875 Z M 6.734375 0.375 C 9.75 0.375 10.5 0.765625 10.5 2.34375 C 10.5 4.0625 8.828125 5.34375 6.640625 5.34375 C 4.4375 5.34375 2.96875 4.3125 2.96875 2.765625 C 2.96875 1.859375 3.484375 1.015625 4.234375 0.640625 C 4.625 0.46875 5.515625 0.375 6.734375 0.375 Z M 6.734375 0.375 "/>
</g>
<g id="glyph-0-5">
<path d="M 0.59375 -9.703125 L 1.703125 -9.625 C 2.28125 -9.578125 2.34375 -9.359375 2.34375 -7.890625 L 2.34375 -2.46875 C 2.34375 -1.140625 2.234375 -0.9375 1.453125 -0.890625 L 0.59375 -0.84375 L 0.59375 0.078125 L 3.78125 0 C 4.28125 0 5.46875 0.03125 7.125 0.078125 L 7.125 -0.84375 L 6.265625 -0.890625 C 5.5 -0.9375 5.375 -1.140625 5.375 -2.46875 L 5.375 -7.84375 C 5.375 -8.71875 6.390625 -9.53125 7.46875 -9.53125 C 9.109375 -9.53125 9.796875 -8.65625 9.796875 -6.6875 L 9.796875 0.078125 C 11.21875 0.03125 11.625 0 12.03125 0 C 12.375 0 12.375 0 14.53125 0.078125 L 14.53125 -0.84375 L 13.71875 -0.890625 C 12.9375 -0.9375 12.828125 -1.140625 12.828125 -2.46875 L 12.828125 -7.078125 C 12.828125 -8.984375 12.59375 -9.921875 11.953125 -10.625 C 11.3125 -11.28125 10.296875 -11.65625 9.078125 -11.65625 C 8.34375 -11.65625 7.75 -11.515625 7.34375 -11.1875 L 5.375 -9.65625 L 5.375 -11.515625 L 5.21875 -11.65625 C 2.640625 -10.8125 1.953125 -10.671875 0.59375 -10.59375 Z M 0.59375 -9.703125 "/>
</g>
<g id="glyph-0-6">
<path d="M 8.015625 -1.484375 L 7.828125 -1.953125 C 7.328125 -1.703125 7.078125 -1.640625 6.6875 -1.640625 C 5.515625 -1.640625 5.140625 -2.03125 5.140625 -3.25 L 5.140625 -9.125 L 7.765625 -9.125 L 7.96875 -10.734375 L 5.140625 -10.59375 L 5.140625 -12.03125 C 5.140625 -13.34375 5.21875 -14.15625 5.4375 -15.390625 L 5.09375 -15.640625 C 4.109375 -15.171875 3.34375 -14.875 2.078125 -14.40625 C 2.15625 -13.125 2.171875 -12.640625 2.171875 -12.125 L 2.171875 -10.640625 L 0.546875 -9.578125 L 0.546875 -9.03125 L 2.125 -9.125 L 2.125 -2.71875 C 2.125 -0.515625 3.046875 0.421875 5.203125 0.421875 C 5.96875 0.421875 6.578125 0.25 6.8125 -0.03125 Z M 8.015625 -1.484375 "/>
</g>
<g id="glyph-0-7">
<path d="M 12.375 -5.140625 L 12.375 -7.203125 L 0 -7.203125 L 0 -5.140625 Z M 12.375 -5.140625 "/>
</g>
<g id="glyph-0-8">
<path d="M 6.5625 -15.34375 C 7.9375 -15.421875 8.78125 -15.4375 10.140625 -15.4375 C 11.484375 -15.4375 12.546875 -15.21875 12.578125 -14.953125 L 12.765625 -13.09375 L 13.65625 -13.09375 L 14.015625 -16.609375 L 13.859375 -16.78125 C 12.9375 -16.859375 12.46875 -16.875 11.515625 -16.875 C 10.9375 -16.875 10.203125 -16.859375 8.828125 -16.828125 C 7.03125 -16.78125 6.34375 -16.78125 5.625 -16.78125 C 4.75 -16.78125 3.6875 -16.8125 0.96875 -16.859375 L 0.96875 -15.9375 L 1.875 -15.859375 C 3 -15.765625 3.0625 -15.625 3.0625 -13.4375 L 3.0625 -2.34375 C 3.0625 -1.515625 2.9375 -1.140625 2.578125 -0.9375 L 1.78125 -0.5 L 1.78125 0.078125 C 4.234375 0 4.234375 0 4.796875 0 L 5.640625 0 C 8.140625 0.078125 9.125 0.09375 10.390625 0.09375 C 11.6875 0.09375 12.453125 0.078125 13.890625 0 L 14.015625 -0.203125 L 14.28125 -4.109375 L 13.3125 -4.109375 L 12.75 -1.78125 C 12.75 -1.75 12.71875 -1.734375 12.671875 -1.703125 C 11.90625 -1.453125 11.1875 -1.359375 9.796875 -1.359375 C 8.78125 -1.359375 7.828125 -1.390625 6.5625 -1.4375 L 6.5625 -8.046875 C 7.25 -8.09375 7.671875 -8.125 8.21875 -8.125 L 9.84375 -8.125 C 10.796875 -8.125 11.1875 -7.84375 11.265625 -7.203125 L 11.40625 -5.96875 L 12.40625 -5.96875 L 12.328125 -8.640625 C 12.328125 -8.90625 12.328125 -8.9375 12.40625 -11.28125 L 11.40625 -11.28125 L 11.265625 -9.875 C 11.21875 -9.484375 10.890625 -9.359375 9.84375 -9.359375 L 8.21875 -9.359375 C 7.40625 -9.359375 7.046875 -9.359375 6.5625 -9.40625 Z M 6.5625 -15.34375 "/>
</g>
<g id="glyph-0-9">
<path d="M 5.625 0.078125 L 7.75 0.078125 C 8.140625 -1.046875 8.390625 -1.65625 8.6875 -2.328125 L 11.859375 -9.453125 C 12.078125 -10 12.328125 -10.21875 12.75 -10.296875 L 13.484375 -10.421875 L 13.484375 -11.359375 L 11.109375 -11.28125 C 9.84375 -11.3125 9.625 -11.3125 8.71875 -11.359375 L 8.71875 -10.421875 L 9.65625 -10.375 C 10 -10.34375 10.21875 -10.171875 10.21875 -9.953125 C 10.21875 -9.65625 10.140625 -9.3125 10 -8.9375 L 8.484375 -5.203125 C 8.265625 -4.65625 8.046875 -4.140625 7.625 -3.21875 L 5.4375 -8.6875 C 5.203125 -9.3125 5.09375 -9.671875 5.09375 -9.953125 C 5.09375 -10.203125 5.296875 -10.34375 5.671875 -10.375 L 6.6875 -10.421875 L 6.6875 -11.359375 L 3.484375 -11.28125 C 3.171875 -11.28125 2.765625 -11.28125 0.265625 -11.359375 L 0.265625 -10.421875 L 0.890625 -10.375 C 1.3125 -10.328125 1.640625 -9.90625 2.078125 -8.828125 Z M 5.625 0.078125 "/>
</g>
<g id="glyph-0-10">
<path d="M 5.375 -11.65625 L 3.640625 -11.109375 C 2.84375 -10.859375 2.25 -10.765625 1.21875 -10.640625 C 1.140625 -10.640625 1.015625 -10.625 0.84375 -10.59375 L 0.84375 -9.703125 L 1.953125 -9.625 C 2.53125 -9.578125 2.59375 -9.359375 2.59375 -7.890625 L 2.59375 -2.46875 C 2.59375 -1.140625 2.46875 -0.9375 1.703125 -0.890625 L 0.84375 -0.84375 L 0.84375 0.078125 L 4.03125 0 C 4.53125 0 5.71875 0.03125 7.375 0.078125 L 7.375 -0.84375 L 6.515625 -0.890625 C 5.734375 -0.9375 5.625 -1.140625 5.625 -2.46875 L 5.625 -11.515625 Z M 4.03125 -17.46875 C 2.96875 -17.46875 2.15625 -16.6875 2.15625 -15.640625 C 2.15625 -14.609375 2.96875 -13.765625 4.015625 -13.765625 C 5.03125 -13.765625 5.859375 -14.609375 5.859375 -15.625 C 5.859375 -16.625 5.046875 -17.46875 4.03125 -17.46875 Z M 4.03125 -17.46875 "/>
</g>
<g id="glyph-0-11">
<path d="M 5.265625 -11.65625 L 3.546875 -11.109375 C 2.75 -10.859375 2.296875 -10.796875 0.75 -10.59375 L 0.75 -9.703125 L 1.859375 -9.625 C 2.421875 -9.578125 2.5 -9.359375 2.5 -7.890625 L 2.5 -2.46875 C 2.5 -1.140625 2.375 -0.9375 1.609375 -0.890625 L 0.75 -0.84375 L 0.75 0.078125 L 3.9375 0 C 4.25 0 4.328125 0 7.671875 0.078125 L 7.671875 -0.84375 L 6.703125 -0.890625 C 5.640625 -0.9375 5.515625 -1.09375 5.515625 -2.46875 L 5.515625 -7.375 C 5.515625 -8.140625 6.53125 -8.953125 7.5 -8.953125 C 8.125 -8.953125 8.5625 -8.65625 8.90625 -8.0625 L 9.5 -8.3125 L 9.625 -11.515625 C 9.375 -11.609375 9.0625 -11.65625 8.71875 -11.65625 C 8.015625 -11.65625 7.546875 -11.359375 6.609375 -10.34375 L 5.515625 -9.15625 L 5.515625 -11.515625 Z M 5.265625 -11.65625 "/>
</g>
<g id="glyph-0-12">
<path d="M 7.109375 -11.65625 C 3.171875 -11.65625 0.984375 -9.484375 0.984375 -5.546875 C 0.984375 -1.734375 3.015625 0.421875 6.609375 0.421875 C 10.5625 0.421875 12.796875 -1.828125 12.796875 -5.84375 C 12.796875 -9.609375 10.765625 -11.65625 7.109375 -11.65625 Z M 6.8125 -10.46875 C 8.59375 -10.46875 9.4375 -8.71875 9.4375 -5.078125 C 9.4375 -2.046875 8.734375 -0.765625 7.046875 -0.765625 C 5.265625 -0.765625 4.359375 -2.578125 4.359375 -6.140625 C 4.359375 -9.125 5.09375 -10.46875 6.8125 -10.46875 Z M 6.8125 -10.46875 "/>
</g>
<g id="glyph-0-13">
<path d="M 0.59375 -9.703125 L 1.703125 -9.625 C 2.28125 -9.578125 2.34375 -9.359375 2.34375 -7.890625 L 2.34375 -2.46875 C 2.34375 -1.140625 2.234375 -0.9375 1.453125 -0.890625 L 0.59375 -0.84375 L 0.59375 0.078125 L 3.78125 0 C 4.359375 0 5.421875 0.03125 6.9375 0.078125 L 6.9375 -0.84375 L 6.265625 -0.890625 C 5.46875 -0.9375 5.375 -1.140625 5.375 -2.46875 L 5.375 -7.84375 C 5.375 -8.65625 6.390625 -9.53125 7.375 -9.53125 C 8.8125 -9.53125 9.5 -8.59375 9.5 -6.65625 L 9.5 -2.46875 C 9.5 -1.140625 9.40625 -0.9375 8.609375 -0.890625 L 7.84375 -0.84375 L 7.84375 0.078125 C 10.421875 0 10.421875 0 11.03125 0 C 11.625 0 11.625 0 14.28125 0.078125 L 14.28125 -0.84375 L 13.421875 -0.890625 C 12.640625 -0.9375 12.53125 -1.140625 12.53125 -2.46875 L 12.53125 -7.84375 C 12.53125 -8.65625 13.53125 -9.53125 14.53125 -9.53125 C 15.96875 -9.53125 16.65625 -8.59375 16.65625 -6.65625 L 16.65625 0.078125 L 18.953125 0 C 20.203125 0.03125 20.375 0.03125 21.390625 0.078125 L 21.390625 -0.84375 L 20.5625 -0.890625 C 19.796875 -0.9375 19.671875 -1.140625 19.671875 -2.46875 L 19.671875 -7.078125 C 19.671875 -10.5 18.78125 -11.65625 16.140625 -11.65625 C 15.3125 -11.65625 14.78125 -11.515625 14.359375 -11.1875 L 12.375 -9.65625 C 11.8125 -11.0625 10.8125 -11.65625 9.109375 -11.65625 C 8.3125 -11.65625 7.765625 -11.515625 7.34375 -11.1875 L 5.375 -9.65625 L 5.375 -11.515625 L 5.21875 -11.65625 C 2.640625 -10.8125 1.953125 -10.671875 0.59375 -10.59375 Z M 0.59375 -9.703125 "/>
</g>
<g id="glyph-0-14">
<path d="M 6.5625 -13.4375 C 6.5625 -15.640625 6.578125 -15.6875 7.75 -15.796875 L 8.65625 -15.859375 L 8.65625 -16.859375 C 5.640625 -16.78125 5.640625 -16.78125 4.796875 -16.78125 C 3.953125 -16.78125 3.9375 -16.78125 0.96875 -16.859375 L 0.96875 -15.859375 L 1.875 -15.796875 C 3.046875 -15.6875 3.0625 -15.640625 3.0625 -13.4375 L 3.0625 -3.34375 C 3.0625 -1.140625 3.046875 -1.09375 1.875 -0.984375 L 0.96875 -0.921875 L 0.96875 0.078125 C 3.953125 0 3.953125 0 4.796875 0 C 5.640625 0 5.671875 0 8.65625 0.078125 L 8.65625 -0.921875 L 7.75 -0.984375 C 6.578125 -1.09375 6.5625 -1.140625 6.5625 -3.34375 Z M 6.5625 -13.4375 "/>
</g>
<g id="glyph-0-15">
<path d="M 7.40625 -1.65625 L 7.28125 -0.125 L 7.40625 0.078125 C 8.9375 0.03125 9.359375 0 9.65625 0 C 9.953125 0 10.34375 0.03125 11.828125 0.078125 L 11.828125 -0.84375 L 11.09375 -0.921875 C 10.546875 -1.015625 10.421875 -1.265625 10.390625 -2.421875 L 10.390625 -2.9375 C 10.375 -3.734375 10.34375 -4.4375 10.34375 -5.03125 C 10.34375 -5.6875 10.375 -6.484375 10.390625 -7.421875 C 10.421875 -7.75 10.421875 -7.96875 10.421875 -8.140625 C 10.421875 -10.34375 8.9375 -11.65625 6.4375 -11.65625 C 5.390625 -11.65625 4.375 -11.390625 3.46875 -10.8125 L 2.15625 -10.03125 L 2.15625 -8.3125 L 2.890625 -8.140625 L 3.4375 -9.375 C 3.515625 -9.546875 4.203125 -9.734375 4.875 -9.734375 C 6.53125 -9.734375 7.328125 -8.828125 7.40625 -6.8125 L 5.21875 -6.359375 C 2.109375 -5.71875 0.984375 -4.75 0.984375 -2.640625 C 0.984375 -0.640625 2 0.421875 3.890625 0.421875 C 4.4375 0.421875 4.84375 0.328125 5.09375 0.125 Z M 7.40625 -2.84375 C 6.9375 -2.203125 6.015625 -1.734375 5.265625 -1.734375 C 4.484375 -1.734375 4.015625 -2.328125 4.015625 -3.296875 C 4.015625 -4.5 4.53125 -5 6.28125 -5.46875 L 7.40625 -5.765625 Z M 7.40625 -2.84375 "/>
</g>
<g id="glyph-0-16">
<path d="M 9.65625 -7.34375 C 9.796875 -8.9375 9.921875 -9.75 10.140625 -10.84375 L 9.96875 -11.15625 C 8.828125 -11.5625 8.3125 -11.65625 7.421875 -11.65625 C 6.484375 -11.65625 5.796875 -11.484375 5.203125 -11.140625 L 3.90625 -10.375 C 1.703125 -9.0625 0.921875 -7.828125 0.921875 -5.671875 C 0.921875 -1.734375 2.875 0.421875 6.40625 0.421875 C 7.640625 0.421875 8.5625 0.203125 9.734375 -0.421875 L 10.25 -1.5625 L 10.03125 -1.8125 C 9.1875 -1.453125 8.640625 -1.34375 7.921875 -1.34375 C 5.5 -1.34375 3.984375 -3.296875 3.984375 -6.4375 C 3.984375 -8.6875 4.828125 -9.90625 6.40625 -9.90625 C 7.53125 -9.90625 8.515625 -9.40625 8.59375 -8.828125 L 8.765625 -7.34375 Z M 9.65625 -7.34375 "/>
</g>
<g id="glyph-0-17">
<path d="M 6.5625 -13.4375 C 6.5625 -15.640625 6.578125 -15.6875 7.75 -15.796875 L 8.65625 -15.859375 L 8.65625 -16.859375 C 5.640625 -16.78125 5.640625 -16.78125 4.796875 -16.78125 C 3.953125 -16.78125 3.9375 -16.78125 0.96875 -16.859375 L 0.96875 -15.859375 L 1.875 -15.796875 C 3.046875 -15.6875 3.0625 -15.640625 3.0625 -13.4375 L 3.0625 -2.34375 C 3.0625 -1.515625 2.9375 -1.140625 2.578125 -0.9375 L 1.78125 -0.5 L 1.78125 0.078125 C 4.234375 0 4.234375 0 4.796875 0 L 5.640625 0 C 8.140625 0.078125 9.125 0.09375 10.390625 0.09375 C 11.6875 0.09375 12.453125 0.078125 13.890625 0 L 14.015625 -0.203125 L 14.28125 -4.3125 L 13.3125 -4.3125 L 12.75 -1.78125 C 12.703125 -1.5625 11.328125 -1.359375 9.796875 -1.359375 C 8.765625 -1.359375 7.84375 -1.390625 6.5625 -1.4375 Z M 6.5625 -13.4375 "/>
</g>
<g id="glyph-0-18">
<path d="M 5.25 -11.65625 L 3.515625 -11.109375 C 2.671875 -10.859375 2.25 -10.796875 0.984375 -10.625 L 0.71875 -10.59375 L 0.71875 -9.703125 L 1.828125 -9.625 C 2.40625 -9.578125 2.46875 -9.359375 2.46875 -7.890625 L 2.46875 3.84375 C 2.46875 5.171875 2.34375 5.375 1.578125 5.421875 L 0.71875 5.46875 L 0.71875 6.390625 L 3.90625 6.3125 C 4.234375 6.3125 4.28125 6.3125 7.5 6.390625 L 7.5 5.46875 L 6.390625 5.421875 C 5.625 5.390625 5.5 5.171875 5.5 3.84375 L 5.5 0 C 6.703125 0.34375 7.109375 0.421875 7.703125 0.421875 C 8.53125 0.421875 9.40625 -0.03125 11.09375 -1.359375 C 11.234375 -1.453125 11.390625 -1.578125 11.515625 -1.6875 C 13.140625 -2.921875 14.03125 -4.84375 14.03125 -7.078125 C 14.03125 -9.703125 12.125 -11.65625 9.546875 -11.65625 C 8.59375 -11.65625 7.875 -11.390625 7 -10.6875 L 5.5 -9.484375 L 5.5 -11.515625 Z M 5.5 -8.1875 C 6.03125 -9.015625 6.859375 -9.4375 7.875 -9.4375 C 9.78125 -9.4375 10.921875 -7.9375 10.921875 -5.46875 C 10.921875 -2.890625 9.796875 -1.265625 8 -1.265625 C 6.953125 -1.265625 6.15625 -1.6875 5.5 -2.625 Z M 5.5 -8.1875 "/>
</g>
<g id="glyph-1-0">
<path d="M 6.71875 -2.953125 L 7.359375 -1.3125 C 7.421875 -1.171875 7.453125 -1.03125 7.453125 -0.921875 C 7.453125 -0.703125 7.328125 -0.546875 7.171875 -0.53125 L 6.40625 -0.484375 L 6.40625 0.046875 C 8.40625 0 8.40625 0 8.578125 0 C 8.734375 0 8.734375 0 10.84375 0.046875 L 10.84375 -0.484375 L 10.5 -0.53125 C 10.09375 -0.59375 9.90625 -0.75 9.71875 -1.15625 L 6 -9.828125 L 4.984375 -9.828125 C 4.78125 -9.296875 4.640625 -8.90625 4.578125 -8.75 C 4.390625 -8.203125 4.234375 -7.828125 4.171875 -7.671875 L 1.578125 -1.390625 C 1.328125 -0.828125 1.09375 -0.5625 0.78125 -0.53125 L 0.34375 -0.484375 L 0.34375 0.046875 C 0.71875 0.03125 1.046875 0.03125 1.15625 0.015625 C 1.5625 0 1.828125 0 1.96875 0 C 2.09375 0 2.359375 0 2.765625 0.015625 C 2.890625 0.03125 3.1875 0.03125 3.578125 0.046875 L 3.578125 -0.484375 L 2.859375 -0.53125 C 2.625 -0.546875 2.453125 -0.75 2.453125 -0.984375 C 2.453125 -1.09375 2.484375 -1.234375 2.515625 -1.34375 L 3.125 -2.953125 Z M 4.90625 -7.390625 L 6.390625 -3.75 L 3.46875 -3.75 Z M 4.90625 -7.390625 "/>
</g>
<g id="glyph-1-1">
<path d="M 7.578125 -5.265625 L 7.65625 -6.1875 C 7.0625 -6.125 6.796875 -6.125 6.46875 -6.125 C 6.359375 -6.125 6.1875 -6.125 5.953125 -6.125 C 5.375 -6.5625 4.703125 -6.75 3.78125 -6.75 C 1.953125 -6.75 0.671875 -5.6875 0.671875 -4.1875 C 0.671875 -3.65625 0.859375 -3.1875 1.203125 -2.8125 C 1.46875 -2.515625 1.6875 -2.390625 2.1875 -2.21875 L 1.171875 -1.453125 C 1.03125 -1.34375 0.9375 -1.046875 0.9375 -0.765625 C 0.9375 -0.25 1.1875 0.015625 1.90625 0.203125 L 0.75 0.890625 C 0.53125 1.015625 0.375 1.390625 0.375 1.78125 C 0.375 3.015625 1.578125 3.8125 3.46875 3.8125 C 5.96875 3.8125 7.671875 2.5 7.671875 0.609375 C 7.671875 -0.609375 6.984375 -1.171875 5.546875 -1.171875 L 5.203125 -1.171875 C 3.78125 -1.125 3.265625 -1.125 3.109375 -1.125 C 2.671875 -1.125 2.4375 -1.265625 2.4375 -1.546875 C 2.4375 -1.765625 2.5625 -1.9375 2.84375 -2.109375 C 3.109375 -2.09375 3.25 -2.078125 3.421875 -2.078125 C 4.40625 -2.078125 5.328125 -2.40625 5.921875 -3 C 6.359375 -3.4375 6.546875 -3.9375 6.546875 -4.65625 C 6.546875 -4.890625 6.53125 -5.0625 6.46875 -5.328125 Z M 3.609375 -6.03125 C 4.375 -6.03125 4.78125 -5.421875 4.78125 -4.28125 C 4.78125 -3.265625 4.40625 -2.734375 3.640625 -2.734375 C 2.890625 -2.734375 2.4375 -3.375 2.4375 -4.453125 C 2.4375 -5.484375 2.84375 -6.03125 3.609375 -6.03125 Z M 3.890625 0.21875 C 5.640625 0.21875 6.078125 0.4375 6.078125 1.359375 C 6.078125 2.34375 5.109375 3.09375 3.84375 3.09375 C 2.5625 3.09375 1.71875 2.5 1.71875 1.609375 C 1.71875 1.078125 2.015625 0.59375 2.453125 0.375 C 2.671875 0.265625 3.1875 0.21875 3.890625 0.21875 Z M 3.890625 0.21875 "/>
</g>
<g id="glyph-1-2">
<path d="M 6.609375 -4.234375 C 6.609375 -5.765625 5.53125 -6.75 3.890625 -6.75 C 3.390625 -6.75 3.015625 -6.640625 2.640625 -6.421875 L 1.96875 -6.015625 C 1.015625 -5.453125 0.609375 -4.59375 0.609375 -3.234375 C 0.609375 -0.953125 1.75 0.25 3.890625 0.25 C 4.703125 0.25 5.234375 0.09375 6.140625 -0.375 L 6.46875 -1.0625 L 6.296875 -1.28125 C 5.609375 -0.90625 5.1875 -0.78125 4.609375 -0.78125 C 3.875 -0.78125 3.171875 -1.171875 2.8125 -1.796875 C 2.578125 -2.1875 2.5 -2.515625 2.46875 -3.1875 L 4.34375 -3.1875 C 5.15625 -3.1875 5.796875 -3.28125 6.609375 -3.484375 Z M 3.578125 -3.90625 L 3.53125 -3.90625 C 3.4375 -3.90625 3.046875 -3.921875 2.84375 -3.9375 L 2.375 -3.953125 C 2.421875 -5.375 2.765625 -5.953125 3.59375 -5.953125 C 4.40625 -5.953125 4.75 -5.375 4.78125 -3.953125 Z M 3.578125 -3.90625 "/>
</g>
<g id="glyph-1-3">
<path d="M 0.34375 -5.609375 L 0.984375 -5.578125 C 1.3125 -5.546875 1.359375 -5.421875 1.359375 -4.578125 L 1.359375 -1.4375 C 1.359375 -0.65625 1.296875 -0.546875 0.84375 -0.515625 L 0.34375 -0.484375 L 0.34375 0.046875 L 2.1875 0 C 2.484375 0 3.171875 0.015625 4.125 0.046875 L 4.125 -0.484375 L 3.625 -0.515625 C 3.1875 -0.546875 3.109375 -0.65625 3.109375 -1.4375 L 3.109375 -4.546875 C 3.109375 -5.046875 3.703125 -5.515625 4.328125 -5.515625 C 5.265625 -5.515625 5.671875 -5.015625 5.671875 -3.875 L 5.671875 0.046875 C 6.484375 0.015625 6.734375 0 6.96875 0 C 7.171875 0 7.171875 0 8.40625 0.046875 L 8.40625 -0.484375 L 7.9375 -0.515625 C 7.5 -0.546875 7.421875 -0.65625 7.421875 -1.4375 L 7.421875 -4.09375 C 7.421875 -5.203125 7.296875 -5.75 6.921875 -6.140625 C 6.546875 -6.53125 5.953125 -6.75 5.265625 -6.75 C 4.828125 -6.75 4.484375 -6.65625 4.25 -6.46875 L 3.109375 -5.59375 L 3.109375 -6.65625 L 3.015625 -6.75 C 1.53125 -6.265625 1.125 -6.171875 0.34375 -6.125 Z M 0.34375 -5.609375 "/>
</g>
<g id="glyph-1-4">
<path d="M 4.640625 -0.859375 L 4.53125 -1.125 C 4.234375 -0.984375 4.09375 -0.953125 3.875 -0.953125 C 3.1875 -0.953125 2.984375 -1.171875 2.984375 -1.875 L 2.984375 -5.28125 L 4.5 -5.28125 L 4.609375 -6.21875 L 2.984375 -6.125 L 2.984375 -6.96875 C 2.984375 -7.71875 3.015625 -8.203125 3.15625 -8.90625 L 2.953125 -9.0625 C 2.375 -8.78125 1.9375 -8.609375 1.203125 -8.34375 C 1.25 -7.59375 1.265625 -7.328125 1.265625 -7.015625 L 1.265625 -6.15625 L 0.3125 -5.546875 L 0.3125 -5.234375 L 1.234375 -5.28125 L 1.234375 -1.578125 C 1.234375 -0.296875 1.765625 0.25 3.015625 0.25 C 3.453125 0.25 3.8125 0.140625 3.9375 -0.015625 Z M 4.640625 -0.859375 "/>
</g>
<g id="glyph-1-5">
<path d="M 3.796875 -8.890625 C 4.59375 -8.921875 5.09375 -8.9375 5.875 -8.9375 C 6.640625 -8.9375 7.265625 -8.8125 7.28125 -8.65625 L 7.390625 -7.578125 L 7.90625 -7.578125 L 8.109375 -9.609375 L 8.03125 -9.71875 C 7.5 -9.75 7.21875 -9.765625 6.65625 -9.765625 C 6.328125 -9.765625 5.90625 -9.75 5.109375 -9.75 C 4.0625 -9.71875 3.671875 -9.71875 3.25 -9.71875 C 2.75 -9.71875 2.140625 -9.734375 0.5625 -9.75 L 0.5625 -9.234375 L 1.09375 -9.1875 C 1.734375 -9.125 1.78125 -9.046875 1.78125 -7.78125 L 1.78125 -1.359375 C 1.78125 -0.875 1.703125 -0.65625 1.484375 -0.546875 L 1.03125 -0.28125 L 1.03125 0.046875 C 2.453125 0 2.453125 0 2.78125 0 L 3.265625 0 C 4.71875 0.046875 5.28125 0.0625 6.015625 0.0625 C 6.765625 0.0625 7.203125 0.046875 8.03125 0 L 8.109375 -0.109375 L 8.265625 -2.375 L 7.703125 -2.375 L 7.375 -1.03125 C 7.375 -1.015625 7.359375 -1 7.34375 -0.984375 C 6.890625 -0.84375 6.46875 -0.78125 5.671875 -0.78125 C 5.09375 -0.78125 4.53125 -0.796875 3.796875 -0.828125 L 3.796875 -4.65625 C 4.203125 -4.6875 4.4375 -4.703125 4.75 -4.703125 L 5.703125 -4.703125 C 6.25 -4.703125 6.46875 -4.546875 6.515625 -4.171875 L 6.609375 -3.453125 L 7.171875 -3.453125 L 7.140625 -5 C 7.140625 -5.15625 7.140625 -5.171875 7.171875 -6.53125 L 6.609375 -6.53125 L 6.515625 -5.71875 C 6.484375 -5.484375 6.296875 -5.421875 5.703125 -5.421875 L 4.75 -5.421875 C 4.28125 -5.421875 4.078125 -5.421875 3.796875 -5.4375 Z M 3.796875 -8.890625 "/>
</g>
<g id="glyph-1-6">
<path d="M 3.25 0.046875 L 4.484375 0.046875 C 4.71875 -0.609375 4.859375 -0.953125 5.03125 -1.34375 L 6.859375 -5.46875 C 6.984375 -5.78125 7.140625 -5.921875 7.375 -5.953125 L 7.8125 -6.03125 L 7.8125 -6.578125 L 6.4375 -6.53125 C 5.703125 -6.546875 5.578125 -6.546875 5.046875 -6.578125 L 5.046875 -6.03125 L 5.59375 -6 C 5.78125 -5.984375 5.921875 -5.890625 5.921875 -5.765625 C 5.921875 -5.59375 5.875 -5.390625 5.78125 -5.171875 L 4.921875 -3.015625 C 4.78125 -2.6875 4.65625 -2.390625 4.40625 -1.859375 L 3.15625 -5.03125 C 3.015625 -5.390625 2.953125 -5.609375 2.953125 -5.765625 C 2.953125 -5.90625 3.0625 -5.984375 3.28125 -6 L 3.875 -6.03125 L 3.875 -6.578125 L 2.015625 -6.53125 C 1.828125 -6.53125 1.609375 -6.53125 0.15625 -6.578125 L 0.15625 -6.03125 L 0.515625 -6 C 0.765625 -5.96875 0.953125 -5.734375 1.203125 -5.109375 Z M 3.25 0.046875 "/>
</g>
<g id="glyph-1-7">
<path d="M 3.109375 -6.75 L 2.109375 -6.4375 C 1.640625 -6.296875 1.296875 -6.234375 0.703125 -6.15625 C 0.65625 -6.15625 0.59375 -6.140625 0.484375 -6.125 L 0.484375 -5.609375 L 1.125 -5.578125 C 1.46875 -5.546875 1.5 -5.421875 1.5 -4.578125 L 1.5 -1.4375 C 1.5 -0.65625 1.4375 -0.546875 0.984375 -0.515625 L 0.484375 -0.484375 L 0.484375 0.046875 L 2.328125 0 C 2.625 0 3.3125 0.015625 4.265625 0.046875 L 4.265625 -0.484375 L 3.765625 -0.515625 C 3.328125 -0.546875 3.25 -0.65625 3.25 -1.4375 L 3.25 -6.65625 Z M 2.328125 -10.109375 C 1.71875 -10.109375 1.25 -9.65625 1.25 -9.0625 C 1.25 -8.453125 1.71875 -7.96875 2.328125 -7.96875 C 2.90625 -7.96875 3.390625 -8.453125 3.390625 -9.046875 C 3.390625 -9.625 2.921875 -10.109375 2.328125 -10.109375 Z M 2.328125 -10.109375 "/>
</g>
<g id="glyph-1-8">
<path d="M 3.046875 -6.75 L 2.046875 -6.4375 C 1.59375 -6.296875 1.328125 -6.25 0.4375 -6.125 L 0.4375 -5.609375 L 1.078125 -5.578125 C 1.40625 -5.546875 1.453125 -5.421875 1.453125 -4.578125 L 1.453125 -1.4375 C 1.453125 -0.65625 1.375 -0.546875 0.9375 -0.515625 L 0.4375 -0.484375 L 0.4375 0.046875 L 2.28125 0 C 2.46875 0 2.5 0 4.4375 0.046875 L 4.4375 -0.484375 L 3.890625 -0.515625 C 3.265625 -0.546875 3.1875 -0.625 3.1875 -1.4375 L 3.1875 -4.265625 C 3.1875 -4.71875 3.78125 -5.1875 4.34375 -5.1875 C 4.703125 -5.1875 4.953125 -5.015625 5.15625 -4.671875 L 5.5 -4.8125 L 5.578125 -6.65625 C 5.4375 -6.71875 5.25 -6.75 5.046875 -6.75 C 4.640625 -6.75 4.375 -6.578125 3.828125 -5.984375 L 3.1875 -5.296875 L 3.1875 -6.65625 Z M 3.046875 -6.75 "/>
</g>
<g id="glyph-1-9">
<path d="M 4.109375 -6.75 C 1.828125 -6.75 0.578125 -5.484375 0.578125 -3.203125 C 0.578125 -1 1.75 0.25 3.828125 0.25 C 6.125 0.25 7.40625 -1.0625 7.40625 -3.375 C 7.40625 -5.5625 6.234375 -6.75 4.109375 -6.75 Z M 3.9375 -6.0625 C 4.96875 -6.0625 5.453125 -5.046875 5.453125 -2.9375 C 5.453125 -1.1875 5.0625 -0.4375 4.078125 -0.4375 C 3.046875 -0.4375 2.515625 -1.484375 2.515625 -3.546875 C 2.515625 -5.28125 2.953125 -6.0625 3.9375 -6.0625 Z M 3.9375 -6.0625 "/>
</g>
<g id="glyph-1-10">
<path d="M 0.34375 -5.609375 L 0.984375 -5.578125 C 1.3125 -5.546875 1.359375 -5.421875 1.359375 -4.578125 L 1.359375 -1.4375 C 1.359375 -0.65625 1.296875 -0.546875 0.84375 -0.515625 L 0.34375 -0.484375 L 0.34375 0.046875 L 2.1875 0 C 2.515625 0 3.140625 0.015625 4.015625 0.046875 L 4.015625 -0.484375 L 3.625 -0.515625 C 3.171875 -0.546875 3.109375 -0.65625 3.109375 -1.4375 L 3.109375 -4.546875 C 3.109375 -5.015625 3.703125 -5.515625 4.265625 -5.515625 C 5.09375 -5.515625 5.5 -4.96875 5.5 -3.859375 L 5.5 -1.4375 C 5.5 -0.65625 5.4375 -0.546875 4.984375 -0.515625 L 4.546875 -0.484375 L 4.546875 0.046875 C 6.03125 0 6.03125 0 6.390625 0 C 6.734375 0 6.734375 0 8.265625 0.046875 L 8.265625 -0.484375 L 7.765625 -0.515625 C 7.328125 -0.546875 7.25 -0.65625 7.25 -1.4375 L 7.25 -4.546875 C 7.25 -5.015625 7.84375 -5.515625 8.40625 -5.515625 C 9.234375 -5.515625 9.640625 -4.96875 9.640625 -3.859375 L 9.640625 0.046875 L 10.96875 0 C 11.6875 0.015625 11.796875 0.015625 12.375 0.046875 L 12.375 -0.484375 L 11.90625 -0.515625 C 11.46875 -0.546875 11.390625 -0.65625 11.390625 -1.4375 L 11.390625 -4.09375 C 11.390625 -6.078125 10.875 -6.75 9.34375 -6.75 C 8.875 -6.75 8.546875 -6.65625 8.3125 -6.46875 L 7.171875 -5.59375 C 6.828125 -6.40625 6.265625 -6.75 5.265625 -6.75 C 4.8125 -6.75 4.5 -6.65625 4.25 -6.46875 L 3.109375 -5.59375 L 3.109375 -6.65625 L 3.015625 -6.75 C 1.53125 -6.265625 1.125 -6.171875 0.34375 -6.125 Z M 0.34375 -5.609375 "/>
</g>
<g id="glyph-2-0">
<path d="M 0.484375 -1.703125 C 0.484375 -0.890625 0.453125 -0.53125 0.359375 -0.046875 C 0.984375 0.15625 1.4375 0.234375 2 0.234375 C 3.5625 0.234375 4.671875 -0.59375 4.671875 -1.765625 C 4.671875 -2.140625 4.5625 -2.40625 4.328125 -2.65625 C 4.015625 -2.953125 3.625 -3.09375 2.578125 -3.296875 C 1.59375 -3.484375 1.28125 -3.71875 1.28125 -4.28125 C 1.28125 -4.875 1.6875 -5.203125 2.421875 -5.203125 C 3.21875 -5.203125 3.828125 -4.78125 3.828125 -4.21875 L 3.828125 -3.953125 L 4.171875 -3.953125 C 4.171875 -4.640625 4.1875 -4.9375 4.21875 -5.296875 C 3.59375 -5.515625 3.15625 -5.59375 2.671875 -5.59375 C 1.296875 -5.59375 0.4375 -4.9375 0.4375 -3.875 C 0.4375 -3.296875 0.703125 -2.890625 1.25 -2.640625 C 1.578125 -2.5 2.203125 -2.296875 3.015625 -2.125 C 3.5625 -2 3.78125 -1.75 3.78125 -1.296875 C 3.78125 -0.65625 3.1875 -0.203125 2.34375 -0.203125 C 1.46875 -0.203125 0.84375 -0.625 0.84375 -1.21875 L 0.84375 -1.703125 Z M 0.484375 -1.703125 "/>
</g>
<g id="glyph-2-1">
<path d="M 5.21875 -0.828125 L 5.0625 -0.953125 C 4.296875 -0.5 4.015625 -0.390625 3.515625 -0.390625 C 2.734375 -0.390625 2.09375 -0.734375 1.75 -1.328125 C 1.53125 -1.71875 1.4375 -2.046875 1.421875 -2.75 L 3.15625 -2.75 C 3.984375 -2.75 4.5 -2.78125 5.328125 -2.90625 C 5.34375 -3.078125 5.34375 -3.1875 5.34375 -3.328125 C 5.34375 -4.703125 4.46875 -5.59375 3.125 -5.59375 C 2.6875 -5.59375 2.171875 -5.4375 1.6875 -5.15625 C 0.703125 -4.59375 0.3125 -3.859375 0.3125 -2.609375 C 0.3125 -1.859375 0.484375 -1.21875 0.8125 -0.765625 C 1.296875 -0.125 2.09375 0.234375 2.984375 0.234375 C 3.421875 0.234375 3.875 0.140625 4.359375 -0.078125 C 4.671875 -0.203125 4.9375 -0.359375 4.984375 -0.4375 Z M 4.28125 -3.1875 C 3.671875 -3.15625 3.375 -3.15625 2.953125 -3.15625 C 2.40625 -3.15625 2.09375 -3.15625 1.4375 -3.21875 C 1.4375 -3.78125 1.5 -4.046875 1.640625 -4.359375 C 1.890625 -4.875 2.40625 -5.203125 2.984375 -5.203125 C 3.375 -5.203125 3.6875 -5.046875 3.90625 -4.734375 C 4.171875 -4.328125 4.25 -3.984375 4.28125 -3.1875 Z M 4.28125 -3.1875 "/>
</g>
<g id="glyph-2-2">
<path d="M 0.28125 -7.890625 L 0.9375 -7.890625 C 1.15625 -7.890625 1.234375 -7.765625 1.234375 -7.40625 L 1.234375 -1.21875 C 1.234375 -0.46875 1.203125 -0.375 0.796875 -0.359375 L 0.25 -0.328125 L 0.25 0.03125 C 1.4375 0 1.4375 0 1.75 0 C 2.046875 0 2.046875 0 3.234375 0.03125 L 3.234375 -0.328125 L 2.6875 -0.359375 C 2.28125 -0.375 2.25 -0.46875 2.25 -1.21875 L 2.25 -8.578125 L 2.140625 -8.671875 C 1.609375 -8.46875 1.21875 -8.375 0.28125 -8.21875 Z M 0.28125 -7.890625 "/>
</g>
<g id="glyph-2-3">
<path d="M 4.765625 -3.71875 C 4.765625 -4.265625 4.828125 -4.75 4.9375 -5.1875 C 4.453125 -5.46875 4.03125 -5.59375 3.546875 -5.59375 C 2.96875 -5.59375 2.296875 -5.375 1.59375 -4.921875 C 0.75 -4.390625 0.3125 -3.5625 0.3125 -2.5 C 0.3125 -0.890625 1.4375 0.234375 3.046875 0.234375 C 3.671875 0.234375 4.5625 0.015625 4.671875 -0.171875 L 4.9375 -0.546875 L 4.8125 -0.734375 C 4.375 -0.484375 3.984375 -0.375 3.5625 -0.375 C 2.234375 -0.375 1.359375 -1.40625 1.359375 -2.984375 C 1.359375 -4.265625 1.953125 -4.984375 3.03125 -4.984375 C 3.5625 -4.984375 4.125 -4.734375 4.34375 -4.4375 L 4.421875 -3.71875 Z M 4.765625 -3.71875 "/>
</g>
<g id="glyph-2-4">
<path d="M 1.171875 -4.5625 L 1.171875 -1.125 C 1.171875 -0.234375 1.5625 0.140625 2.484375 0.140625 C 2.75 0.140625 3.046875 0.078125 3.109375 0 L 3.6875 -0.625 L 3.53125 -0.828125 C 3.234375 -0.671875 3.0625 -0.609375 2.828125 -0.609375 C 2.359375 -0.609375 2.171875 -0.84375 2.171875 -1.4375 L 2.171875 -4.5625 L 3.703125 -4.5625 L 3.8125 -5.203125 L 2.171875 -5.140625 L 2.171875 -5.59375 C 2.171875 -6.09375 2.203125 -6.515625 2.296875 -7.28125 L 2.15625 -7.40625 C 1.875 -7.234375 1.515625 -7.078125 1.140625 -6.953125 C 1.1875 -6.59375 1.1875 -6.375 1.1875 -6.015625 L 1.1875 -5.1875 L 0.265625 -4.765625 L 0.265625 -4.515625 Z M 1.171875 -4.5625 "/>
</g>
<g id="glyph-2-5">
<path d="M 3.875 -0.984375 L 3.8125 0.03125 C 4.578125 0 4.578125 0 4.734375 0 C 4.796875 0 5.09375 0.015625 5.625 0.03125 L 5.625 -0.328125 L 5.15625 -0.34375 C 4.875 -0.359375 4.828125 -0.453125 4.828125 -1.03125 L 4.828125 -3.21875 C 4.828125 -4.96875 4.328125 -5.59375 2.9375 -5.59375 C 2.421875 -5.59375 1.953125 -5.46875 1.5 -5.1875 L 0.859375 -4.8125 L 0.859375 -4.03125 L 1.171875 -3.953125 L 1.328125 -4.328125 C 1.578125 -4.875 1.6875 -4.96875 2.25 -4.96875 C 3.359375 -4.96875 3.828125 -4.53125 3.875 -3.4375 L 2.6875 -3.21875 C 1.0625 -2.921875 0.375 -2.359375 0.375 -1.328125 C 0.375 -0.390625 0.9375 0.140625 1.890625 0.140625 C 2.09375 0.140625 2.296875 0.109375 2.390625 0.046875 Z M 3.875 -1.484375 C 3.515625 -0.984375 2.765625 -0.53125 2.296875 -0.53125 C 1.828125 -0.53125 1.40625 -0.984375 1.40625 -1.5 C 1.40625 -1.9375 1.640625 -2.359375 2 -2.578125 C 2.296875 -2.75 2.953125 -2.921875 3.875 -3.0625 Z M 3.875 -1.484375 "/>
</g>
<g id="glyph-2-6">
<path d="M 2.25 -5.546875 L 2.140625 -5.59375 C 1.53125 -5.34375 0.90625 -5.1875 0.28125 -5.109375 L 0.28125 -4.78125 L 0.71875 -4.78125 C 1.1875 -4.78125 1.234375 -4.6875 1.234375 -3.90625 L 1.234375 -1.21875 C 1.234375 -0.46875 1.203125 -0.375 0.796875 -0.359375 L 0.25 -0.328125 L 0.25 0.03125 C 1.4375 0 1.4375 0 1.75 0 C 2.046875 0 2.046875 0 3.234375 0.03125 L 3.234375 -0.328125 L 2.6875 -0.359375 C 2.28125 -0.375 2.25 -0.46875 2.25 -1.21875 Z M 1.6875 -8.203125 C 1.34375 -8.203125 1.03125 -7.890625 1.03125 -7.53125 C 1.03125 -7.1875 1.34375 -6.875 1.6875 -6.875 C 2.03125 -6.875 2.359375 -7.1875 2.359375 -7.53125 C 2.359375 -7.859375 2.03125 -8.203125 1.6875 -8.203125 Z M 1.6875 -8.203125 "/>
</g>
<g id="glyph-2-7">
<path d="M 3.328125 -5.59375 C 1.59375 -5.59375 0.375 -4.375 0.375 -2.59375 C 0.375 -0.90625 1.4375 0.234375 2.984375 0.234375 C 4.828125 0.234375 6.140625 -1.03125 6.140625 -2.828125 C 6.140625 -4.4375 4.96875 -5.59375 3.328125 -5.59375 Z M 3.109375 -5.203125 C 4.21875 -5.203125 5.03125 -4.015625 5.03125 -2.390625 C 5.03125 -1.015625 4.421875 -0.15625 3.453125 -0.15625 C 2.28125 -0.15625 1.5 -1.296875 1.5 -3 C 1.5 -4.421875 2.0625 -5.203125 3.109375 -5.203125 Z M 3.109375 -5.203125 "/>
</g>
<g id="glyph-2-8">
<path d="M 4.890625 0.03125 C 5.625 0 5.640625 0 5.84375 0 C 6 0 6 0 6.828125 0.03125 L 6.828125 -0.328125 L 6.34375 -0.359375 C 5.9375 -0.375 5.890625 -0.453125 5.890625 -1.21875 L 5.890625 -3.515625 C 5.890625 -4.921875 5.234375 -5.59375 3.90625 -5.59375 C 3.46875 -5.59375 3.21875 -5.515625 2.953125 -5.296875 L 2.046875 -4.515625 L 2.046875 -5.546875 L 1.953125 -5.59375 C 1.34375 -5.34375 0.71875 -5.1875 0.078125 -5.109375 L 0.078125 -4.78125 L 0.53125 -4.78125 C 1 -4.78125 1.046875 -4.6875 1.046875 -3.90625 L 1.046875 -1.21875 C 1.046875 -0.46875 1.015625 -0.375 0.609375 -0.359375 L 0.078125 -0.328125 L 0.078125 0.03125 C 0.890625 0.015625 1.203125 0 1.546875 0 C 1.890625 0 2.21875 0.015625 3.03125 0.03125 L 3.03125 -0.328125 L 2.5 -0.359375 C 2.09375 -0.375 2.046875 -0.46875 2.046875 -1.21875 L 2.046875 -3.75 C 2.046875 -4.28125 2.84375 -4.875 3.5625 -4.875 C 4.375 -4.875 4.890625 -4.28125 4.890625 -3.359375 Z M 4.890625 0.03125 "/>
</g>
<g id="glyph-2-9">
<path d="M 6.203125 -4.515625 L 6.5 -5 L 6.453125 -5.140625 L 4.75 -5.09375 C 4.3125 -5.453125 3.875 -5.59375 3.296875 -5.59375 C 2.765625 -5.59375 2.15625 -5.4375 1.671875 -5.140625 C 1 -4.765625 0.65625 -4.171875 0.65625 -3.453125 C 0.65625 -2.5625 1.203125 -1.953125 2.09375 -1.859375 L 1.140625 -1.140625 C 1.03125 -0.953125 0.96875 -0.796875 0.96875 -0.625 C 0.96875 -0.28125 1.1875 -0.09375 1.75 0.078125 L 0.71875 0.625 C 0.546875 0.734375 0.375 1.171875 0.375 1.546875 C 0.375 2.625 1.4375 3.375 2.953125 3.375 C 4.765625 3.375 6.1875 2.25 6.1875 0.78125 C 6.1875 -0.078125 5.609375 -0.671875 4.78125 -0.671875 L 2.859375 -0.671875 C 2.25 -0.671875 1.953125 -0.8125 1.953125 -1.140625 C 1.953125 -1.296875 2.046875 -1.421875 2.359375 -1.6875 C 2.4375 -1.75 2.453125 -1.765625 2.5 -1.8125 C 2.625 -1.796875 2.703125 -1.796875 2.796875 -1.796875 C 3.3125 -1.796875 3.9375 -2.015625 4.421875 -2.359375 C 4.96875 -2.75 5.234375 -3.234375 5.234375 -3.875 C 5.234375 -4.109375 5.1875 -4.265625 5.09375 -4.515625 Z M 2.859375 -5.1875 C 3.671875 -5.1875 4.21875 -4.53125 4.21875 -3.515625 C 4.21875 -2.734375 3.71875 -2.203125 3 -2.203125 C 2.203125 -2.203125 1.65625 -2.8125 1.65625 -3.734375 C 1.65625 -4.65625 2.09375 -5.1875 2.859375 -5.1875 Z M 3.421875 0.171875 C 4.78125 0.171875 5.234375 0.4375 5.234375 1.21875 C 5.234375 2.25 4.296875 3.015625 3.046875 3.015625 C 2 3.015625 1.296875 2.40625 1.296875 1.515625 C 1.296875 0.984375 1.59375 0.484375 2.078125 0.28125 C 2.265625 0.1875 2.609375 0.171875 3.421875 0.171875 Z M 3.421875 0.171875 "/>
</g>
<g id="glyph-2-10">
<path d="M 0.28125 -4.78125 L 0.71875 -4.78125 C 1.1875 -4.78125 1.234375 -4.6875 1.234375 -3.90625 L 1.234375 -1.21875 C 1.234375 -0.46875 1.203125 -0.375 0.796875 -0.359375 L 0.25 -0.328125 L 0.25 0.03125 C 1.109375 0.015625 1.421875 0 1.71875 0 C 1.953125 0 1.953125 0 3.421875 0.03125 L 3.421875 -0.328125 L 2.8125 -0.359375 C 2.265625 -0.390625 2.25 -0.4375 2.25 -1.21875 L 2.25 -3.265625 C 2.25 -3.984375 2.71875 -4.578125 3.3125 -4.578125 C 3.671875 -4.578125 3.921875 -4.421875 4.109375 -4.03125 L 4.359375 -4.03125 L 4.46875 -5.46875 C 4.328125 -5.546875 4.125 -5.59375 3.90625 -5.59375 C 3.546875 -5.59375 3.15625 -5.40625 2.90625 -5.109375 L 2.25 -4.328125 L 2.25 -5.546875 L 2.140625 -5.59375 C 1.53125 -5.34375 0.90625 -5.1875 0.28125 -5.109375 Z M 0.28125 -4.78125 "/>
</g>
<g id="glyph-2-11">
<path d="M 4.875 -8.359375 L 4.484375 -8.359375 C 4.28125 -7.84375 4.09375 -7.40625 4.015625 -7.21875 L 3.390625 -5.78125 L 1.265625 -0.9375 C 1.125 -0.59375 0.890625 -0.375 0.625 -0.359375 L 0.171875 -0.328125 L 0.171875 0.03125 C 1.296875 0 1.296875 0 1.484375 0 C 1.640625 0 1.640625 0 2.921875 0.03125 L 2.921875 -0.328125 L 2.484375 -0.359375 C 2.0625 -0.390625 1.90625 -0.484375 1.90625 -0.671875 C 1.90625 -0.828125 2.078125 -1.34375 2.328125 -1.9375 L 2.65625 -2.734375 L 6.09375 -2.734375 L 6.65625 -1.359375 C 6.859375 -0.859375 6.90625 -0.703125 6.90625 -0.59375 C 6.90625 -0.46875 6.703125 -0.375 6.40625 -0.359375 L 5.84375 -0.328125 L 5.84375 0.03125 C 7.3125 0 7.3125 0 7.515625 0 C 7.734375 0 7.734375 0 9.03125 0.03125 L 9.03125 -0.328125 L 8.625 -0.359375 C 8.3125 -0.40625 8.171875 -0.609375 7.765625 -1.578125 Z M 2.859375 -3.21875 L 4.375 -6.765625 L 5.890625 -3.21875 Z M 2.859375 -3.21875 "/>
</g>
<g id="glyph-2-12">
<path d="M 4.796875 -8.46875 C 2.078125 -8.46875 0.265625 -6.703125 0.265625 -4.078125 C 0.265625 -1.5625 2 0.234375 4.421875 0.234375 C 7.09375 0.234375 9.125 -1.75 9.125 -4.375 C 9.125 -6.890625 7.453125 -8.46875 4.796875 -8.46875 Z M 4.59375 -7.96875 C 6.640625 -7.96875 7.84375 -6.5 7.84375 -4.015625 C 7.84375 -1.65625 6.75 -0.265625 4.890625 -0.265625 C 2.890625 -0.265625 1.546875 -1.953125 1.546875 -4.515625 C 1.546875 -6.71875 2.640625 -7.96875 4.59375 -7.96875 Z M 4.59375 -7.96875 "/>
</g>
<g id="glyph-2-13">
<path d="M 1.796875 -8.578125 L 1.6875 -8.671875 C 1.15625 -8.46875 0.765625 -8.375 -0.171875 -8.21875 L -0.171875 -7.890625 L 0.484375 -7.890625 C 0.703125 -7.890625 0.78125 -7.765625 0.78125 -7.40625 L 0.78125 -1.828125 C 0.78125 -1.09375 0.78125 -0.765625 0.6875 0.078125 L 0.890625 0.140625 L 1.359375 -0.28125 C 1.84375 0.03125 2.265625 0.140625 2.90625 0.140625 C 3.359375 0.140625 3.671875 0.0625 3.921875 -0.125 L 5.125 -0.984375 C 5.640625 -1.359375 6.0625 -2.359375 6.0625 -3.21875 C 6.0625 -4.609375 5.171875 -5.59375 3.90625 -5.59375 C 3.34375 -5.59375 2.75 -5.390625 2.453125 -5.078125 L 1.796875 -4.40625 Z M 1.796875 -3.671875 C 1.796875 -3.84375 1.90625 -4.0625 2.09375 -4.28125 C 2.4375 -4.625 2.90625 -4.828125 3.390625 -4.828125 C 4.390625 -4.828125 5.03125 -4.015625 5.03125 -2.734375 C 5.03125 -1.390625 4.3125 -0.46875 3.296875 -0.46875 C 2.671875 -0.46875 1.796875 -0.84375 1.796875 -1.109375 Z M 1.796875 -3.671875 "/>
</g>
<g id="glyph-2-14">
<path d="M 6.4375 -5.140625 L 6.4375 -5.484375 C 5.71875 -5.453125 5.5 -5.4375 5.3125 -5.4375 C 5.125 -5.4375 4.90625 -5.453125 4.1875 -5.484375 L 4.1875 -5.140625 L 4.671875 -5.125 C 4.875 -5.109375 4.96875 -5 4.96875 -4.8125 C 4.96875 -4.625 4.875 -4.296875 4.734375 -3.9375 L 4.234375 -2.671875 C 4.09375 -2.328125 3.953125 -2 3.5 -1 L 2.078125 -4.4375 C 2 -4.609375 1.96875 -4.765625 1.96875 -4.890625 C 1.96875 -5.03125 2.078125 -5.109375 2.265625 -5.125 L 2.859375 -5.140625 L 2.859375 -5.484375 C 1.6875 -5.4375 1.6875 -5.4375 1.453125 -5.4375 C 1.234375 -5.4375 0.65625 -5.453125 0.078125 -5.484375 L 0.078125 -5.140625 L 0.484375 -5.125 C 0.65625 -5.09375 0.71875 -5.03125 0.84375 -4.734375 L 2.90625 0.078125 L 3.5 0.078125 C 3.5625 -0.125 3.6875 -0.4375 3.6875 -0.453125 C 3.8125 -0.8125 3.96875 -1.21875 3.984375 -1.21875 L 5.390625 -4.328125 C 5.65625 -4.875 5.828125 -5.09375 6.0625 -5.125 Z M 6.4375 -5.140625 "/>
</g>
<g id="glyph-2-15">
<path d="M 2.4375 -1.46875 C 2.109375 -1.359375 1.890625 -1.296875 1.265625 -1.109375 C 1.1875 -0.203125 0.890625 0.578125 0.1875 1.71875 L 0.359375 1.84375 L 0.84375 1.625 C 1.8125 0.375 2.265625 -0.375 2.609375 -1.296875 Z M 2.4375 -1.46875 "/>
</g>
<g id="glyph-2-16">
<path d="M 2.578125 -7.65625 C 2.984375 -7.765625 3.34375 -7.8125 3.75 -7.8125 C 4.984375 -7.8125 5.6875 -7.234375 5.6875 -6.21875 C 5.6875 -5.125 4.8125 -4.421875 3.421875 -4.421875 C 3.34375 -4.421875 3.234375 -4.421875 3.078125 -4.4375 L 3.015625 -4.296875 C 3.140625 -4.140625 3.171875 -4.09375 3.3125 -3.9375 C 3.484375 -3.75 3.515625 -3.703125 3.625 -3.5625 L 5.828125 -0.609375 C 5.890625 -0.515625 5.96875 -0.421875 6.046875 -0.328125 C 6.125 -0.234375 6.203125 -0.125 6.3125 0.03125 C 6.875 0 7 0 7.125 0 C 7.234375 0 7.234375 0 7.984375 0.03125 L 7.984375 -0.328125 C 7.609375 -0.359375 7.40625 -0.4375 7.265625 -0.625 L 4.546875 -4.171875 C 5.21875 -4.328125 5.53125 -4.46875 5.921875 -4.734375 C 6.546875 -5.1875 6.875 -5.78125 6.875 -6.46875 C 6.875 -7.609375 6.046875 -8.265625 4.5625 -8.265625 L 4.375 -8.265625 C 2.8125 -8.21875 2.8125 -8.21875 2.40625 -8.21875 C 2.015625 -8.21875 2.015625 -8.21875 0.34375 -8.265625 L 0.34375 -7.90625 L 0.828125 -7.859375 C 1.390625 -7.828125 1.4375 -7.71875 1.4375 -6.796875 L 1.4375 -1.4375 C 1.4375 -0.484375 1.390625 -0.390625 0.828125 -0.359375 L 0.265625 -0.328125 L 0.265625 0.03125 C 0.96875 0.015625 1.390625 0 2 0 C 2.625 0 3.0625 0.015625 3.765625 0.03125 L 3.765625 -0.328125 L 3.1875 -0.359375 C 2.640625 -0.390625 2.578125 -0.484375 2.578125 -1.4375 Z M 2.578125 -7.65625 "/>
</g>
<g id="glyph-2-17">
<path d="M 4.9375 -5.59375 C 3.953125 -3.3125 3.765625 -2.90625 3.03125 -1.234375 L 2.03125 -4.53125 C 2 -4.640625 1.984375 -4.734375 1.984375 -4.828125 C 1.984375 -5.015625 2.140625 -5.109375 2.4375 -5.125 L 2.90625 -5.140625 L 2.90625 -5.484375 C 1.734375 -5.4375 1.734375 -5.4375 1.5 -5.4375 C 1.25 -5.4375 1.25 -5.4375 0.078125 -5.484375 L 0.078125 -5.140625 L 0.40625 -5.125 C 0.734375 -5.09375 0.890625 -4.859375 1.1875 -3.921875 L 2.40625 0.078125 L 2.96875 0.078125 L 4.140625 -2.65625 C 4.203125 -2.8125 4.328125 -3.09375 4.53125 -3.5 L 4.765625 -4 L 6.390625 0.078125 L 6.9375 0.078125 C 7.015625 -0.171875 7.109375 -0.4375 7.203125 -0.703125 C 7.453125 -1.40625 7.71875 -2.15625 7.765625 -2.21875 L 8.578125 -4.078125 C 8.921875 -4.875 9.078125 -5.078125 9.328125 -5.125 L 9.640625 -5.140625 L 9.640625 -5.484375 C 8.671875 -5.4375 8.671875 -5.4375 8.46875 -5.4375 C 8.28125 -5.4375 8.28125 -5.4375 7.3125 -5.484375 L 7.3125 -5.140625 L 7.71875 -5.125 C 8.015625 -5.109375 8.171875 -4.96875 8.171875 -4.75 C 8.171875 -4.625 8.15625 -4.484375 8.09375 -4.328125 L 7.5 -2.65625 C 7.40625 -2.390625 7.3125 -2.15625 6.921875 -1.171875 L 5.546875 -4.625 C 5.390625 -5.03125 5.296875 -5.28125 5.203125 -5.59375 Z M 4.9375 -5.59375 "/>
</g>
<g id="glyph-2-18">
<path d="M 4.921875 -5.21875 C 4.25 -5.5 3.921875 -5.59375 3.5 -5.59375 C 3.171875 -5.59375 2.890625 -5.53125 2.59375 -5.375 L 1.546875 -4.828125 C 0.859375 -4.46875 0.421875 -3.59375 0.421875 -2.578125 C 0.421875 -1.625 0.734375 -0.828125 1.328125 -0.359375 C 1.734375 -0.015625 2.296875 0.140625 3.0625 0.140625 C 3.3125 0.140625 3.578125 0.09375 3.640625 0.046875 L 4.96875 -1.0625 L 4.90625 0.03125 C 5.484375 0.015625 5.6875 0 5.828125 0 C 5.921875 0 6.09375 0 6.34375 0.015625 C 6.421875 0.03125 6.65625 0.03125 6.90625 0.03125 L 6.90625 -0.328125 L 6.359375 -0.359375 C 5.953125 -0.375 5.921875 -0.46875 5.921875 -1.21875 L 5.921875 -8.578125 L 5.8125 -8.671875 C 5.28125 -8.46875 4.890625 -8.375 3.953125 -8.21875 L 3.953125 -7.890625 L 4.625 -7.890625 C 4.828125 -7.890625 4.921875 -7.765625 4.921875 -7.40625 Z M 4.921875 -2.640625 C 4.921875 -1.859375 4.890625 -1.75 4.734375 -1.46875 C 4.40625 -0.90625 3.8125 -0.53125 3.265625 -0.53125 C 2.203125 -0.53125 1.453125 -1.546875 1.453125 -2.96875 C 1.453125 -4.28125 2.09375 -5.03125 3.171875 -5.03125 C 3.625 -5.03125 4.109375 -4.875 4.53125 -4.59375 C 4.78125 -4.421875 4.921875 -4.28125 4.921875 -4.171875 Z M 4.921875 -2.640625 "/>
</g>
<g id="glyph-2-19">
<path d="M 0.125 -4.78125 L 0.5625 -4.78125 C 1.03125 -4.78125 1.09375 -4.6875 1.09375 -3.90625 L 1.09375 2.09375 C 1.09375 2.859375 1.046875 2.9375 0.640625 2.953125 L 0.09375 3 L 0.09375 3.359375 C 1.296875 3.3125 1.296875 3.3125 1.59375 3.3125 C 1.890625 3.3125 1.890625 3.3125 3.078125 3.359375 L 3.078125 3 L 2.53125 2.953125 C 2.125 2.9375 2.09375 2.859375 2.09375 2.09375 L 2.09375 -0.15625 C 2.453125 0.0625 2.828125 0.140625 3.359375 0.140625 C 3.71875 0.140625 4.015625 0.078125 4.21875 -0.046875 L 5.578125 -0.9375 C 6.046875 -1.234375 6.609375 -2.46875 6.609375 -3.234375 C 6.609375 -4.5625 5.515625 -5.59375 4.125 -5.59375 C 3.6875 -5.59375 3.265625 -5.484375 3.0625 -5.296875 L 2.09375 -4.40625 L 2.09375 -5.546875 L 1.984375 -5.59375 C 1.375 -5.34375 0.75 -5.1875 0.125 -5.109375 Z M 2.09375 -3.65625 C 2.09375 -3.8125 2.15625 -3.953125 2.296875 -4.15625 C 2.65625 -4.59375 3.140625 -4.828125 3.734375 -4.828125 C 4.859375 -4.828125 5.578125 -4.03125 5.578125 -2.796875 C 5.578125 -1.453125 4.78125 -0.46875 3.703125 -0.46875 C 3.046875 -0.46875 2.546875 -0.6875 2.09375 -1.171875 Z M 2.09375 -3.65625 "/>
</g>
<g id="glyph-2-20">
<path d="M 4.078125 -8.5625 C 3.8125 -8.65625 3.671875 -8.6875 3.515625 -8.6875 C 3.140625 -8.6875 2.71875 -8.484375 2.453125 -8.1875 L 1.765625 -7.40625 C 1.421875 -7 1.265625 -6.46875 1.265625 -5.6875 L 1.265625 -5.1875 L 0.4375 -4.8125 L 0.4375 -4.546875 L 1.265625 -4.59375 L 1.265625 -1.21875 C 1.265625 -0.46875 1.234375 -0.375 0.828125 -0.359375 L 0.28125 -0.328125 L 0.28125 0.03125 C 1.46875 0 1.46875 0 1.765625 0 C 2.0625 0 2.0625 0 3.265625 0.03125 L 3.265625 -0.328125 L 2.703125 -0.359375 C 2.296875 -0.375 2.265625 -0.46875 2.265625 -1.21875 L 2.265625 -4.59375 L 3.75 -4.59375 L 3.828125 -5.234375 L 2.265625 -5.1875 L 2.265625 -6.203125 C 2.265625 -7.5625 2.421875 -7.90625 3.109375 -7.90625 C 3.421875 -7.90625 3.640625 -7.8125 3.921875 -7.5625 L 4.078125 -7.640625 Z M 4.078125 -8.5625 "/>
</g>
<g id="glyph-2-21">
<path d="M 0.796875 -6.625 L 0.921875 -6.625 L 2.453125 -7.3125 C 2.46875 -7.328125 2.484375 -7.328125 2.5 -7.328125 C 2.5625 -7.328125 2.59375 -7.21875 2.59375 -6.9375 L 2.59375 -1.140625 C 2.59375 -0.53125 2.453125 -0.390625 1.8125 -0.359375 L 1.140625 -0.328125 L 1.140625 0.03125 C 2.984375 0 2.984375 0 3.109375 0 C 3.265625 0 3.53125 0 3.9375 0.015625 C 4.078125 0.03125 4.5 0.03125 4.984375 0.03125 L 4.984375 -0.328125 L 4.375 -0.359375 C 3.71875 -0.390625 3.59375 -0.53125 3.59375 -1.140625 L 3.59375 -8.21875 L 3.421875 -8.28125 C 2.65625 -7.875 1.796875 -7.515625 0.71875 -7.140625 Z M 0.796875 -6.625 "/>
</g>
<g id="glyph-2-22">
<path d="M 0.1875 -0.28125 L 0.1875 0.03125 C 2.421875 0 2.421875 0 2.859375 0 C 3.28125 0 3.28125 0 5.59375 0.03125 C 5.5625 -0.21875 5.5625 -0.328125 5.5625 -0.5 C 5.5625 -0.65625 5.5625 -0.78125 5.59375 -1.03125 C 4.21875 -0.984375 3.671875 -0.96875 1.453125 -0.921875 L 3.625 -3.21875 C 4.78125 -4.453125 5.140625 -5.109375 5.140625 -6 C 5.140625 -7.375 4.21875 -8.21875 2.703125 -8.21875 C 1.84375 -8.21875 1.25 -7.984375 0.671875 -7.390625 L 0.46875 -5.765625 L 0.8125 -5.765625 L 0.96875 -6.3125 C 1.15625 -7 1.59375 -7.3125 2.390625 -7.3125 C 3.421875 -7.3125 4.078125 -6.65625 4.078125 -5.640625 C 4.078125 -4.75 3.5625 -3.875 2.21875 -2.4375 Z M 0.1875 -0.28125 "/>
</g>
<g id="glyph-2-23">
<path d="M 0.515625 -5.9375 L 0.890625 -5.9375 L 1.09375 -6.609375 C 1.234375 -7.015625 1.984375 -7.421875 2.609375 -7.421875 C 3.375 -7.421875 4.015625 -6.796875 4.015625 -6.046875 C 4.015625 -5.140625 3.3125 -4.390625 2.453125 -4.390625 C 2.359375 -4.390625 2.234375 -4.40625 2.078125 -4.421875 L 1.890625 -4.421875 L 1.75 -3.796875 L 1.84375 -3.71875 C 2.296875 -3.921875 2.515625 -3.984375 2.84375 -3.984375 C 3.828125 -3.984375 4.40625 -3.359375 4.40625 -2.265625 C 4.40625 -1.046875 3.671875 -0.25 2.5625 -0.25 C 2.015625 -0.25 1.53125 -0.4375 1.171875 -0.765625 C 0.890625 -1.03125 0.734375 -1.296875 0.5 -1.953125 L 0.171875 -1.828125 C 0.4375 -1.09375 0.53125 -0.671875 0.59375 -0.078125 C 1.234375 0.140625 1.75 0.234375 2.203125 0.234375 C 3.15625 0.234375 4.25 -0.296875 4.90625 -1.09375 C 5.3125 -1.59375 5.515625 -2.109375 5.515625 -2.671875 C 5.515625 -3.25 5.28125 -3.75 4.84375 -4.046875 C 4.546875 -4.265625 4.28125 -4.359375 3.671875 -4.46875 C 4.625 -5.203125 4.984375 -5.75 4.984375 -6.453125 C 4.984375 -7.515625 4.109375 -8.21875 2.78125 -8.21875 C 1.96875 -8.21875 1.4375 -8 0.859375 -7.421875 Z M 0.515625 -5.9375 "/>
</g>
<g id="glyph-2-24">
<path d="M 1.484375 -1.328125 C 1.125 -1.328125 0.796875 -0.984375 0.796875 -0.625 C 0.796875 -0.28125 1.125 0.0625 1.46875 0.0625 C 1.84375 0.0625 2.1875 -0.265625 2.1875 -0.625 C 2.1875 -0.984375 1.84375 -1.328125 1.484375 -1.328125 Z M 1.484375 -1.328125 "/>
</g>
<g id="glyph-3-0">
<path d="M 5.515625 -8.421875 L 1.0625 -1.34375 C 0.625 -0.671875 0.421875 -0.484375 0.015625 -0.375 L -0.234375 -0.328125 L -0.234375 0.03125 C 0.875 0 0.875 0 1.109375 0 C 1.34375 0 1.359375 0 2.390625 0.03125 L 2.390625 -0.296875 L 1.765625 -0.328125 C 1.578125 -0.34375 1.390625 -0.453125 1.390625 -0.5625 C 1.390625 -0.65625 1.484375 -0.828125 1.703125 -1.21875 L 2.921875 -3.3125 L 5.859375 -3.3125 L 6.15625 -1.0625 L 6.15625 -1.03125 C 6.15625 -1.015625 6.171875 -0.984375 6.1875 -0.921875 C 6.203125 -0.828125 6.203125 -0.703125 6.203125 -0.65625 C 6.203125 -0.46875 6.03125 -0.359375 5.6875 -0.328125 L 5.171875 -0.296875 L 5.171875 0.03125 C 6.390625 0 6.390625 0 6.625 0 C 6.859375 0 6.859375 0 8.078125 0.03125 L 8.078125 -0.296875 L 7.765625 -0.328125 C 7.203125 -0.421875 7.203125 -0.421875 7.109375 -0.953125 L 6.0625 -8.421875 Z M 5.359375 -7.171875 L 5.796875 -3.734375 L 3.21875 -3.734375 Z M 5.359375 -7.171875 "/>
</g>
<g id="glyph-3-1">
<path d="M 5.390625 -6.40625 L 5.734375 -6.40625 C 5.796875 -7.0625 5.875 -7.515625 6.046875 -8.015625 C 5.5 -8.3125 5.03125 -8.421875 4.46875 -8.421875 C 3.59375 -8.421875 2.6875 -8.0625 2.046875 -7.40625 C 1.546875 -6.921875 1.296875 -6.3125 1.296875 -5.625 C 1.296875 -4.609375 1.75 -4.046875 2.75 -3.8125 L 3.875 -3.53125 C 4.53125 -3.375 4.84375 -2.953125 4.84375 -2.28125 C 4.84375 -1.140625 4 -0.359375 2.765625 -0.359375 C 2.125 -0.359375 1.671875 -0.5 1.140625 -0.875 L 1.140625 -2.046875 L 0.78125 -2.046875 C 0.71875 -1.390625 0.625 -0.859375 0.5 -0.234375 C 1.09375 0.0625 1.71875 0.21875 2.359375 0.21875 C 4.203125 0.21875 5.796875 -1.1875 5.796875 -2.796875 C 5.796875 -3.734375 5.28125 -4.234375 4.078125 -4.5 L 3.296875 -4.671875 C 2.5 -4.828125 2.15625 -5.28125 2.15625 -6.0625 C 2.15625 -7.109375 2.953125 -7.859375 4.046875 -7.859375 C 4.625 -7.859375 5.03125 -7.703125 5.390625 -7.3125 Z M 5.390625 -6.40625 "/>
</g>
<g id="glyph-3-2">
<path d="M 1.25 -7.921875 L 1.921875 -7.90625 C 2.203125 -7.890625 2.34375 -7.796875 2.34375 -7.578125 C 2.34375 -7.40625 2.296875 -7.03125 2.234375 -6.671875 L 1.34375 -1.5 C 1.140625 -0.40625 1.125 -0.375 0.640625 -0.328125 L 0.15625 -0.296875 L 0.109375 0.03125 L 0.609375 0.03125 C 1.171875 0 1.390625 0 1.6875 0 L 2.84375 0.03125 L 3.15625 0.03125 L 3.1875 -0.296875 L 2.609375 -0.328125 C 2.28125 -0.359375 2.171875 -0.453125 2.171875 -0.6875 C 2.171875 -0.796875 2.1875 -0.90625 2.21875 -1.109375 L 3.234375 -6.921875 C 3.234375 -6.953125 3.296875 -7.1875 3.34375 -7.40625 C 3.359375 -7.5 3.390625 -7.578125 3.421875 -7.734375 C 3.765625 -7.8125 4.015625 -7.828125 4.328125 -7.828125 C 5.375 -7.828125 5.921875 -7.359375 5.921875 -6.484375 C 5.921875 -5.34375 4.984375 -4.515625 3.75 -4.515625 L 3.21875 -4.515625 L 3.1875 -4.375 C 4.78125 -2.046875 5.15625 -1.484375 6.046875 0.03125 L 6.84375 0 L 7.0625 0 C 7.078125 0 7.25 0.015625 7.46875 0.03125 L 7.625 0.03125 L 7.625 -0.28125 C 7.15625 -0.34375 7.015625 -0.4375 6.671875 -0.9375 L 4.484375 -4.21875 C 5.140625 -4.34375 5.484375 -4.484375 5.90625 -4.796875 C 6.59375 -5.296875 6.96875 -5.953125 6.96875 -6.6875 C 6.96875 -7.71875 6.203125 -8.28125 4.875 -8.265625 L 3.09375 -8.21875 C 2.90625 -8.21875 2.703125 -8.21875 1.296875 -8.265625 Z M 1.25 -7.921875 "/>
</g>
<g id="glyph-3-3">
<path d="M 1.5 -4.65625 L 0.828125 -1.28125 C 0.8125 -1.1875 0.796875 -1.171875 0.765625 -1.03125 C 0.6875 -0.6875 0.671875 -0.515625 0.671875 -0.375 C 0.671875 -0.078125 0.796875 0.109375 1.03125 0.109375 C 1.4375 0.109375 1.859375 -0.125 2.796875 -0.890625 L 2.96875 -1.03125 L 3.15625 -1.1875 L 3.046875 -1.390625 L 2.5 -1.03125 C 2.15625 -0.78125 1.921875 -0.671875 1.796875 -0.671875 C 1.6875 -0.671875 1.625 -0.765625 1.625 -0.90625 C 1.625 -1.21875 1.796875 -2.1875 2.140625 -3.921875 L 2.296875 -4.65625 L 3.5625 -4.65625 L 3.703125 -5.25 C 3.25 -5.203125 2.84375 -5.1875 2.390625 -5.1875 C 2.578125 -6.296875 2.703125 -6.890625 2.921875 -7.53125 L 2.796875 -7.71875 C 2.546875 -7.5625 2.234375 -7.421875 1.859375 -7.28125 L 1.5625 -5.25 C 1.03125 -5 0.734375 -4.875 0.515625 -4.8125 L 0.484375 -4.65625 Z M 1.5 -4.65625 "/>
</g>
<g id="glyph-4-0">
<path d="M 1.125 -3.484375 L 0.625 -0.953125 C 0.609375 -0.890625 0.59375 -0.875 0.578125 -0.765625 C 0.515625 -0.515625 0.5 -0.390625 0.5 -0.28125 C 0.5 -0.046875 0.59375 0.078125 0.765625 0.078125 C 1.078125 0.078125 1.390625 -0.09375 2.09375 -0.65625 L 2.234375 -0.765625 L 2.375 -0.890625 L 2.28125 -1.046875 L 1.875 -0.765625 C 1.625 -0.59375 1.4375 -0.5 1.34375 -0.5 C 1.265625 -0.5 1.21875 -0.578125 1.21875 -0.6875 C 1.21875 -0.90625 1.34375 -1.640625 1.609375 -2.9375 L 1.71875 -3.484375 L 2.671875 -3.484375 L 2.78125 -3.9375 C 2.4375 -3.90625 2.125 -3.890625 1.796875 -3.890625 C 1.9375 -4.734375 2.03125 -5.171875 2.1875 -5.65625 L 2.09375 -5.78125 C 1.921875 -5.671875 1.671875 -5.5625 1.390625 -5.46875 L 1.171875 -3.9375 C 0.78125 -3.75 0.546875 -3.65625 0.390625 -3.609375 L 0.359375 -3.484375 Z M 1.125 -3.484375 "/>
</g>
<g id="glyph-5-0">
<path d="M 3.8125 -2.140625 L 6.421875 -2.140625 C 6.546875 -2.140625 6.71875 -2.140625 6.71875 -2.328125 C 6.71875 -2.515625 6.546875 -2.515625 6.421875 -2.515625 L 3.8125 -2.515625 L 3.8125 -5.125 C 3.8125 -5.265625 3.8125 -5.4375 3.625 -5.4375 C 3.4375 -5.4375 3.4375 -5.265625 3.4375 -5.125 L 3.4375 -2.515625 L 0.828125 -2.515625 C 0.703125 -2.515625 0.515625 -2.515625 0.515625 -2.328125 C 0.515625 -2.140625 0.703125 -2.140625 0.828125 -2.140625 L 3.4375 -2.140625 L 3.4375 0.46875 C 3.4375 0.59375 3.4375 0.78125 3.625 0.78125 C 3.8125 0.78125 3.8125 0.59375 3.8125 0.46875 Z M 3.8125 -2.140625 "/>
</g>
<g id="glyph-6-0">
<path d="M 0.59375 -4.96875 L 0.6875 -4.96875 L 1.84375 -5.484375 C 1.859375 -5.5 1.859375 -5.5 1.875 -5.5 C 1.921875 -5.5 1.9375 -5.421875 1.9375 -5.203125 L 1.9375 -0.859375 C 1.9375 -0.390625 1.84375 -0.296875 1.359375 -0.265625 L 0.859375 -0.234375 L 0.859375 0.03125 C 2.234375 0 2.234375 0 2.34375 0 C 2.453125 0 2.65625 0 2.953125 0.015625 C 3.0625 0.015625 3.375 0.015625 3.75 0.03125 L 3.75 -0.234375 L 3.28125 -0.265625 C 2.78125 -0.296875 2.6875 -0.390625 2.6875 -0.859375 L 2.6875 -6.171875 L 2.5625 -6.21875 C 1.984375 -5.90625 1.359375 -5.640625 0.53125 -5.359375 Z M 0.59375 -4.96875 "/>
</g>
<g id="glyph-7-0">
<path d="M 8.546875 -4.0625 C 8.734375 -4.0625 8.96875 -4.0625 8.96875 -4.3125 C 8.96875 -4.5625 8.734375 -4.5625 8.5625 -4.5625 L 1.109375 -4.5625 C 0.9375 -4.5625 0.703125 -4.5625 0.703125 -4.3125 C 0.703125 -4.0625 0.9375 -4.0625 1.125 -4.0625 Z M 8.5625 -1.65625 C 8.734375 -1.65625 8.96875 -1.65625 8.96875 -1.90625 C 8.96875 -2.15625 8.734375 -2.15625 8.546875 -2.15625 L 1.125 -2.15625 C 0.9375 -2.15625 0.703125 -2.15625 0.703125 -1.90625 C 0.703125 -1.65625 0.9375 -1.65625 1.109375 -1.65625 Z M 8.5625 -1.65625 "/>
</g>
</g>
<clipPath id="clip-0">
<path clip-rule="nonzero" d="M 0 0.15625 L 523.605469 0.15625 L 523.605469 325.597656 L 0 325.597656 Z M 0 0.15625 "/>
</clipPath>
</defs>
<path fill-rule="nonzero" fill="rgb(97.645569%, 96.470642%, 94.119263%)" fill-opacity="1" d="M 12.6875 298.984375 L 12.6875 26.769531 C 12.6875 19.074219 18.921875 12.839844 26.613281 12.839844 L 496.996094 12.839844 C 504.691406 12.839844 510.925781 19.074219 510.925781 26.769531 L 510.925781 298.984375 C 510.925781 306.679688 504.691406 312.914062 496.996094 312.914062 L 26.613281 312.914062 C 18.921875 312.914062 12.6875 306.679688 12.6875 298.984375 Z M 12.6875 298.984375 "/>
<g clip-path="url(#clip-0)">
<path fill="none" stroke-width="1.49442" stroke-linecap="butt" stroke-linejoin="miter" stroke="rgb(83.137512%, 78.823853%, 72.155762%)" stroke-opacity="1" stroke-miterlimit="10" d="M -22.675609 -122.114992 L -22.675609 150.46225 C -22.675609 158.167807 -16.432934 164.410482 -8.731289 164.410482 L 462.277742 164.410482 C 469.983299 164.410482 476.225974 158.167807 476.225974 150.46225 L 476.225974 -122.114992 C 476.225974 -129.820549 469.983299 -136.063224 462.277742 -136.063224 L -8.731289 -136.063224 C -16.432934 -136.063224 -22.675609 -129.820549 -22.675609 -122.114992 Z M -22.675609 -122.114992 " transform="matrix(0.99867, 0, 0, -0.99867, 35.332961, 177.031738)"/>
</g>
<g fill="rgb(23.922729%, 20.783997%, 18.824768%)" fill-opacity="1">
<use xlink:href="#glyph-0-0" x="24.919824" y="46.922951"/>
<use xlink:href="#glyph-0-1" x="41.430839" y="46.922951"/>
<use xlink:href="#glyph-0-2" x="56.555622" y="46.922951"/>
</g>
<g fill="rgb(23.922729%, 20.783997%, 18.824768%)" fill-opacity="1">
<use xlink:href="#glyph-0-3" x="75.12123" y="46.922951"/>
<use xlink:href="#glyph-0-4" x="94.379955" y="46.922951"/>
<use xlink:href="#glyph-0-2" x="108.14326" y="46.922951"/>
<use xlink:href="#glyph-0-5" x="120.520332" y="46.922951"/>
<use xlink:href="#glyph-0-6" x="135.645115" y="46.922951"/>
<use xlink:href="#glyph-0-7" x="143.888245" y="46.922951"/>
<use xlink:href="#glyph-0-8" x="156.265318" y="46.922951"/>
<use xlink:href="#glyph-0-5" x="171.3901" y="46.922951"/>
<use xlink:href="#glyph-0-9" x="186.514883" y="46.922951"/>
<use xlink:href="#glyph-0-10" x="200.278187" y="46.922951"/>
<use xlink:href="#glyph-0-11" x="208.521318" y="46.922951"/>
<use xlink:href="#glyph-0-12" x="218.15068" y="46.922951"/>
<use xlink:href="#glyph-0-5" x="231.913985" y="46.922951"/>
<use xlink:href="#glyph-0-13" x="247.038767" y="46.922951"/>
<use xlink:href="#glyph-0-2" x="269.045202" y="46.922951"/>
<use xlink:href="#glyph-0-5" x="281.422274" y="46.922951"/>
<use xlink:href="#glyph-0-6" x="296.547057" y="46.922951"/>
</g>
<g fill="rgb(23.922729%, 20.783997%, 18.824768%)" fill-opacity="1">
<use xlink:href="#glyph-0-14" x="310.978724" y="46.922951"/>
<use xlink:href="#glyph-0-5" x="320.608086" y="46.922951"/>
<use xlink:href="#glyph-0-6" x="335.732869" y="46.922951"/>
<use xlink:href="#glyph-0-2" x="343.975999" y="46.922951"/>
<use xlink:href="#glyph-0-11" x="356.353071" y="46.922951"/>
<use xlink:href="#glyph-0-15" x="365.982434" y="46.922951"/>
<use xlink:href="#glyph-0-16" x="378.359506" y="46.922951"/>
<use xlink:href="#glyph-0-6" x="389.350346" y="46.922951"/>
<use xlink:href="#glyph-0-10" x="397.593477" y="46.922951"/>
<use xlink:href="#glyph-0-12" x="405.836607" y="46.922951"/>
<use xlink:href="#glyph-0-5" x="419.599912" y="46.922951"/>
</g>
<g fill="rgb(23.922729%, 20.783997%, 18.824768%)" fill-opacity="1">
<use xlink:href="#glyph-0-17" x="440.91323" y="46.922951"/>
<use xlink:href="#glyph-0-12" x="456.038013" y="46.922951"/>
<use xlink:href="#glyph-0-12" x="469.801318" y="46.922951"/>
<use xlink:href="#glyph-0-18" x="483.564622" y="46.922951"/>
</g>
<path fill-rule="nonzero" fill="rgb(93.786621%, 95.106506%, 96.139526%)" fill-opacity="1" stroke-width="1.79329" stroke-linecap="butt" stroke-linejoin="miter" stroke="rgb(48.234558%, 59.214783%, 67.843628%)" stroke-opacity="1" stroke-miterlimit="10" d="M 147.937944 42.521865 L 22.141789 42.521865 C 17.741407 42.521865 14.174165 38.950711 14.174165 34.550329 L 14.174165 -34.549353 C 14.174165 -38.953646 17.741407 -42.520889 22.141789 -42.520889 L 147.937944 -42.520889 C 152.338326 -42.520889 155.905569 -38.953646 155.905569 -34.549353 L 155.905569 34.550329 C 155.905569 38.950711 152.338326 42.521865 147.937944 42.521865 Z M 147.937944 42.521865 " transform="matrix(0.99867, 0, 0, -0.99867, 35.332961, 177.031738)"/>
<g fill="rgb(48.234558%, 59.214783%, 67.843628%)" fill-opacity="1">
<use xlink:href="#glyph-1-0" x="100.358393" y="163.226117"/>
<use xlink:href="#glyph-1-1" x="111.504898" y="163.226117"/>
<use xlink:href="#glyph-1-2" x="119.47078" y="163.226117"/>
<use xlink:href="#glyph-1-3" x="126.634343" y="163.226117"/>
<use xlink:href="#glyph-1-4" x="135.388218" y="163.226117"/>
</g>
<g fill="rgb(48.234558%, 43.920898%, 40.391541%)" fill-opacity="1">
<use xlink:href="#glyph-2-0" x="83.068412" y="192.545085"/>
<use xlink:href="#glyph-2-1" x="88.130677" y="192.545085"/>
<use xlink:href="#glyph-2-2" x="93.849604" y="192.545085"/>
<use xlink:href="#glyph-2-1" x="97.323942" y="192.545085"/>
<use xlink:href="#glyph-2-3" x="103.042869" y="192.545085"/>
<use xlink:href="#glyph-2-4" x="108.343921" y="192.545085"/>
<use xlink:href="#glyph-2-0" x="112.236134" y="192.545085"/>
</g>
<g fill="rgb(48.234558%, 43.920898%, 40.391541%)" fill-opacity="1">
<use xlink:href="#glyph-2-5" x="120.283226" y="192.545085"/>
<use xlink:href="#glyph-2-3" x="126.252879" y="192.545085"/>
<use xlink:href="#glyph-2-4" x="131.55393" y="192.545085"/>
<use xlink:href="#glyph-2-6" x="135.446144" y="192.545085"/>
<use xlink:href="#glyph-2-7" x="138.920482" y="192.545085"/>
<use xlink:href="#glyph-2-8" x="145.439342" y="192.545085"/>
<use xlink:href="#glyph-2-0" x="152.388018" y="192.545085"/>
</g>
<path fill-rule="nonzero" fill="rgb(93.740845%, 95.246887%, 93.928528%)" fill-opacity="1" stroke-width="1.79329" stroke-linecap="butt" stroke-linejoin="miter" stroke="rgb(47.840881%, 60.392761%, 49.412537%)" stroke-opacity="1" stroke-miterlimit="10" d="M 431.404664 42.521865 L 305.61242 42.521865 C 301.208127 42.521865 297.640884 38.950711 297.640884 34.550329 L 297.640884 -34.549353 C 297.640884 -38.953646 301.208127 -42.520889 305.61242 -42.520889 L 431.404664 -42.520889 C 435.808957 -42.520889 439.3762 -38.953646 439.3762 -34.549353 L 439.3762 34.550329 C 439.3762 38.950711 435.808957 42.521865 431.404664 42.521865 Z M 431.404664 42.521865 " transform="matrix(0.99867, 0, 0, -0.99867, 35.332961, 177.031738)"/>
<g fill="rgb(47.840881%, 60.392761%, 49.412537%)" fill-opacity="1">
<use xlink:href="#glyph-1-5" x="360.365248" y="164.977785"/>
<use xlink:href="#glyph-1-3" x="369.119122" y="164.977785"/>
<use xlink:href="#glyph-1-6" x="377.872996" y="164.977785"/>
<use xlink:href="#glyph-1-7" x="385.838879" y="164.977785"/>
<use xlink:href="#glyph-1-8" x="390.609812" y="164.977785"/>
<use xlink:href="#glyph-1-9" x="396.183064" y="164.977785"/>
<use xlink:href="#glyph-1-3" x="404.148946" y="164.977785"/>
<use xlink:href="#glyph-1-10" x="412.90282" y="164.977785"/>
<use xlink:href="#glyph-1-2" x="425.639636" y="164.977785"/>
<use xlink:href="#glyph-1-3" x="432.803199" y="164.977785"/>
<use xlink:href="#glyph-1-4" x="441.557073" y="164.977785"/>
</g>
<g fill="rgb(48.234558%, 43.920898%, 40.391541%)" fill-opacity="1">
<use xlink:href="#glyph-2-9" x="348.682801" y="190.808397"/>
<use xlink:href="#glyph-2-1" x="355.321054" y="190.808397"/>
<use xlink:href="#glyph-2-8" x="361.039982" y="190.808397"/>
<use xlink:href="#glyph-2-1" x="367.988657" y="190.808397"/>
<use xlink:href="#glyph-2-10" x="373.707585" y="190.808397"/>
<use xlink:href="#glyph-2-5" x="378.42361" y="190.808397"/>
<use xlink:href="#glyph-2-4" x="384.393263" y="190.808397"/>
<use xlink:href="#glyph-2-1" x="388.285476" y="190.808397"/>
<use xlink:href="#glyph-2-0" x="394.004404" y="190.808397"/>
</g>
<g fill="rgb(48.234558%, 43.920898%, 40.391541%)" fill-opacity="1">
<use xlink:href="#glyph-2-4" x="402.051495" y="190.808397"/>
<use xlink:href="#glyph-2-10" x="405.943709" y="190.808397"/>
<use xlink:href="#glyph-2-5" x="410.659734" y="190.808397"/>
<use xlink:href="#glyph-2-8" x="416.629387" y="190.808397"/>
<use xlink:href="#glyph-2-0" x="423.578063" y="190.808397"/>
<use xlink:href="#glyph-2-6" x="428.640328" y="190.808397"/>
<use xlink:href="#glyph-2-4" x="432.114666" y="190.808397"/>
<use xlink:href="#glyph-2-6" x="436.00688" y="190.808397"/>
<use xlink:href="#glyph-2-7" x="439.481217" y="190.808397"/>
<use xlink:href="#glyph-2-8" x="446.000078" y="190.808397"/>
<use xlink:href="#glyph-2-0" x="452.948754" y="190.808397"/>
</g>
<path fill="none" stroke-width="1.99255" stroke-linecap="butt" stroke-linejoin="miter" stroke="rgb(48.234558%, 59.214783%, 67.843628%)" stroke-opacity="1" stroke-miterlimit="10" d="M 156.805202 49.085279 C 198.610784 84.167077 254.939581 84.167077 292.160942 52.934146 " transform="matrix(0.99867, 0, 0, -0.99867, 35.332961, 177.031738)"/>
<path fill-rule="nonzero" fill="rgb(48.234558%, 59.214783%, 67.843628%)" fill-opacity="1" stroke-width="1.67422" stroke-linecap="butt" stroke-linejoin="miter" stroke="rgb(48.234558%, 59.214783%, 67.843628%)" stroke-opacity="1" stroke-miterlimit="10" d="M 7.431605 -0.00191971 L 2.789734 1.684085 L 4.355532 0.000632866 L 2.789185 -1.686467 Z M 7.431605 -0.00191971 " transform="matrix(0.765002, 0.641925, 0.641925, -0.765002, 324.093386, 121.642058)"/>
<path fill-rule="nonzero" fill="rgb(96.656799%, 95.199585%, 92.422485%)" fill-opacity="1" stroke-width="0.99628" stroke-linecap="butt" stroke-linejoin="miter" stroke="rgb(72.155762%, 59.999084%, 36.863708%)" stroke-opacity="1" stroke-miterlimit="10" d="M 255.61235 87.51919 L 197.938014 87.51919 C 195.735868 87.51919 193.952246 85.735569 193.952246 83.533422 L 193.952246 67.257877 C 193.952246 65.055731 195.735868 63.27211 197.938014 63.27211 L 255.61235 63.27211 C 257.810585 63.27211 259.598118 65.055731 259.598118 67.257877 L 259.598118 83.533422 C 259.598118 85.735569 257.810585 87.51919 255.61235 87.51919 Z M 255.61235 87.51919 " transform="matrix(0.99867, 0, 0, -0.99867, 35.332961, 177.031738)"/>
<g fill="rgb(23.922729%, 20.783997%, 18.824768%)" fill-opacity="1">
<use xlink:href="#glyph-2-11" x="235.98883" y="105.004627"/>
<use xlink:href="#glyph-2-3" x="245.277609" y="105.004627"/>
<use xlink:href="#glyph-2-4" x="250.578661" y="105.004627"/>
<use xlink:href="#glyph-2-6" x="254.470874" y="105.004627"/>
<use xlink:href="#glyph-2-7" x="257.945212" y="105.004627"/>
<use xlink:href="#glyph-2-8" x="264.464073" y="105.004627"/>
</g>
<g fill="rgb(23.922729%, 20.783997%, 18.824768%)" fill-opacity="1">
<use xlink:href="#glyph-3-0" x="275.137812" y="105.004627"/>
</g>
<g fill="rgb(23.922729%, 20.783997%, 18.824768%)" fill-opacity="1">
<use xlink:href="#glyph-4-0" x="284.024879" y="106.795243"/>
</g>
<path fill="none" stroke-width="1.99255" stroke-linecap="butt" stroke-linejoin="miter" stroke="rgb(47.840881%, 60.392761%, 49.412537%)" stroke-opacity="1" stroke-miterlimit="10" d="M 296.745162 -49.084302 C 254.939581 -84.166101 198.610784 -84.166101 161.389422 -52.933169 " transform="matrix(0.99867, 0, 0, -0.99867, 35.332961, 177.031738)"/>
<path fill-rule="nonzero" fill="rgb(47.840881%, 60.392761%, 49.412537%)" fill-opacity="1" stroke-width="1.67422" stroke-linecap="butt" stroke-linejoin="miter" stroke="rgb(47.840881%, 60.392761%, 49.412537%)" stroke-opacity="1" stroke-miterlimit="10" d="M 7.434146 -0.00106286 L 2.789278 1.682427 L 4.355076 -0.0010246 L 2.789211 -1.682614 Z M 7.434146 -0.00106286 " transform="matrix(-0.765002, -0.641925, -0.641925, 0.765002, 199.518482, 232.421418)"/>
<path fill-rule="nonzero" fill="rgb(96.656799%, 95.199585%, 92.422485%)" fill-opacity="1" stroke-width="0.99628" stroke-linecap="butt" stroke-linejoin="miter" stroke="rgb(72.155762%, 59.999084%, 36.863708%)" stroke-opacity="1" stroke-miterlimit="10" d="M 314.045507 -62.637478 L 139.504857 -62.637478 C 137.302711 -62.637478 135.519089 -64.421099 135.519089 -66.623246 L 135.519089 -84.166101 C 135.519089 -86.368247 137.302711 -88.151868 139.504857 -88.151868 L 314.045507 -88.151868 C 316.243742 -88.151868 318.031275 -86.368247 318.031275 -84.166101 L 318.031275 -66.623246 C 318.031275 -64.421099 316.243742 -62.637478 314.045507 -62.637478 Z M 314.045507 -62.637478 " transform="matrix(0.99867, 0, 0, -0.99867, 35.332961, 177.031738)"/>
<g fill="rgb(23.922729%, 20.783997%, 18.824768%)" fill-opacity="1">
<use xlink:href="#glyph-2-12" x="177.634516" y="255.187689"/>
<use xlink:href="#glyph-2-13" x="187.01881" y="255.187689"/>
<use xlink:href="#glyph-2-0" x="193.621246" y="255.187689"/>
<use xlink:href="#glyph-2-1" x="198.683511" y="255.187689"/>
<use xlink:href="#glyph-2-10" x="204.402439" y="255.187689"/>
<use xlink:href="#glyph-2-14" x="209.118464" y="255.187689"/>
<use xlink:href="#glyph-2-5" x="215.864172" y="255.187689"/>
<use xlink:href="#glyph-2-4" x="221.833824" y="255.187689"/>
<use xlink:href="#glyph-2-6" x="225.726038" y="255.187689"/>
<use xlink:href="#glyph-2-7" x="229.200376" y="255.187689"/>
<use xlink:href="#glyph-2-8" x="235.719236" y="255.187689"/>
</g>
<g fill="rgb(23.922729%, 20.783997%, 18.824768%)" fill-opacity="1">
<use xlink:href="#glyph-3-1" x="245.79601" y="255.187689"/>
</g>
<g fill="rgb(23.922729%, 20.783997%, 18.824768%)" fill-opacity="1">
<use xlink:href="#glyph-4-0" x="252.580741" y="257.330836"/>
</g>
<g fill="rgb(23.922729%, 20.783997%, 18.824768%)" fill-opacity="1">
<use xlink:href="#glyph-5-0" x="255.786516" y="257.330836"/>
</g>
<g fill="rgb(23.922729%, 20.783997%, 18.824768%)" fill-opacity="1">
<use xlink:href="#glyph-6-0" x="263.151294" y="257.330836"/>
</g>
<g fill="rgb(23.922729%, 20.783997%, 18.824768%)" fill-opacity="1">
<use xlink:href="#glyph-2-15" x="268.126045" y="255.187689"/>
</g>
<g fill="rgb(23.922729%, 20.783997%, 18.824768%)" fill-opacity="1">
<use xlink:href="#glyph-2-16" x="277.414825" y="255.187689"/>
<use xlink:href="#glyph-2-1" x="285.390281" y="255.187689"/>
<use xlink:href="#glyph-2-17" x="291.109208" y="255.187689"/>
<use xlink:href="#glyph-2-5" x="301.066589" y="255.187689"/>
<use xlink:href="#glyph-2-10" x="307.036241" y="255.187689"/>
</g>
<g fill="rgb(23.922729%, 20.783997%, 18.824768%)" fill-opacity="1">
<use xlink:href="#glyph-2-18" x="311.537359" y="255.187689"/>
</g>
<g fill="rgb(23.922729%, 20.783997%, 18.824768%)" fill-opacity="1">
<use xlink:href="#glyph-3-2" x="322.199159" y="255.187689"/>
</g>
<g fill="rgb(23.922729%, 20.783997%, 18.824768%)" fill-opacity="1">
<use xlink:href="#glyph-4-0" x="330.426106" y="257.330836"/>
</g>
<g fill="rgb(23.922729%, 20.783997%, 18.824768%)" fill-opacity="1">
<use xlink:href="#glyph-5-0" x="333.631881" y="257.330836"/>
</g>
<g fill="rgb(23.922729%, 20.783997%, 18.824768%)" fill-opacity="1">
<use xlink:href="#glyph-6-0" x="340.996659" y="257.330836"/>
</g>
<g fill="rgb(48.234558%, 43.920898%, 40.391541%)" fill-opacity="1">
<use xlink:href="#glyph-2-16" x="199.217783" y="298.563943"/>
<use xlink:href="#glyph-2-1" x="207.193239" y="298.563943"/>
<use xlink:href="#glyph-2-19" x="212.912166" y="298.563943"/>
<use xlink:href="#glyph-2-1" x="220.087688" y="298.563943"/>
<use xlink:href="#glyph-2-5" x="225.806615" y="298.563943"/>
<use xlink:href="#glyph-2-4" x="231.776268" y="298.563943"/>
</g>
<g fill="rgb(48.234558%, 43.920898%, 40.391541%)" fill-opacity="1">
<use xlink:href="#glyph-2-20" x="238.653308" y="298.563943"/>
<use xlink:href="#glyph-2-7" x="242.629097" y="298.563943"/>
<use xlink:href="#glyph-2-10" x="249.147957" y="298.563943"/>
</g>
<g fill="rgb(48.234558%, 43.920898%, 40.391541%)" fill-opacity="1">
<use xlink:href="#glyph-3-3" x="256.992081" y="298.563943"/>
</g>
<g fill="rgb(48.234558%, 43.920898%, 40.391541%)" fill-opacity="1">
<use xlink:href="#glyph-7-0" x="264.588124" y="298.563943"/>
</g>
<g fill="rgb(48.234558%, 43.920898%, 40.391541%)" fill-opacity="1">
<use xlink:href="#glyph-2-21" x="277.726929" y="298.563943"/>
<use xlink:href="#glyph-2-15" x="283.696581" y="298.563943"/>
</g>
<g fill="rgb(48.234558%, 43.920898%, 40.391541%)" fill-opacity="1">
<use xlink:href="#glyph-2-22" x="288.663332" y="298.563943"/>
<use xlink:href="#glyph-2-15" x="294.632985" y="298.563943"/>
</g>
<g fill="rgb(48.234558%, 43.920898%, 40.391541%)" fill-opacity="1">
<use xlink:href="#glyph-2-23" x="299.611675" y="298.563943"/>
<use xlink:href="#glyph-2-15" x="305.581328" y="298.563943"/>
</g>
<g fill="rgb(48.234558%, 43.920898%, 40.391541%)" fill-opacity="1">
<use xlink:href="#glyph-2-24" x="310.70329" y="298.563943"/>
</g>
<g fill="rgb(48.234558%, 43.920898%, 40.391541%)" fill-opacity="1">
<use xlink:href="#glyph-2-24" x="315.980463" y="298.563943"/>
</g>
<g fill="rgb(48.234558%, 43.920898%, 40.391541%)" fill-opacity="1">
<use xlink:href="#glyph-2-24" x="321.257636" y="298.563943"/>
</g>
</svg>
