<?xml version="1.0" encoding="UTF-8"?>
<svg xmlns="http://www.w3.org/2000/svg" xmlns:xlink="http://www.w3.org/1999/xlink" width="437.614pt" height="264.701pt" viewBox="0 0 437.614 264.701">
<defs>
<g>
<g id="glyph-0-0">
<path d="M 3.15625 -7.40625 C 3.828125 -7.4375 4.234375 -7.453125 4.890625 -7.453125 C 5.53125 -7.453125 6.046875 -7.34375 6.0625 -7.203125 L 6.15625 -6.3125 L 6.59375 -6.3125 L 6.75 -8.015625 L 6.6875 -8.09375 C 6.25 -8.125 6.015625 -8.140625 5.546875 -8.140625 C 5.28125 -8.140625 4.921875 -8.125 4.265625 -8.125 C 3.390625 -8.09375 3.0625 -8.09375 2.703125 -8.09375 C 2.296875 -8.09375 1.78125 -8.109375 0.46875 -8.125 L 0.46875 -7.6875 L 0.90625 -7.65625 C 1.4375 -7.609375 1.484375 -7.53125 1.484375 -6.484375 L 1.484375 -1.140625 C 1.484375 -0.734375 1.421875 -0.546875 1.234375 -0.453125 L 0.859375 -0.234375 L 0.859375 0.03125 C 2.046875 0 2.046875 0 2.3125 0 L 2.71875 0 C 3.921875 0.03125 4.40625 0.046875 5.015625 0.046875 C 5.640625 0.046875 6 0.03125 6.703125 0 L 6.75 -0.09375 L 6.890625 -1.984375 L 6.421875 -1.984375 L 6.140625 -0.859375 C 6.140625 -0.84375 6.140625 -0.828125 6.109375 -0.828125 C 5.734375 -0.703125 5.390625 -0.65625 4.734375 -0.65625 C 4.234375 -0.65625 3.765625 -0.671875 3.15625 -0.6875 L 3.15625 -3.875 C 3.5 -3.90625 3.703125 -3.921875 3.96875 -3.921875 L 4.75 -3.921875 C 5.203125 -3.921875 5.390625 -3.78125 5.4375 -3.46875 L 5.5 -2.875 L 5.984375 -2.875 L 5.9375 -4.171875 C 5.9375 -4.296875 5.9375 -4.3125 5.984375 -5.4375 L 5.5 -5.4375 L 5.4375 -4.765625 C 5.40625 -4.578125 5.25 -4.515625 4.75 -4.515625 L 3.96875 -4.515625 C 3.5625 -4.515625 3.40625 -4.515625 3.15625 -4.53125 Z M 3.15625 -7.40625 "/>
</g>
<g id="glyph-0-1">
<path d="M 0.28125 -4.671875 L 0.828125 -4.640625 C 1.09375 -4.625 1.140625 -4.515625 1.140625 -3.8125 L 1.140625 -1.1875 C 1.140625 -0.546875 1.078125 -0.453125 0.703125 -0.4375 L 0.28125 -0.40625 L 0.28125 0.03125 L 1.828125 0 C 2.0625 0 2.640625 0.015625 3.4375 0.03125 L 3.4375 -0.40625 L 3.015625 -0.4375 C 2.65625 -0.453125 2.59375 -0.546875 2.59375 -1.1875 L 2.59375 -3.78125 C 2.59375 -4.203125 3.078125 -4.59375 3.609375 -4.59375 C 4.390625 -4.59375 4.734375 -4.171875 4.734375 -3.21875 L 4.734375 0.03125 C 5.40625 0.015625 5.609375 0 5.796875 0 C 5.96875 0 5.96875 0 7 0.03125 L 7 -0.40625 L 6.609375 -0.4375 C 6.25 -0.453125 6.1875 -0.546875 6.1875 -1.1875 L 6.1875 -3.421875 C 6.1875 -4.328125 6.078125 -4.78125 5.765625 -5.125 C 5.453125 -5.4375 4.96875 -5.625 4.375 -5.625 C 4.015625 -5.625 3.734375 -5.546875 3.546875 -5.390625 L 2.59375 -4.65625 L 2.59375 -5.546875 L 2.515625 -5.625 C 1.28125 -5.21875 0.9375 -5.140625 0.28125 -5.109375 Z M 0.28125 -4.671875 "/>
</g>
<g id="glyph-0-2">
<path d="M 3.875 -0.71875 L 3.765625 -0.9375 C 3.53125 -0.828125 3.421875 -0.78125 3.21875 -0.78125 C 2.65625 -0.78125 2.484375 -0.984375 2.484375 -1.5625 L 2.484375 -4.40625 L 3.75 -4.40625 L 3.84375 -5.1875 L 2.484375 -5.109375 L 2.484375 -5.796875 C 2.484375 -6.4375 2.515625 -6.828125 2.625 -7.421875 L 2.453125 -7.546875 C 1.984375 -7.3125 1.609375 -7.171875 1 -6.953125 C 1.03125 -6.328125 1.046875 -6.09375 1.046875 -5.84375 L 1.046875 -5.140625 L 0.265625 -4.625 L 0.265625 -4.359375 L 1.03125 -4.40625 L 1.03125 -1.3125 C 1.03125 -0.25 1.46875 0.203125 2.5 0.203125 C 2.875 0.203125 3.171875 0.125 3.28125 -0.015625 Z M 3.875 -0.71875 "/>
</g>
<g id="glyph-0-3">
<path d="M 2.546875 -5.625 L 1.703125 -5.359375 C 1.328125 -5.234375 1.109375 -5.203125 0.359375 -5.109375 L 0.359375 -4.671875 L 0.890625 -4.640625 C 1.171875 -4.625 1.203125 -4.515625 1.203125 -3.8125 L 1.203125 -1.1875 C 1.203125 -0.546875 1.140625 -0.453125 0.78125 -0.4375 L 0.359375 -0.40625 L 0.359375 0.03125 L 1.890625 0 C 2.046875 0 2.09375 0 3.703125 0.03125 L 3.703125 -0.40625 L 3.234375 -0.4375 C 2.71875 -0.453125 2.65625 -0.53125 2.65625 -1.1875 L 2.65625 -3.5625 C 2.65625 -3.921875 3.15625 -4.328125 3.609375 -4.328125 C 3.921875 -4.328125 4.125 -4.171875 4.296875 -3.890625 L 4.578125 -4.015625 L 4.640625 -5.546875 C 4.53125 -5.59375 4.375 -5.625 4.203125 -5.625 C 3.875 -5.625 3.640625 -5.484375 3.1875 -4.984375 L 2.65625 -4.421875 L 2.65625 -5.546875 Z M 2.546875 -5.625 "/>
</g>
<g id="glyph-0-4">
<path d="M 3.421875 -5.625 C 1.53125 -5.625 0.484375 -4.578125 0.484375 -2.671875 C 0.484375 -0.828125 1.453125 0.203125 3.1875 0.203125 C 5.09375 0.203125 6.171875 -0.890625 6.171875 -2.8125 C 6.171875 -4.625 5.1875 -5.625 3.421875 -5.625 Z M 3.28125 -5.046875 C 4.140625 -5.046875 4.546875 -4.203125 4.546875 -2.453125 C 4.546875 -0.984375 4.21875 -0.375 3.40625 -0.375 C 2.546875 -0.375 2.09375 -1.234375 2.09375 -2.953125 C 2.09375 -4.40625 2.453125 -5.046875 3.28125 -5.046875 Z M 3.28125 -5.046875 "/>
</g>
<g id="glyph-0-5">
<path d="M 2.53125 -5.625 L 1.6875 -5.359375 C 1.296875 -5.234375 1.09375 -5.203125 0.484375 -5.125 L 0.34375 -5.109375 L 0.34375 -4.671875 L 0.890625 -4.640625 C 1.15625 -4.625 1.1875 -4.515625 1.1875 -3.8125 L 1.1875 1.84375 C 1.1875 2.5 1.140625 2.59375 0.765625 2.609375 L 0.34375 2.640625 L 0.34375 3.078125 L 1.890625 3.046875 C 2.046875 3.046875 2.0625 3.046875 3.609375 3.078125 L 3.609375 2.640625 L 3.078125 2.609375 C 2.703125 2.609375 2.65625 2.5 2.65625 1.84375 L 2.65625 0 C 3.234375 0.171875 3.421875 0.203125 3.71875 0.203125 C 4.125 0.203125 4.53125 -0.015625 5.34375 -0.65625 C 5.421875 -0.703125 5.484375 -0.765625 5.546875 -0.8125 C 6.34375 -1.40625 6.765625 -2.34375 6.765625 -3.421875 C 6.765625 -4.671875 5.84375 -5.625 4.609375 -5.625 C 4.140625 -5.625 3.796875 -5.484375 3.375 -5.15625 L 2.65625 -4.578125 L 2.65625 -5.546875 Z M 2.65625 -3.953125 C 2.90625 -4.34375 3.3125 -4.546875 3.796875 -4.546875 C 4.71875 -4.546875 5.265625 -3.828125 5.265625 -2.640625 C 5.265625 -1.390625 4.734375 -0.609375 3.859375 -0.609375 C 3.359375 -0.609375 2.96875 -0.8125 2.65625 -1.265625 Z M 2.65625 -3.953125 "/>
</g>
<g id="glyph-0-6">
<path d="M 3.28125 -5.03125 L 3.28125 -5.484375 L 1.703125 -5.4375 C 1.546875 -5.4375 1.359375 -5.4375 0.125 -5.484375 L 0.125 -5.03125 L 0.53125 -5 C 0.71875 -4.984375 0.859375 -4.796875 1.03125 -4.34375 L 2.921875 0.484375 L 2.65625 1.140625 C 2.375 1.828125 1.953125 2.234375 1.546875 2.234375 C 1.234375 2.234375 0.984375 2.09375 0.71875 1.796875 L 0.578125 1.84375 L 0.375 2.96875 C 0.6875 3.109375 0.96875 3.171875 1.234375 3.171875 C 2.078125 3.171875 2.734375 2.53125 3.34375 1.125 L 5.71875 -4.40625 C 5.859375 -4.734375 6.046875 -4.9375 6.203125 -4.96875 L 6.515625 -5.03125 L 6.515625 -5.484375 L 5.40625 -5.4375 C 5.375 -5.4375 5 -5.453125 4.296875 -5.484375 L 4.296875 -5.03125 L 4.6875 -5 C 4.875 -4.984375 5.015625 -4.890625 5.015625 -4.765625 C 5.015625 -4.6875 4.984375 -4.5625 4.96875 -4.5 L 3.765625 -1.5 L 2.75 -4.09375 C 2.75 -4.109375 2.71875 -4.1875 2.6875 -4.28125 C 2.59375 -4.5 2.546875 -4.609375 2.546875 -4.734375 C 2.546875 -4.875 2.6875 -4.984375 2.859375 -5 Z M 3.28125 -5.03125 "/>
</g>
<g id="glyph-0-7">
<path d="M 2.859375 -6.46875 C 2.859375 -6.921875 2.890625 -7.140625 2.96875 -7.296875 C 3.0625 -7.46875 3.28125 -7.5625 3.5625 -7.5625 C 3.8125 -7.5625 4 -7.5 4.359375 -7.28125 L 4.546875 -7.359375 L 4.546875 -8.53125 C 4.34375 -8.578125 4.21875 -8.59375 4.046875 -8.59375 C 3.671875 -8.59375 3.390625 -8.46875 2.9375 -8.09375 L 2.046875 -7.359375 C 1.484375 -6.875 1.390625 -6.65625 1.390625 -5.71875 L 1.390625 -5.203125 C 1.09375 -4.984375 0.84375 -4.859375 0.453125 -4.671875 L 0.453125 -4.375 L 1.390625 -4.4375 L 1.390625 -1.1875 C 1.390625 -0.53125 1.34375 -0.453125 0.890625 -0.4375 L 0.40625 -0.40625 L 0.40625 0.03125 C 1.859375 0 1.859375 0 2.09375 0 C 2.25 0 2.25 0 3.984375 0.03125 L 3.984375 -0.40625 L 3.453125 -0.4375 C 3.125 -0.4375 2.921875 -0.53125 2.890625 -0.65625 C 2.859375 -0.765625 2.859375 -0.90625 2.859375 -1.1875 L 2.859375 -4.4375 L 4.328125 -4.4375 L 4.46875 -5.140625 L 4.421875 -5.234375 C 3.640625 -5.1875 3.34375 -5.1875 2.859375 -5.1875 Z M 2.859375 -6.46875 "/>
</g>
<g id="glyph-0-8">
<path d="M 3.5625 -0.796875 L 3.515625 -0.0625 L 3.5625 0.03125 C 4.3125 0.015625 4.515625 0 4.65625 0 C 4.796875 0 4.984375 0.015625 5.703125 0.03125 L 5.703125 -0.40625 L 5.34375 -0.4375 C 5.078125 -0.484375 5.03125 -0.609375 5.015625 -1.171875 L 5.015625 -1.421875 C 5 -1.796875 4.984375 -2.140625 4.984375 -2.421875 C 4.984375 -2.75 5 -3.125 5.015625 -3.578125 C 5.03125 -3.734375 5.03125 -3.84375 5.03125 -3.921875 C 5.03125 -4.984375 4.3125 -5.625 3.109375 -5.625 C 2.609375 -5.625 2.109375 -5.484375 1.671875 -5.21875 L 1.03125 -4.828125 L 1.03125 -4.015625 L 1.390625 -3.921875 L 1.65625 -4.53125 C 1.6875 -4.609375 2.03125 -4.6875 2.359375 -4.6875 C 3.15625 -4.6875 3.53125 -4.265625 3.5625 -3.28125 L 2.515625 -3.0625 C 1.015625 -2.75 0.484375 -2.296875 0.484375 -1.28125 C 0.484375 -0.3125 0.96875 0.203125 1.875 0.203125 C 2.140625 0.203125 2.34375 0.15625 2.453125 0.0625 Z M 3.5625 -1.375 C 3.34375 -1.0625 2.90625 -0.828125 2.546875 -0.828125 C 2.15625 -0.828125 1.9375 -1.125 1.9375 -1.59375 C 1.9375 -2.171875 2.1875 -2.40625 3.03125 -2.640625 L 3.5625 -2.78125 Z M 3.5625 -1.375 "/>
</g>
<g id="glyph-0-9">
<path d="M 3.765625 -8.125 C 3.484375 -8.109375 2.65625 -8.09375 2.46875 -8.09375 C 2.296875 -8.09375 1.953125 -8.09375 1.40625 -8.109375 L 0.46875 -8.125 L 0.46875 -7.6875 L 0.90625 -7.65625 C 1.4375 -7.609375 1.484375 -7.53125 1.484375 -6.484375 L 1.484375 -1.140625 C 1.484375 -0.734375 1.421875 -0.546875 1.234375 -0.453125 L 0.859375 -0.234375 L 0.859375 0.03125 C 1.71875 0.015625 2.03125 0 2.359375 0 C 2.546875 0 2.796875 0 3.078125 0.015625 C 3.703125 0.03125 4.015625 0.03125 4.0625 0.03125 C 5.96875 0.03125 7.296875 -1.03125 7.296875 -2.578125 C 7.296875 -3.21875 7.0625 -3.734375 6.640625 -4.03125 C 6.203125 -4.328125 5.796875 -4.4375 4.84375 -4.5 C 5.84375 -4.859375 6.203125 -5.03125 6.5625 -5.375 C 6.859375 -5.640625 7.015625 -6.0625 7.015625 -6.515625 C 7.015625 -7.609375 6.28125 -8.125 4.765625 -8.125 Z M 3.15625 -4.15625 L 3.515625 -4.15625 C 4.90625 -4.15625 5.5 -3.625 5.5 -2.40625 C 5.5 -1.171875 4.9375 -0.625 3.671875 -0.625 C 3.5 -0.625 3.359375 -0.625 3.15625 -0.671875 Z M 3.15625 -7.484375 C 3.453125 -7.515625 3.625 -7.53125 3.859375 -7.53125 C 4.828125 -7.53125 5.25 -7.140625 5.25 -6.25 C 5.25 -5.21875 4.734375 -4.78125 3.515625 -4.78125 L 3.15625 -4.78125 Z M 3.15625 -7.484375 "/>
</g>
<g id="glyph-0-10">
<path d="M 5.5 -3.515625 C 5.5 -4.796875 4.609375 -5.625 3.25 -5.625 C 2.828125 -5.625 2.515625 -5.53125 2.203125 -5.34375 L 1.640625 -5.015625 C 0.84375 -4.546875 0.5 -3.828125 0.5 -2.703125 C 0.5 -0.796875 1.453125 0.203125 3.234375 0.203125 C 3.921875 0.203125 4.359375 0.078125 5.125 -0.3125 L 5.390625 -0.890625 L 5.234375 -1.0625 C 4.671875 -0.75 4.328125 -0.640625 3.84375 -0.640625 C 3.21875 -0.640625 2.640625 -0.984375 2.34375 -1.5 C 2.15625 -1.828125 2.078125 -2.09375 2.046875 -2.65625 L 3.609375 -2.65625 C 4.296875 -2.65625 4.828125 -2.734375 5.5 -2.90625 Z M 2.984375 -3.265625 L 2.9375 -3.265625 C 2.859375 -3.265625 2.546875 -3.265625 2.359375 -3.28125 L 1.984375 -3.296875 C 2.015625 -4.484375 2.296875 -4.953125 3 -4.953125 C 3.671875 -4.953125 3.96875 -4.484375 3.984375 -3.296875 Z M 2.984375 -3.265625 "/>
</g>
<g id="glyph-0-11">
<path d="M 4.671875 -0.953125 L 4.625 0.03125 C 5.609375 0 5.609375 0 5.734375 0 C 5.859375 0 6.0625 0 6.40625 0.03125 C 6.484375 0.03125 6.703125 0.03125 6.953125 0.03125 L 6.953125 -0.40625 L 6.5625 -0.4375 C 6.203125 -0.453125 6.140625 -0.546875 6.140625 -1.1875 L 6.140625 -5.546875 L 6.015625 -5.625 L 5.1875 -5.359375 C 4.78125 -5.234375 4.578125 -5.203125 3.828125 -5.109375 L 3.828125 -4.671875 L 4.375 -4.640625 C 4.640625 -4.625 4.671875 -4.515625 4.671875 -3.8125 L 4.671875 -1.953125 C 4.671875 -1.359375 4.171875 -0.875 3.53125 -0.875 C 2.859375 -0.875 2.609375 -1.296875 2.609375 -2.4375 L 2.609375 -5.546875 L 2.484375 -5.625 L 1.640625 -5.359375 C 1.25 -5.234375 1.046875 -5.203125 0.296875 -5.109375 L 0.296875 -4.671875 L 0.828125 -4.640625 C 1.109375 -4.625 1.140625 -4.515625 1.140625 -3.8125 L 1.140625 -1.671875 C 1.140625 -0.46875 1.796875 0.203125 2.9375 0.203125 C 3.28125 0.203125 3.59375 0.109375 3.765625 -0.078125 Z M 4.671875 -0.953125 "/>
</g>
<g id="glyph-0-12">
<path d="M 2.59375 -8.59375 L 1.734375 -8.328125 C 1.390625 -8.21875 0.984375 -8.15625 0.28125 -8.078125 L 0.28125 -7.65625 L 0.921875 -7.609375 C 1.1875 -7.609375 1.234375 -7.484375 1.234375 -6.78125 L 1.234375 -1.1875 C 1.234375 -0.546875 1.171875 -0.453125 0.796875 -0.4375 L 0.375 -0.40625 L 0.375 0.03125 L 1.921875 0 C 2.15625 0 2.734375 0.015625 3.53125 0.03125 L 3.53125 -0.40625 L 3.109375 -0.4375 C 2.75 -0.453125 2.6875 -0.546875 2.6875 -1.1875 L 2.6875 -8.53125 Z M 2.59375 -8.59375 "/>
</g>
<g id="glyph-0-13">
<path d="M 2.59375 -5.625 L 1.75 -5.359375 C 1.375 -5.234375 1.09375 -5.1875 0.578125 -5.140625 C 0.546875 -5.140625 0.484375 -5.125 0.40625 -5.109375 L 0.40625 -4.671875 L 0.9375 -4.640625 C 1.21875 -4.625 1.25 -4.515625 1.25 -3.8125 L 1.25 -1.1875 C 1.25 -0.546875 1.1875 -0.453125 0.828125 -0.4375 L 0.40625 -0.40625 L 0.40625 0.03125 L 1.953125 0 C 2.1875 0 2.75 0.015625 3.5625 0.03125 L 3.5625 -0.40625 L 3.140625 -0.4375 C 2.765625 -0.453125 2.703125 -0.546875 2.703125 -1.1875 L 2.703125 -5.546875 Z M 1.953125 -8.421875 C 1.4375 -8.421875 1.03125 -8.046875 1.03125 -7.546875 C 1.03125 -7.046875 1.4375 -6.640625 1.9375 -6.640625 C 2.421875 -6.640625 2.828125 -7.046875 2.828125 -7.53125 C 2.828125 -8.015625 2.4375 -8.421875 1.953125 -8.421875 Z M 1.953125 -8.421875 "/>
</g>
<g id="glyph-0-14">
<path d="M 3.328125 -8.625 C 2.140625 -7.671875 1.65625 -7.109375 1.234375 -6.09375 C 0.9375 -5.375 0.78125 -4.5625 0.78125 -3.671875 C 0.78125 -2.75 0.9375 -1.953125 1.25 -1.234375 C 1.6875 -0.234375 2.15625 0.328125 3.359375 1.234375 L 3.640625 0.953125 C 2.609375 -0.359375 2.359375 -1.234375 2.359375 -3.671875 C 2.359375 -4.984375 2.484375 -6.03125 2.703125 -6.703125 C 2.90625 -7.359375 3.109375 -7.71875 3.640625 -8.375 Z M 3.328125 -8.625 "/>
</g>
<g id="glyph-0-15">
<path d="M 0.328125 -8.375 C 0.828125 -7.734375 1.03125 -7.40625 1.234375 -6.796875 C 1.5 -6.078125 1.609375 -5.0625 1.609375 -3.671875 C 1.609375 -1.234375 1.375 -0.375 0.328125 0.953125 L 0.625 1.234375 C 1.8125 0.328125 2.296875 -0.234375 2.71875 -1.234375 C 3.046875 -1.953125 3.203125 -2.75 3.203125 -3.671875 C 3.203125 -4.5625 3.046875 -5.375 2.734375 -6.09375 C 2.3125 -7.09375 1.84375 -7.671875 0.640625 -8.625 Z M 0.328125 -8.375 "/>
</g>
<g id="glyph-0-16">
<path d="M 0.8125 -0.234375 L 0.8125 0.03125 C 2.4375 0 2.4375 0 2.65625 0 C 2.875 0 3.515625 0.015625 3.8125 0.03125 L 4.53125 0.03125 C 5.9375 0.03125 7.25 -0.46875 8.140625 -1.34375 C 8.96875 -2.15625 9.390625 -3.21875 9.390625 -4.484375 C 9.390625 -5.625 9.0625 -6.546875 8.46875 -7.140625 C 7.765625 -7.828125 6.8125 -8.125 5.203125 -8.125 C 3.34375 -8.109375 2.390625 -8.09375 2.359375 -8.09375 C 2.203125 -8.09375 2.203125 -8.09375 0.421875 -8.125 L 0.421875 -7.6875 L 0.859375 -7.65625 C 1.390625 -7.609375 1.4375 -7.53125 1.4375 -6.484375 L 1.4375 -1.140625 C 1.4375 -0.734375 1.375 -0.546875 1.1875 -0.453125 Z M 3.109375 -7.484375 C 3.40625 -7.515625 3.59375 -7.53125 3.875 -7.53125 C 5.265625 -7.53125 6.21875 -7.25 6.796875 -6.671875 C 7.34375 -6.140625 7.59375 -5.34375 7.59375 -4.15625 C 7.59375 -2.953125 7.296875 -2.046875 6.71875 -1.46875 C 6.125 -0.890625 5.28125 -0.625 3.921875 -0.625 C 3.625 -0.625 3.421875 -0.625 3.109375 -0.6875 Z M 3.109375 -7.484375 "/>
</g>
<g id="glyph-0-17">
<path d="M 4.328125 -3.890625 L 4.421875 -5.34375 C 3.953125 -5.546875 3.578125 -5.625 2.953125 -5.625 C 1.34375 -5.625 0.46875 -4.984375 0.46875 -3.78125 C 0.46875 -3 0.890625 -2.5 1.734375 -2.296875 L 2.75 -2.046875 C 3.3125 -1.90625 3.515625 -1.703125 3.515625 -1.296875 C 3.515625 -0.734375 3.078125 -0.375 2.40625 -0.375 C 1.84375 -0.375 1.453125 -0.546875 1.078125 -0.984375 L 1.015625 -1.8125 L 0.546875 -1.8125 L 0.46875 -0.125 C 1.140625 0.109375 1.6875 0.203125 2.3125 0.203125 C 3.8125 0.203125 4.828125 -0.625 4.828125 -1.84375 C 4.828125 -2.703125 4.390625 -3.15625 3.3125 -3.390625 L 2.34375 -3.609375 C 1.875 -3.71875 1.6875 -3.90625 1.6875 -4.28125 C 1.6875 -4.75 2.09375 -5.046875 2.734375 -5.046875 C 3.21875 -5.046875 3.734375 -4.828125 3.765625 -4.578125 L 3.890625 -3.890625 Z M 4.328125 -3.890625 "/>
</g>
<g id="glyph-0-18">
<path d="M 2.515625 -8.53125 L 2.421875 -8.59375 L 1.5625 -8.328125 C 1.21875 -8.21875 0.8125 -8.15625 0.125 -8.078125 L 0.125 -7.65625 L 0.75 -7.609375 C 1.015625 -7.609375 1.0625 -7.484375 1.0625 -6.78125 L 1.0625 -1.9375 C 1.0625 -1.296875 1.03125 -0.578125 0.953125 0.046875 L 1.21875 0.140625 L 1.6875 -0.234375 C 2.234375 0.0625 2.734375 0.203125 3.25 0.203125 C 3.609375 0.203125 3.9375 0.109375 4.28125 -0.09375 C 4.765625 -0.375 5.3125 -0.75 5.640625 -1.03125 C 6.25 -1.515625 6.640625 -2.4375 6.640625 -3.359375 C 6.640625 -4.671875 5.734375 -5.625 4.484375 -5.625 C 4.015625 -5.625 3.671875 -5.484375 3.25 -5.15625 L 2.515625 -4.578125 Z M 2.515625 -3.953125 C 2.78125 -4.34375 3.171875 -4.546875 3.671875 -4.546875 C 4.578125 -4.546875 5.140625 -3.828125 5.140625 -2.640625 C 5.140625 -1.390625 4.59375 -0.609375 3.71875 -0.609375 C 3.21875 -0.609375 2.84375 -0.8125 2.515625 -1.265625 Z M 2.515625 -3.953125 "/>
</g>
<g id="glyph-1-0">
<path d="M 1.375 -0.03125 L 1.484375 0 C 1.796875 0.09375 1.96875 0.125 2.09375 0.125 C 2.765625 0.125 4.140625 -0.734375 4.65625 -1.5 C 5.140625 -2.21875 5.546875 -3.53125 5.546875 -4.421875 C 5.546875 -5.234375 5.28125 -5.75 4.84375 -5.75 C 4.34375 -5.75 3.71875 -5.4375 3.09375 -4.875 C 2.609375 -4.46875 2.359375 -4.15625 1.9375 -3.453125 L 2.21875 -4.875 C 2.25 -5.078125 2.28125 -5.25 2.28125 -5.390625 C 2.28125 -5.625 2.1875 -5.75 2.015625 -5.75 C 1.765625 -5.75 1.3125 -5.5 0.4375 -4.875 L 0.09375 -4.625 L 0.171875 -4.390625 L 0.5625 -4.640625 C 0.890625 -4.859375 1.03125 -4.921875 1.140625 -4.921875 C 1.25 -4.921875 1.34375 -4.8125 1.34375 -4.640625 C 1.34375 -4.546875 1.3125 -4.3125 1.296875 -4.1875 L 0.59375 -0.09375 C 0.484375 0.625 0.25 1.703125 0.015625 2.78125 L -0.078125 3.21875 L 0 3.296875 C 0.25 3.21875 0.484375 3.15625 0.875 3.09375 Z M 1.703125 -1.96875 C 1.96875 -3.5 3.25 -5.0625 4.234375 -5.0625 C 4.546875 -5.0625 4.6875 -4.796875 4.6875 -4.25 C 4.6875 -3.28125 4.21875 -1.859375 3.578125 -0.953125 C 3.34375 -0.609375 2.953125 -0.4375 2.46875 -0.4375 C 2.09375 -0.4375 1.796875 -0.515625 1.5 -0.703125 Z M 1.703125 -1.96875 "/>
</g>
<g id="glyph-2-0">
<path d="M 1.140625 -0.03125 L 1.234375 0 C 1.5 0.078125 1.640625 0.109375 1.75 0.109375 C 2.3125 0.109375 3.453125 -0.609375 3.875 -1.25 C 4.296875 -1.84375 4.625 -2.953125 4.625 -3.6875 C 4.625 -4.359375 4.40625 -4.796875 4.046875 -4.796875 C 3.625 -4.796875 3.09375 -4.53125 2.578125 -4.078125 C 2.171875 -3.71875 1.96875 -3.46875 1.609375 -2.875 L 1.84375 -4.0625 C 1.875 -4.234375 1.90625 -4.375 1.90625 -4.5 C 1.90625 -4.6875 1.828125 -4.796875 1.6875 -4.796875 C 1.46875 -4.796875 1.09375 -4.59375 0.359375 -4.0625 L 0.078125 -3.859375 L 0.15625 -3.65625 L 0.46875 -3.875 C 0.75 -4.046875 0.859375 -4.09375 0.953125 -4.09375 C 1.046875 -4.09375 1.109375 -4.015625 1.109375 -3.875 C 1.109375 -3.796875 1.09375 -3.59375 1.078125 -3.5 L 0.5 -0.078125 C 0.390625 0.515625 0.203125 1.421875 0.015625 2.3125 L -0.0625 2.6875 L 0 2.75 C 0.203125 2.671875 0.40625 2.625 0.734375 2.578125 Z M 1.421875 -1.640625 C 1.640625 -2.921875 2.703125 -4.21875 3.53125 -4.21875 C 3.796875 -4.21875 3.90625 -4 3.90625 -3.546875 C 3.90625 -2.734375 3.515625 -1.546875 2.984375 -0.796875 C 2.78125 -0.5 2.46875 -0.359375 2.0625 -0.359375 C 1.75 -0.359375 1.5 -0.421875 1.25 -0.59375 Z M 1.421875 -1.640625 "/>
</g>
<g id="glyph-3-0">
<path d="M 1.984375 -3.453125 L 2.359375 -5.484375 C 2.421875 -5.84375 2.484375 -5.890625 2.8125 -5.921875 L 3.1875 -5.9375 L 3.21875 -6.203125 L 3 -6.203125 L 2.1875 -6.171875 C 2.046875 -6.171875 1.890625 -6.171875 1.5 -6.171875 L 0.9375 -6.203125 L 0.90625 -5.9375 L 1.328125 -5.921875 C 1.546875 -5.921875 1.640625 -5.84375 1.640625 -5.6875 C 1.640625 -5.5625 1.609375 -5.28125 1.5625 -5 L 0.890625 -1.125 C 0.75 -0.296875 0.734375 -0.28125 0.375 -0.25 L 0.015625 -0.21875 L -0.03125 0.03125 L 0.34375 0.015625 C 0.78125 0.015625 0.984375 0 1.15625 0 L 2.015625 0.03125 L 2.25 0.03125 L 2.28125 -0.21875 L 1.84375 -0.25 C 1.609375 -0.265625 1.515625 -0.328125 1.515625 -0.515625 C 1.515625 -0.59375 1.53125 -0.65625 1.5625 -0.828125 L 1.9375 -3.046875 L 2.484375 -3.046875 C 3.03125 -3.0625 3.40625 -3.078125 3.578125 -3.078125 C 3.75 -3.078125 4.125 -3.0625 4.6875 -3.046875 L 5.234375 -3.046875 L 4.875 -1.125 C 4.796875 -0.6875 4.734375 -0.4375 4.6875 -0.375 C 4.640625 -0.296875 4.546875 -0.265625 4.34375 -0.25 L 3.90625 -0.21875 L 3.875 0.03125 L 4.375 0.015625 C 4.765625 0.015625 5.03125 0 5.125 0 C 5.265625 0 5.546875 0.015625 5.9375 0.015625 L 6.3125 0.03125 L 6.34375 -0.21875 L 5.8125 -0.25 C 5.59375 -0.265625 5.5 -0.328125 5.5 -0.515625 C 5.5 -0.59375 5.5 -0.6875 5.53125 -0.828125 L 6.359375 -5.484375 C 6.421875 -5.84375 6.46875 -5.875 6.8125 -5.921875 L 7.140625 -5.9375 L 7.15625 -6.203125 L 7.015625 -6.203125 L 6.203125 -6.171875 C 6.0625 -6.171875 5.875 -6.171875 5.484375 -6.171875 L 4.921875 -6.203125 L 4.890625 -5.9375 L 5.328125 -5.921875 C 5.546875 -5.921875 5.640625 -5.84375 5.640625 -5.6875 C 5.640625 -5.5625 5.609375 -5.265625 5.5625 -5 L 5.296875 -3.453125 Z M 1.984375 -3.453125 "/>
</g>
<g id="glyph-3-1">
<path d="M 1.03125 -0.03125 L 1.109375 0 C 1.34375 0.078125 1.484375 0.09375 1.578125 0.09375 C 2.078125 0.09375 3.109375 -0.5625 3.484375 -1.125 C 3.859375 -1.671875 4.15625 -2.65625 4.15625 -3.328125 C 4.15625 -3.921875 3.953125 -4.3125 3.640625 -4.3125 C 3.265625 -4.3125 2.78125 -4.078125 2.3125 -3.65625 C 1.953125 -3.34375 1.765625 -3.109375 1.453125 -2.59375 L 1.671875 -3.65625 C 1.6875 -3.8125 1.703125 -3.9375 1.703125 -4.046875 C 1.703125 -4.21875 1.640625 -4.3125 1.515625 -4.3125 C 1.328125 -4.3125 0.984375 -4.125 0.328125 -3.65625 L 0.078125 -3.46875 L 0.140625 -3.296875 L 0.421875 -3.484375 C 0.671875 -3.640625 0.765625 -3.6875 0.84375 -3.6875 C 0.9375 -3.6875 1 -3.609375 1 -3.484375 C 1 -3.40625 0.984375 -3.234375 0.96875 -3.140625 L 0.453125 -0.078125 C 0.359375 0.46875 0.1875 1.28125 0.015625 2.09375 L -0.0625 2.421875 L 0 2.46875 C 0.1875 2.40625 0.359375 2.359375 0.65625 2.3125 Z M 1.28125 -1.484375 C 1.484375 -2.625 2.4375 -3.796875 3.171875 -3.796875 C 3.40625 -3.796875 3.515625 -3.59375 3.515625 -3.1875 C 3.515625 -2.46875 3.15625 -1.390625 2.6875 -0.71875 C 2.5 -0.453125 2.21875 -0.328125 1.859375 -0.328125 C 1.578125 -0.328125 1.359375 -0.390625 1.125 -0.53125 Z M 1.28125 -1.484375 "/>
</g>
<g id="glyph-4-0">
<path d="M 3.09375 2.234375 C 3.09375 2.203125 3.09375 2.1875 2.921875 2.03125 C 1.765625 0.859375 1.46875 -0.90625 1.46875 -2.328125 C 1.46875 -3.953125 1.8125 -5.578125 2.96875 -6.75 C 3.09375 -6.859375 3.09375 -6.875 3.09375 -6.90625 C 3.09375 -6.96875 3.046875 -7 3 -7 C 2.90625 -7 2.0625 -6.359375 1.515625 -5.171875 C 1.03125 -4.15625 0.921875 -3.109375 0.921875 -2.328125 C 0.921875 -1.609375 1.03125 -0.46875 1.546875 0.578125 C 2.09375 1.71875 2.90625 2.328125 3 2.328125 C 3.046875 2.328125 3.09375 2.296875 3.09375 2.234375 Z M 3.09375 2.234375 "/>
</g>
<g id="glyph-4-1">
<path d="M 2.703125 -2.328125 C 2.703125 -3.0625 2.59375 -4.1875 2.078125 -5.25 C 1.515625 -6.390625 0.71875 -7 0.625 -7 C 0.5625 -7 0.53125 -6.953125 0.53125 -6.90625 C 0.53125 -6.875 0.53125 -6.859375 0.703125 -6.6875 C 1.625 -5.765625 2.15625 -4.28125 2.15625 -2.328125 C 2.15625 -0.734375 1.8125 0.90625 0.65625 2.078125 C 0.53125 2.1875 0.53125 2.203125 0.53125 2.234375 C 0.53125 2.296875 0.5625 2.328125 0.625 2.328125 C 0.71875 2.328125 1.5625 1.703125 2.109375 0.515625 C 2.578125 -0.515625 2.703125 -1.546875 2.703125 -2.328125 Z M 2.703125 -2.328125 "/>
</g>
<g id="glyph-4-2">
<path d="M 6.40625 -3.046875 C 6.546875 -3.046875 6.71875 -3.046875 6.71875 -3.234375 C 6.71875 -3.421875 6.546875 -3.421875 6.421875 -3.421875 L 0.828125 -3.421875 C 0.703125 -3.421875 0.515625 -3.421875 0.515625 -3.234375 C 0.515625 -3.046875 0.703125 -3.046875 0.84375 -3.046875 Z M 6.421875 -1.234375 C 6.546875 -1.234375 6.71875 -1.234375 6.71875 -1.421875 C 6.71875 -1.609375 6.546875 -1.609375 6.40625 -1.609375 L 0.84375 -1.609375 C 0.703125 -1.609375 0.515625 -1.609375 0.515625 -1.421875 C 0.515625 -1.234375 0.703125 -1.234375 0.828125 -1.234375 Z M 6.421875 -1.234375 "/>
</g>
<g id="glyph-5-0">
<path d="M 2.359375 -6.171875 C 0.96875 -6.171875 0.265625 -5.0625 0.265625 -2.90625 C 0.265625 -1.859375 0.453125 -0.953125 0.765625 -0.515625 C 1.078125 -0.078125 1.578125 0.171875 2.125 0.171875 C 3.484375 0.171875 4.15625 -0.984375 4.15625 -3.28125 C 4.15625 -5.234375 3.578125 -6.171875 2.359375 -6.171875 Z M 2.1875 -5.859375 C 3.0625 -5.859375 3.40625 -4.984375 3.40625 -2.828125 C 3.40625 -0.921875 3.078125 -0.140625 2.25 -0.140625 C 1.375 -0.140625 1.015625 -1.03125 1.015625 -3.21875 C 1.015625 -5.109375 1.34375 -5.859375 2.1875 -5.859375 Z M 2.1875 -5.859375 "/>
</g>
<g id="glyph-5-1">
<path d="M 0.59375 -4.96875 L 0.6875 -4.96875 L 1.84375 -5.484375 C 1.859375 -5.5 1.859375 -5.5 1.875 -5.5 C 1.921875 -5.5 1.9375 -5.421875 1.9375 -5.203125 L 1.9375 -0.859375 C 1.9375 -0.390625 1.84375 -0.296875 1.359375 -0.265625 L 0.859375 -0.234375 L 0.859375 0.03125 C 2.234375 0 2.234375 0 2.34375 0 C 2.453125 0 2.65625 0 2.953125 0.015625 C 3.0625 0.015625 3.375 0.015625 3.75 0.03125 L 3.75 -0.234375 L 3.28125 -0.265625 C 2.78125 -0.296875 2.6875 -0.390625 2.6875 -0.859375 L 2.6875 -6.171875 L 2.5625 -6.21875 C 1.984375 -5.90625 1.359375 -5.640625 0.53125 -5.359375 Z M 0.59375 -4.96875 "/>
</g>
<g id="glyph-5-2">
<path d="M 0.203125 -5.921875 L 0.703125 -5.921875 C 0.875 -5.921875 0.9375 -5.8125 0.9375 -5.546875 L 0.9375 -0.90625 C 0.9375 -0.34375 0.90625 -0.28125 0.59375 -0.265625 L 0.1875 -0.234375 L 0.1875 0.03125 C 1.078125 0 1.078125 0 1.3125 0 C 1.53125 0 1.53125 0 2.421875 0.03125 L 2.421875 -0.234375 L 2.015625 -0.265625 C 1.703125 -0.28125 1.6875 -0.34375 1.6875 -0.90625 L 1.6875 -6.421875 L 1.609375 -6.5 C 1.203125 -6.34375 0.90625 -6.28125 0.203125 -6.171875 Z M 0.203125 -5.921875 "/>
</g>
<g id="glyph-5-3">
<path d="M 2.5 -4.203125 C 1.1875 -4.203125 0.28125 -3.28125 0.28125 -1.9375 C 0.28125 -0.6875 1.078125 0.171875 2.234375 0.171875 C 3.609375 0.171875 4.609375 -0.78125 4.609375 -2.125 C 4.609375 -3.328125 3.71875 -4.203125 2.5 -4.203125 Z M 2.34375 -3.90625 C 3.15625 -3.90625 3.765625 -3.015625 3.765625 -1.796875 C 3.765625 -0.765625 3.3125 -0.109375 2.59375 -0.109375 C 1.703125 -0.109375 1.125 -0.96875 1.125 -2.25 C 1.125 -3.328125 1.546875 -3.90625 2.34375 -3.90625 Z M 2.34375 -3.90625 "/>
</g>
<g id="glyph-5-4">
<path d="M 4.640625 -3.390625 L 4.875 -3.75 L 4.828125 -3.859375 L 3.5625 -3.828125 C 3.234375 -4.09375 2.90625 -4.203125 2.46875 -4.203125 C 2.078125 -4.203125 1.625 -4.078125 1.25 -3.859375 C 0.75 -3.578125 0.5 -3.140625 0.5 -2.59375 C 0.5 -1.921875 0.90625 -1.46875 1.5625 -1.390625 L 0.859375 -0.84375 C 0.765625 -0.71875 0.71875 -0.59375 0.71875 -0.46875 C 0.71875 -0.21875 0.890625 -0.078125 1.3125 0.046875 L 0.53125 0.46875 C 0.40625 0.546875 0.28125 0.875 0.28125 1.15625 C 0.28125 1.96875 1.078125 2.53125 2.21875 2.53125 C 3.578125 2.53125 4.640625 1.6875 4.640625 0.59375 C 4.640625 -0.046875 4.203125 -0.5 3.578125 -0.5 L 2.15625 -0.5 C 1.6875 -0.5 1.46875 -0.609375 1.46875 -0.84375 C 1.46875 -0.96875 1.546875 -1.0625 1.765625 -1.265625 C 1.828125 -1.3125 1.84375 -1.328125 1.875 -1.359375 C 1.96875 -1.359375 2.015625 -1.34375 2.09375 -1.34375 C 2.484375 -1.34375 2.953125 -1.515625 3.328125 -1.765625 C 3.71875 -2.0625 3.921875 -2.421875 3.921875 -2.90625 C 3.921875 -3.078125 3.890625 -3.203125 3.828125 -3.390625 Z M 2.15625 -3.890625 C 2.75 -3.890625 3.171875 -3.390625 3.171875 -2.625 C 3.171875 -2.046875 2.796875 -1.640625 2.25 -1.640625 C 1.640625 -1.640625 1.25 -2.109375 1.25 -2.796875 C 1.25 -3.484375 1.578125 -3.890625 2.15625 -3.890625 Z M 2.5625 0.125 C 3.578125 0.125 3.9375 0.328125 3.9375 0.90625 C 3.9375 1.6875 3.21875 2.25 2.28125 2.25 C 1.5 2.25 0.96875 1.796875 0.96875 1.140625 C 0.96875 0.734375 1.203125 0.359375 1.5625 0.21875 C 1.703125 0.140625 1.953125 0.125 2.5625 0.125 Z M 2.5625 0.125 "/>
</g>
<g id="glyph-5-5">
<path d="M 0.140625 -0.203125 L 0.140625 0.03125 C 1.8125 0 1.8125 0 2.140625 0 C 2.46875 0 2.46875 0 4.1875 0.03125 C 4.171875 -0.15625 4.171875 -0.25 4.171875 -0.375 C 4.171875 -0.5 4.171875 -0.578125 4.1875 -0.78125 C 3.15625 -0.734375 2.75 -0.71875 1.09375 -0.6875 L 2.71875 -2.421875 C 3.59375 -3.34375 3.859375 -3.828125 3.859375 -4.5 C 3.859375 -5.53125 3.15625 -6.171875 2.015625 -6.171875 C 1.375 -6.171875 0.9375 -5.984375 0.5 -5.546875 L 0.34375 -4.328125 L 0.609375 -4.328125 L 0.71875 -4.734375 C 0.875 -5.25 1.1875 -5.484375 1.796875 -5.484375 C 2.5625 -5.484375 3.046875 -5 3.046875 -4.234375 C 3.046875 -3.5625 2.671875 -2.90625 1.671875 -1.828125 Z M 0.140625 -0.203125 "/>
</g>
<g id="glyph-6-0">
<path d="M 0.46875 -3.875 L 0.53125 -3.875 L 1.4375 -4.265625 C 1.4375 -4.28125 1.453125 -4.28125 1.453125 -4.28125 C 1.5 -4.28125 1.515625 -4.21875 1.515625 -4.046875 L 1.515625 -0.671875 C 1.515625 -0.3125 1.4375 -0.234375 1.0625 -0.203125 L 0.671875 -0.1875 L 0.671875 0.015625 C 1.734375 0 1.734375 0 1.8125 0 C 1.90625 0 2.0625 0 2.296875 0 C 2.390625 0.015625 2.625 0.015625 2.90625 0.015625 L 2.90625 -0.1875 L 2.546875 -0.203125 C 2.171875 -0.234375 2.09375 -0.3125 2.09375 -0.671875 L 2.09375 -4.796875 L 2 -4.84375 C 1.546875 -4.59375 1.046875 -4.390625 0.421875 -4.171875 Z M 0.46875 -3.875 "/>
</g>
<g id="glyph-6-1">
<path d="M 0.109375 -0.15625 L 0.109375 0.015625 C 1.421875 0 1.421875 0 1.671875 0 C 1.921875 0 1.921875 0 3.265625 0.015625 C 3.25 -0.125 3.25 -0.1875 3.25 -0.296875 C 3.25 -0.390625 3.25 -0.453125 3.265625 -0.609375 C 2.453125 -0.578125 2.140625 -0.5625 0.84375 -0.53125 L 2.125 -1.875 C 2.796875 -2.59375 3 -2.984375 3 -3.5 C 3 -4.3125 2.453125 -4.796875 1.578125 -4.796875 C 1.078125 -4.796875 0.734375 -4.65625 0.390625 -4.3125 L 0.265625 -3.359375 L 0.46875 -3.359375 L 0.5625 -3.6875 C 0.671875 -4.09375 0.921875 -4.265625 1.390625 -4.265625 C 2 -4.265625 2.375 -3.890625 2.375 -3.296875 C 2.375 -2.78125 2.078125 -2.265625 1.296875 -1.421875 Z M 0.109375 -0.15625 "/>
</g>
<g id="glyph-7-0">
<path d="M 2.375 -4.859375 C 2.375 -5.65625 2.375 -5.671875 2.796875 -5.71875 L 3.140625 -5.734375 L 3.140625 -6.09375 C 2.046875 -6.0625 2.046875 -6.0625 1.734375 -6.0625 C 1.4375 -6.0625 1.421875 -6.0625 0.34375 -6.09375 L 0.34375 -5.734375 L 0.6875 -5.71875 C 1.09375 -5.671875 1.109375 -5.65625 1.109375 -4.859375 L 1.109375 -0.84375 C 1.109375 -0.546875 1.0625 -0.40625 0.9375 -0.34375 L 0.640625 -0.171875 L 0.640625 0.03125 C 1.53125 0 1.53125 0 1.734375 0 L 2.046875 0 C 2.953125 0.03125 3.296875 0.03125 3.765625 0.03125 C 4.21875 0.03125 4.5 0.03125 5.015625 0 L 5.0625 -0.078125 L 5.171875 -1.5625 L 4.8125 -1.5625 L 4.609375 -0.640625 C 4.59375 -0.5625 4.09375 -0.5 3.546875 -0.5 C 3.171875 -0.5 2.84375 -0.5 2.375 -0.515625 Z M 2.375 -4.859375 "/>
</g>
<g id="glyph-7-1">
<path d="M 2.5625 -4.21875 C 1.140625 -4.21875 0.359375 -3.421875 0.359375 -2 C 0.359375 -0.625 1.09375 0.15625 2.390625 0.15625 C 3.828125 0.15625 4.625 -0.65625 4.625 -2.109375 C 4.625 -3.46875 3.890625 -4.21875 2.5625 -4.21875 Z M 2.46875 -3.78125 C 3.109375 -3.78125 3.40625 -3.15625 3.40625 -1.828125 C 3.40625 -0.75 3.15625 -0.28125 2.546875 -0.28125 C 1.90625 -0.28125 1.578125 -0.9375 1.578125 -2.21875 C 1.578125 -3.296875 1.84375 -3.78125 2.46875 -3.78125 Z M 2.46875 -3.78125 "/>
</g>
<g id="glyph-7-2">
<path d="M 1.734375 0.03125 L 2.4375 0.03125 C 2.890625 -1.15625 2.984375 -1.375 3.671875 -2.71875 L 4.859375 0.03125 L 5.578125 0.03125 C 5.65625 -0.234375 5.6875 -0.359375 5.703125 -0.390625 C 5.796875 -0.6875 5.859375 -0.890625 5.890625 -1 L 6.71875 -3.328125 C 6.828125 -3.625 6.90625 -3.75 7.03125 -3.75 L 7.34375 -3.765625 L 7.34375 -4.109375 C 6.59375 -4.078125 6.59375 -4.078125 6.4375 -4.078125 C 6.28125 -4.078125 6.28125 -4.078125 5.53125 -4.109375 L 5.53125 -3.765625 L 5.90625 -3.75 C 6.0625 -3.75 6.171875 -3.671875 6.171875 -3.5625 C 6.171875 -3.53125 6.15625 -3.421875 6.140625 -3.390625 L 5.8125 -2.375 C 5.71875 -2.03125 5.625 -1.796875 5.46875 -1.375 L 4.234375 -4.21875 L 3.78125 -4.21875 L 3.015625 -2.46875 C 2.921875 -2.296875 2.84375 -2.109375 2.75 -1.90625 C 2.71875 -1.828125 2.6875 -1.765625 2.65625 -1.6875 C 2.59375 -1.578125 2.546875 -1.453125 2.5 -1.359375 L 1.96875 -3.390625 C 1.953125 -3.421875 1.953125 -3.515625 1.953125 -3.546875 C 1.953125 -3.671875 2.015625 -3.75 2.125 -3.75 L 2.546875 -3.765625 L 2.546875 -4.109375 L 1.328125 -4.078125 C 1.203125 -4.078125 1.0625 -4.078125 0.109375 -4.109375 L 0.109375 -3.765625 L 0.40625 -3.75 C 0.625 -3.734375 0.703125 -3.65625 0.78125 -3.40625 Z M 1.734375 0.03125 "/>
</g>
<g id="glyph-7-3">
<path d="M 4.125 -2.640625 C 4.125 -3.59375 3.453125 -4.21875 2.4375 -4.21875 C 2.125 -4.21875 1.890625 -4.15625 1.640625 -4.015625 L 1.234375 -3.765625 C 0.640625 -3.40625 0.375 -2.875 0.375 -2.015625 C 0.375 -0.59375 1.09375 0.15625 2.421875 0.15625 C 2.9375 0.15625 3.265625 0.0625 3.84375 -0.234375 L 4.03125 -0.65625 L 3.9375 -0.796875 C 3.515625 -0.5625 3.234375 -0.484375 2.890625 -0.484375 C 2.421875 -0.484375 1.984375 -0.734375 1.75 -1.125 C 1.609375 -1.375 1.5625 -1.578125 1.546875 -2 L 2.71875 -2 C 3.21875 -2 3.625 -2.046875 4.125 -2.171875 Z M 2.234375 -2.4375 L 2.203125 -2.4375 C 2.15625 -2.4375 1.90625 -2.453125 1.765625 -2.46875 L 1.484375 -2.46875 C 1.515625 -3.359375 1.734375 -3.71875 2.25 -3.71875 C 2.75 -3.71875 2.96875 -3.359375 2.984375 -2.46875 Z M 2.234375 -2.4375 "/>
</g>
<g id="glyph-7-4">
<path d="M 0.21875 -3.515625 L 0.625 -3.484375 C 0.828125 -3.46875 0.84375 -3.390625 0.84375 -2.859375 L 0.84375 -0.890625 C 0.84375 -0.40625 0.8125 -0.34375 0.53125 -0.328125 L 0.21875 -0.296875 L 0.21875 0.03125 L 1.375 0 C 1.546875 0 1.984375 0.015625 2.578125 0.03125 L 2.578125 -0.296875 L 2.265625 -0.328125 C 1.984375 -0.34375 1.9375 -0.40625 1.9375 -0.890625 L 1.9375 -2.84375 C 1.9375 -3.15625 2.3125 -3.453125 2.703125 -3.453125 C 3.296875 -3.453125 3.546875 -3.140625 3.546875 -2.421875 L 3.546875 0.03125 C 4.0625 0.015625 4.203125 0 4.34375 0 C 4.46875 0 4.46875 0 5.25 0.03125 L 5.25 -0.296875 L 4.953125 -0.328125 C 4.6875 -0.34375 4.640625 -0.40625 4.640625 -0.890625 L 4.640625 -2.5625 C 4.640625 -3.25 4.5625 -3.59375 4.328125 -3.84375 C 4.09375 -4.078125 3.71875 -4.21875 3.28125 -4.21875 C 3.015625 -4.21875 2.796875 -4.15625 2.65625 -4.046875 L 1.9375 -3.484375 L 1.9375 -4.15625 L 1.890625 -4.21875 C 0.953125 -3.90625 0.703125 -3.859375 0.21875 -3.828125 Z M 0.21875 -3.515625 "/>
</g>
<g id="glyph-7-5">
<path d="M 2.90625 -0.53125 L 2.828125 -0.703125 C 2.65625 -0.625 2.5625 -0.59375 2.421875 -0.59375 C 2 -0.59375 1.859375 -0.734375 1.859375 -1.171875 L 1.859375 -3.296875 L 2.8125 -3.296875 L 2.890625 -3.890625 L 1.859375 -3.828125 L 1.859375 -4.34375 C 1.859375 -4.828125 1.890625 -5.125 1.96875 -5.5625 L 1.84375 -5.65625 C 1.484375 -5.484375 1.203125 -5.375 0.75 -5.203125 C 0.78125 -4.75 0.78125 -4.578125 0.78125 -4.390625 L 0.78125 -3.84375 L 0.203125 -3.46875 L 0.203125 -3.265625 L 0.765625 -3.296875 L 0.765625 -0.984375 C 0.765625 -0.1875 1.09375 0.15625 1.875 0.15625 C 2.15625 0.15625 2.375 0.09375 2.46875 -0.015625 Z M 2.90625 -0.53125 "/>
</g>
<g id="glyph-7-6">
<path d="M 1.90625 -4.21875 L 1.28125 -4.015625 C 1 -3.9375 0.828125 -3.90625 0.265625 -3.828125 L 0.265625 -3.515625 L 0.671875 -3.484375 C 0.875 -3.46875 0.90625 -3.390625 0.90625 -2.859375 L 0.90625 -0.890625 C 0.90625 -0.40625 0.859375 -0.34375 0.578125 -0.328125 L 0.265625 -0.296875 L 0.265625 0.03125 L 1.421875 0 C 1.546875 0 1.5625 0 2.78125 0.03125 L 2.78125 -0.296875 L 2.421875 -0.328125 C 2.046875 -0.34375 2 -0.390625 2 -0.890625 L 2 -2.671875 C 2 -2.953125 2.359375 -3.234375 2.71875 -3.234375 C 2.9375 -3.234375 3.09375 -3.140625 3.21875 -2.921875 L 3.4375 -3.015625 L 3.484375 -4.15625 C 3.390625 -4.203125 3.28125 -4.21875 3.15625 -4.21875 C 2.90625 -4.21875 2.734375 -4.109375 2.390625 -3.75 L 2 -3.3125 L 2 -4.15625 Z M 1.90625 -4.21875 "/>
</g>
<g id="glyph-7-7">
<path d="M 1.890625 -4.21875 L 1.265625 -4.015625 C 0.96875 -3.9375 0.8125 -3.90625 0.359375 -3.84375 L 0.265625 -3.828125 L 0.265625 -3.515625 L 0.65625 -3.484375 C 0.875 -3.46875 0.890625 -3.390625 0.890625 -2.859375 L 0.890625 1.390625 C 0.890625 1.875 0.84375 1.9375 0.578125 1.953125 L 0.265625 1.984375 L 0.265625 2.3125 L 1.421875 2.28125 C 1.53125 2.28125 1.546875 2.28125 2.71875 2.3125 L 2.71875 1.984375 L 2.3125 1.953125 C 2.03125 1.953125 1.984375 1.875 1.984375 1.390625 L 1.984375 0 C 2.421875 0.125 2.5625 0.15625 2.78125 0.15625 C 3.09375 0.15625 3.40625 -0.015625 4.015625 -0.5 C 4.0625 -0.53125 4.125 -0.578125 4.15625 -0.609375 C 4.75 -1.0625 5.078125 -1.75 5.078125 -2.5625 C 5.078125 -3.515625 4.390625 -4.21875 3.453125 -4.21875 C 3.109375 -4.21875 2.84375 -4.125 2.53125 -3.875 L 1.984375 -3.421875 L 1.984375 -4.15625 Z M 1.984375 -2.96875 C 2.1875 -3.265625 2.484375 -3.40625 2.84375 -3.40625 C 3.53125 -3.40625 3.953125 -2.875 3.953125 -1.984375 C 3.953125 -1.046875 3.546875 -0.453125 2.890625 -0.453125 C 2.515625 -0.453125 2.234375 -0.609375 1.984375 -0.953125 Z M 1.984375 -2.96875 "/>
</g>
<g id="glyph-7-8">
<path d="M 2.46875 -3.765625 L 2.46875 -4.109375 L 1.28125 -4.078125 C 1.15625 -4.078125 1.015625 -4.078125 0.09375 -4.109375 L 0.09375 -3.765625 L 0.40625 -3.75 C 0.53125 -3.75 0.640625 -3.59375 0.78125 -3.265625 L 2.1875 0.359375 L 1.984375 0.859375 C 1.78125 1.375 1.46875 1.671875 1.15625 1.671875 C 0.9375 1.671875 0.75 1.578125 0.53125 1.34375 L 0.4375 1.375 L 0.28125 2.234375 C 0.515625 2.34375 0.71875 2.375 0.9375 2.375 C 1.5625 2.375 2.046875 1.890625 2.5 0.84375 L 4.28125 -3.296875 C 4.390625 -3.546875 4.53125 -3.703125 4.65625 -3.71875 L 4.890625 -3.765625 L 4.890625 -4.109375 L 4.0625 -4.078125 C 4.03125 -4.078125 3.75 -4.09375 3.21875 -4.109375 L 3.21875 -3.765625 L 3.515625 -3.75 C 3.65625 -3.75 3.765625 -3.671875 3.765625 -3.578125 C 3.765625 -3.515625 3.75 -3.421875 3.71875 -3.375 L 2.8125 -1.125 L 2.0625 -3.078125 C 2.0625 -3.078125 2.046875 -3.140625 2.015625 -3.203125 C 1.9375 -3.375 1.921875 -3.453125 1.921875 -3.546875 C 1.921875 -3.65625 2.015625 -3.75 2.15625 -3.75 Z M 2.46875 -3.765625 "/>
</g>
<g id="glyph-7-9">
<path d="M 6.640625 -4.9375 L 6.640625 -1.203125 C 6.640625 -0.40625 6.640625 -0.390625 6.21875 -0.359375 L 5.875 -0.328125 L 5.875 0.03125 C 6.96875 0 6.96875 0 7.265625 0 C 7.578125 0 7.578125 0 8.671875 0.03125 L 8.671875 -0.328125 L 8.328125 -0.359375 C 7.921875 -0.390625 7.90625 -0.40625 7.90625 -1.203125 L 7.90625 -4.859375 C 7.90625 -5.65625 7.9375 -5.703125 8.328125 -5.734375 L 8.671875 -5.765625 L 8.671875 -6.09375 C 7.71875 -6.0625 7.71875 -6.0625 7.625 -6.0625 C 7.53125 -6.0625 7.53125 -6.0625 6.59375 -6.09375 C 6.34375 -5.484375 6.265625 -5.296875 6.15625 -5.078125 L 4.515625 -1.703125 L 3.109375 -4.65625 C 3 -4.875 2.8125 -5.25 2.4375 -6.09375 L 1.359375 -6.0625 C 1.21875 -6.0625 1.015625 -6.078125 0.75 -6.09375 C 0.609375 -6.09375 0.59375 -6.09375 0.28125 -6.09375 L 0.28125 -5.765625 L 0.625 -5.734375 C 1.015625 -5.703125 1.046875 -5.65625 1.046875 -4.859375 L 1.046875 -1.203125 C 1.046875 -0.421875 1.015625 -0.359375 0.625 -0.328125 L 0.28125 -0.296875 L 0.28125 0.03125 C 1.140625 0 1.140625 0 1.3125 0 C 1.5 0 1.90625 0.015625 2.34375 0.03125 L 2.34375 -0.296875 L 2 -0.328125 C 1.609375 -0.359375 1.578125 -0.40625 1.578125 -1.203125 L 1.578125 -4.9375 L 3.640625 -0.65625 C 3.703125 -0.515625 3.796875 -0.296875 3.953125 0.09375 L 4.265625 0.09375 C 4.4375 -0.328125 4.46875 -0.40625 4.796875 -1.09375 Z M 6.640625 -4.9375 "/>
</g>
<g id="glyph-7-10">
<path d="M 2.671875 -0.59375 L 2.625 -0.046875 L 2.671875 0.03125 C 3.234375 0.015625 3.390625 0 3.484375 0 C 3.59375 0 3.75 0.015625 4.28125 0.03125 L 4.28125 -0.296875 L 4.015625 -0.328125 C 3.8125 -0.359375 3.765625 -0.453125 3.765625 -0.875 L 3.765625 -1.0625 C 3.75 -1.359375 3.75 -1.609375 3.75 -1.8125 C 3.75 -2.0625 3.75 -2.34375 3.765625 -2.6875 C 3.765625 -2.796875 3.765625 -2.890625 3.765625 -2.953125 C 3.765625 -3.75 3.234375 -4.21875 2.328125 -4.21875 C 1.953125 -4.21875 1.578125 -4.125 1.25 -3.90625 L 0.78125 -3.625 L 0.78125 -3.015625 L 1.046875 -2.953125 L 1.25 -3.390625 C 1.265625 -3.453125 1.515625 -3.515625 1.765625 -3.515625 C 2.359375 -3.515625 2.65625 -3.203125 2.671875 -2.46875 L 1.890625 -2.296875 C 0.765625 -2.0625 0.359375 -1.71875 0.359375 -0.953125 C 0.359375 -0.234375 0.71875 0.15625 1.40625 0.15625 C 1.609375 0.15625 1.75 0.109375 1.84375 0.046875 Z M 2.671875 -1.03125 C 2.5 -0.796875 2.171875 -0.625 1.90625 -0.625 C 1.625 -0.625 1.453125 -0.84375 1.453125 -1.1875 C 1.453125 -1.625 1.640625 -1.8125 2.28125 -1.984375 L 2.671875 -2.09375 Z M 2.671875 -1.03125 "/>
</g>
<g id="glyph-7-11">
<path d="M 1.796875 -1.875 L 0.8125 -0.625 C 0.625 -0.40625 0.46875 -0.328125 0.1875 -0.296875 L 0.1875 0 L 1 0 C 1.265625 -0.40625 1.359375 -0.546875 1.46875 -0.703125 L 2.046875 -1.484375 L 2.9375 0.03125 L 3.640625 0 C 4 0.015625 4.0625 0.015625 4.328125 0.03125 L 4.328125 -0.296875 C 4.046875 -0.328125 3.875 -0.5 3.546875 -1.015625 L 2.75 -2.375 L 3.625 -3.390625 C 3.90625 -3.71875 4 -3.765625 4.328125 -3.78125 L 4.328125 -4.109375 L 3.46875 -4.109375 L 2.5 -2.765625 L 2.046875 -3.53125 C 1.828125 -3.875 1.671875 -4.078125 1.484375 -4.21875 C 1.171875 -4.140625 0.515625 -4 0.171875 -3.9375 L 0.25 -3.609375 C 0.296875 -3.609375 0.359375 -3.609375 0.390625 -3.609375 C 0.6875 -3.609375 0.84375 -3.484375 1.078125 -3.09375 Z M 1.796875 -1.875 "/>
</g>
<g id="glyph-8-0">
<path d="M 6.734375 -4.21875 C 6.734375 -4.40625 6.671875 -4.5 6.609375 -4.5 C 6.5625 -4.5 6.484375 -4.453125 6.46875 -4.25 C 6.4375 -3.59375 5.78125 -3.21875 5.171875 -3.21875 C 4.640625 -3.21875 4.171875 -3.5 3.6875 -3.828125 C 3.1875 -4.171875 2.671875 -4.5 2.078125 -4.5 C 1.203125 -4.5 0.515625 -3.84375 0.515625 -2.984375 C 0.515625 -2.78125 0.59375 -2.703125 0.640625 -2.703125 C 0.734375 -2.703125 0.78125 -2.875 0.78125 -2.921875 C 0.828125 -3.703125 1.578125 -3.984375 2.078125 -3.984375 C 2.609375 -3.984375 3.078125 -3.6875 3.5625 -3.375 C 4.0625 -3.03125 4.578125 -2.703125 5.171875 -2.703125 C 6.046875 -2.703125 6.734375 -3.359375 6.734375 -4.21875 Z M 6.734375 -2.03125 C 6.734375 -2.296875 6.625 -2.328125 6.609375 -2.328125 C 6.5625 -2.328125 6.484375 -2.28125 6.46875 -2.078125 C 6.4375 -1.421875 5.78125 -1.046875 5.171875 -1.046875 C 4.640625 -1.046875 4.171875 -1.328125 3.6875 -1.65625 C 3.1875 -2 2.671875 -2.328125 2.078125 -2.328125 C 1.203125 -2.328125 0.515625 -1.671875 0.515625 -0.8125 C 0.515625 -0.609375 0.59375 -0.53125 0.640625 -0.53125 C 0.734375 -0.53125 0.78125 -0.703125 0.78125 -0.75 C 0.828125 -1.53125 1.578125 -1.8125 2.078125 -1.8125 C 2.609375 -1.8125 3.078125 -1.515625 3.5625 -1.1875 C 4.0625 -0.859375 4.578125 -0.515625 5.171875 -0.515625 C 6.0625 -0.515625 6.734375 -1.21875 6.734375 -2.03125 Z M 6.734375 -2.03125 "/>
</g>
<g id="glyph-9-0">
<path d="M 2.0625 -0.125 L 2.0625 0.015625 C 2.3125 0 2.53125 0 2.734375 0 C 2.9375 0 3.15625 0 3.40625 0.015625 L 3.40625 -0.125 L 3.28125 -0.140625 C 3.078125 -0.15625 3 -0.1875 2.9375 -0.296875 L 2.09375 -1.828125 L 3.1875 -3.078125 C 3.328125 -3.25 3.375 -3.28125 3.515625 -3.296875 L 3.640625 -3.296875 L 3.640625 -3.4375 L 3.078125 -3.421875 C 3.015625 -3.421875 2.953125 -3.421875 2.515625 -3.4375 L 2.515625 -3.296875 L 2.671875 -3.296875 C 2.828125 -3.28125 2.890625 -3.25 2.890625 -3.1875 C 2.890625 -3.140625 2.875 -3.09375 2.78125 -2.984375 L 1.984375 -2.015625 L 1.46875 -3 C 1.421875 -3.09375 1.390625 -3.15625 1.390625 -3.1875 C 1.390625 -3.25 1.453125 -3.28125 1.609375 -3.296875 L 1.796875 -3.296875 L 1.796875 -3.4375 L 1.5625 -3.4375 C 1.359375 -3.421875 1.21875 -3.421875 1.140625 -3.421875 C 1.046875 -3.421875 0.90625 -3.421875 0.703125 -3.4375 L 0.46875 -3.4375 L 0.46875 -3.296875 L 0.59375 -3.296875 C 0.84375 -3.265625 0.90625 -3.234375 1 -3.046875 L 1.734375 -1.703125 L 0.546875 -0.296875 C 0.46875 -0.21875 0.359375 -0.15625 0.234375 -0.140625 L 0.09375 -0.125 L 0.09375 0.015625 C 0.34375 0 0.546875 0 0.71875 0 C 0.90625 0 1.09375 0 1.3125 0.015625 L 1.3125 -0.125 L 1.15625 -0.140625 C 0.96875 -0.15625 0.875 -0.1875 0.875 -0.25 C 0.875 -0.28125 0.90625 -0.328125 0.921875 -0.375 L 1.828125 -1.515625 L 2.421875 -0.390625 C 2.46875 -0.3125 2.5 -0.25 2.5 -0.203125 C 2.5 -0.15625 2.453125 -0.140625 2.328125 -0.140625 L 2.25 -0.140625 Z M 2.0625 -0.125 "/>
</g>
<g id="glyph-10-0">
<path d="M 3.5625 -1.703125 C 3.640625 -1.703125 3.734375 -1.703125 3.734375 -1.796875 C 3.734375 -1.90625 3.640625 -1.90625 3.5625 -1.90625 L 0.46875 -1.90625 C 0.390625 -1.90625 0.296875 -1.90625 0.296875 -1.796875 C 0.296875 -1.703125 0.390625 -1.703125 0.46875 -1.703125 Z M 3.5625 -0.6875 C 3.640625 -0.6875 3.734375 -0.6875 3.734375 -0.796875 C 3.734375 -0.890625 3.640625 -0.890625 3.5625 -0.890625 L 0.46875 -0.890625 C 0.390625 -0.890625 0.296875 -0.890625 0.296875 -0.796875 C 0.296875 -0.6875 0.390625 -0.6875 0.46875 -0.6875 Z M 3.5625 -0.6875 "/>
</g>
<g id="glyph-11-0">
<path d="M 1.3125 -3.421875 C 0.53125 -3.421875 0.140625 -2.8125 0.140625 -1.609375 C 0.140625 -1.03125 0.25 -0.53125 0.421875 -0.28125 C 0.59375 -0.046875 0.875 0.09375 1.1875 0.09375 C 1.9375 0.09375 2.3125 -0.546875 2.3125 -1.8125 C 2.3125 -2.90625 1.984375 -3.421875 1.3125 -3.421875 Z M 1.21875 -3.25 C 1.703125 -3.25 1.890625 -2.765625 1.890625 -1.5625 C 1.890625 -0.515625 1.703125 -0.078125 1.25 -0.078125 C 0.765625 -0.078125 0.5625 -0.578125 0.5625 -1.78125 C 0.5625 -2.84375 0.75 -3.25 1.21875 -3.25 Z M 1.21875 -3.25 "/>
</g>
<g id="glyph-11-1">
<path d="M 0.328125 -2.75 L 0.375 -2.75 L 1.03125 -3.046875 C 1.0625 -3.046875 1.078125 -3 1.078125 -2.890625 L 1.078125 -0.484375 C 1.078125 -0.21875 1.03125 -0.15625 0.75 -0.15625 L 0.484375 -0.140625 L 0.484375 0.015625 C 1.234375 0 1.234375 0 1.296875 0 C 1.359375 0 1.46875 0 1.640625 0 C 1.703125 0.015625 1.875 0.015625 2.078125 0.015625 L 2.078125 -0.140625 L 1.8125 -0.15625 C 1.546875 -0.15625 1.5 -0.21875 1.5 -0.484375 L 1.5 -3.421875 L 1.421875 -3.453125 C 1.109375 -3.28125 0.75 -3.125 0.296875 -2.96875 Z M 0.328125 -2.75 "/>
</g>
<g id="glyph-12-0">
<path d="M 4.421875 -3.015625 L 0.40625 -3.015625 L 0.40625 -2.5625 L 4.421875 -2.5625 Z M 4.421875 -1.453125 L 0.40625 -1.453125 L 0.40625 -1 L 4.421875 -1 Z M 4.421875 -1.453125 "/>
</g>
<g id="glyph-12-1">
<path d="M 2.65625 -0.765625 C 2.59375 -0.578125 2.5625 -0.359375 2.5625 -0.25 C 2.5625 -0.046875 2.65625 0.078125 2.8125 0.078125 C 3.015625 0.078125 3.296875 -0.09375 4.078125 -0.671875 L 4 -0.828125 L 3.796875 -0.6875 C 3.609375 -0.5625 3.390625 -0.46875 3.3125 -0.46875 C 3.25 -0.46875 3.203125 -0.53125 3.203125 -0.609375 C 3.203125 -0.671875 3.21875 -0.75 3.25 -0.875 L 3.25 -0.921875 C 3.4375 -1.796875 3.6875 -2.859375 3.921875 -3.765625 L 3.859375 -3.84375 L 3.328125 -3.703125 L 3.25 -3.296875 C 3.125 -2.671875 2.921875 -2.140625 2.671875 -1.765625 C 2.203125 -1.03125 1.578125 -0.46875 1.265625 -0.46875 C 1.203125 -0.46875 1.15625 -0.546875 1.15625 -0.671875 C 1.15625 -0.78125 1.171875 -0.890625 1.21875 -1.09375 L 1.671875 -3.25 C 1.703125 -3.375 1.71875 -3.484375 1.71875 -3.59375 C 1.71875 -3.75 1.640625 -3.84375 1.53125 -3.84375 C 1.375 -3.84375 1.0625 -3.671875 0.484375 -3.25 L 0.25 -3.09375 L 0.3125 -2.9375 L 0.5625 -3.09375 C 0.78125 -3.25 0.875 -3.28125 0.953125 -3.28125 C 1.015625 -3.28125 1.078125 -3.21875 1.078125 -3.125 C 1.078125 -3.09375 1.078125 -3.015625 1.0625 -2.984375 L 0.5625 -0.609375 C 0.546875 -0.546875 0.53125 -0.34375 0.53125 -0.234375 C 0.53125 -0.0625 0.65625 0.09375 0.8125 0.09375 C 1.3125 0.09375 2.28125 -0.8125 2.953125 -1.90625 Z M 2.65625 -0.765625 "/>
</g>
<g id="glyph-12-2">
<path d="M 0.1875 -3.09375 L 0.25 -2.9375 L 0.5 -3.09375 C 0.796875 -3.28125 0.828125 -3.296875 0.875 -3.296875 C 0.96875 -3.296875 1.015625 -3.21875 1.015625 -3.09375 C 1.015625 -2.6875 0.6875 -1.15625 0.359375 -0.015625 L 0.421875 0.078125 C 0.625 0.015625 0.8125 -0.03125 0.984375 -0.0625 C 1.125 -1.0625 1.296875 -1.578125 1.671875 -2.140625 C 2.09375 -2.8125 2.6875 -3.296875 3.046875 -3.296875 C 3.140625 -3.296875 3.1875 -3.234375 3.1875 -3.109375 C 3.1875 -2.96875 3.15625 -2.796875 3.09375 -2.546875 L 2.6875 -0.859375 C 2.609375 -0.5625 2.578125 -0.375 2.578125 -0.25 C 2.578125 -0.046875 2.671875 0.078125 2.828125 0.078125 C 3.03125 0.078125 3.3125 -0.09375 4.09375 -0.671875 L 4.015625 -0.828125 L 3.8125 -0.6875 C 3.578125 -0.53125 3.40625 -0.453125 3.328125 -0.453125 C 3.265625 -0.453125 3.21875 -0.515625 3.21875 -0.609375 C 3.21875 -0.640625 3.234375 -0.734375 3.234375 -0.765625 L 3.765625 -2.96875 C 3.8125 -3.203125 3.84375 -3.421875 3.84375 -3.546875 C 3.84375 -3.734375 3.765625 -3.84375 3.609375 -3.84375 C 3.265625 -3.84375 2.71875 -3.53125 2.25 -3.09375 C 1.9375 -2.828125 1.71875 -2.546875 1.3125 -1.96875 L 1.609375 -3.25 C 1.640625 -3.390625 1.65625 -3.484375 1.65625 -3.578125 C 1.65625 -3.75 1.59375 -3.84375 1.46875 -3.84375 C 1.3125 -3.84375 1 -3.671875 0.421875 -3.25 Z M 0.1875 -3.09375 "/>
</g>
<g id="glyph-12-3">
<path d="M 0.265625 -3.09375 L 0.328125 -2.9375 L 0.578125 -3.09375 C 0.875 -3.28125 0.90625 -3.296875 0.953125 -3.296875 C 1.03125 -3.296875 1.09375 -3.21875 1.09375 -3.109375 C 1.09375 -3.0625 1.0625 -2.875 1.03125 -2.765625 L 0.515625 -0.859375 C 0.453125 -0.609375 0.40625 -0.390625 0.40625 -0.234375 C 0.40625 -0.046875 0.5 0.078125 0.640625 0.078125 C 0.859375 0.078125 1.140625 -0.09375 1.921875 -0.671875 L 1.84375 -0.828125 L 1.640625 -0.6875 C 1.40625 -0.53125 1.21875 -0.453125 1.140625 -0.453125 C 1.09375 -0.453125 1.046875 -0.53125 1.046875 -0.609375 C 1.046875 -0.6875 1.0625 -0.75 1.09375 -0.921875 L 1.71875 -3.34375 C 1.75 -3.484375 1.765625 -3.5625 1.765625 -3.640625 C 1.765625 -3.765625 1.6875 -3.84375 1.5625 -3.84375 C 1.390625 -3.84375 1.09375 -3.671875 0.5 -3.25 Z M 1.8125 -5.671875 C 1.578125 -5.671875 1.359375 -5.40625 1.359375 -5.140625 C 1.359375 -4.9375 1.46875 -4.8125 1.671875 -4.8125 C 1.90625 -4.8125 2.109375 -5.046875 2.109375 -5.34375 C 2.109375 -5.53125 1.984375 -5.671875 1.8125 -5.671875 Z M 1.8125 -5.671875 "/>
</g>
<g id="glyph-12-4">
<path d="M 2.28125 -3.046875 C 2.3125 -3.203125 2.359375 -3.390625 2.421875 -3.5 L 2.375 -3.546875 L 2.328125 -3.53125 C 2.140625 -3.484375 2.046875 -3.484375 1.65625 -3.484375 L 1.53125 -3.484375 L 1.703125 -4.375 C 1.828125 -5.0625 2.046875 -5.359375 2.421875 -5.359375 C 2.65625 -5.359375 2.875 -5.25 2.984375 -5.046875 L 3.0625 -5.078125 C 3.109375 -5.21875 3.1875 -5.453125 3.25 -5.625 L 3.296875 -5.734375 C 3.15625 -5.796875 2.921875 -5.84375 2.734375 -5.84375 C 2.640625 -5.84375 2.515625 -5.8125 2.453125 -5.78125 C 2.265625 -5.703125 1.609375 -5.21875 1.421875 -5.015625 C 1.25 -4.84375 1.15625 -4.609375 1.0625 -4.15625 L 0.953125 -3.515625 C 0.625 -3.359375 0.46875 -3.296875 0.265625 -3.234375 L 0.21875 -3.046875 L 0.875 -3.046875 L 0.796875 -2.609375 C 0.5625 -1.046875 0.265625 0.4375 0.09375 0.984375 C -0.0625 1.453125 -0.296875 1.703125 -0.578125 1.703125 C -0.765625 1.703125 -0.859375 1.640625 -1 1.46875 L -1.109375 1.5 C -1.140625 1.6875 -1.25 2.0625 -1.296875 2.140625 C -1.21875 2.171875 -1.09375 2.203125 -1.015625 2.203125 C -0.6875 2.203125 -0.25 1.953125 0.0625 1.578125 C 0.546875 1 0.71875 0.453125 1.296875 -2.34375 C 1.328125 -2.453125 1.390625 -2.75 1.453125 -3.046875 Z M 2.28125 -3.046875 "/>
</g>
<g id="glyph-12-5">
<path d="M 2.21875 -3.84375 C 1.875 -3.84375 1.5 -3.703125 1.140625 -3.453125 C 0.5 -2.984375 0.140625 -2.1875 0.140625 -1.21875 C 0.140625 -0.359375 0.5 0.09375 1.15625 0.09375 C 1.59375 0.09375 2.078125 -0.125 2.4375 -0.453125 C 2.921875 -0.921875 3.28125 -1.828125 3.28125 -2.640625 C 3.28125 -3.390625 2.875 -3.84375 2.21875 -3.84375 Z M 1.921875 -3.53125 C 2.40625 -3.53125 2.671875 -3.171875 2.671875 -2.515625 C 2.671875 -1.75 2.421875 -0.90625 2.078125 -0.484375 C 1.921875 -0.3125 1.71875 -0.21875 1.46875 -0.21875 C 1.015625 -0.21875 0.734375 -0.578125 0.734375 -1.203125 C 0.734375 -2.109375 1.046875 -3.078125 1.4375 -3.40625 C 1.546875 -3.484375 1.734375 -3.53125 1.921875 -3.53125 Z M 1.921875 -3.53125 "/>
</g>
<g id="glyph-12-6">
<path d="M 2.9375 -2.90625 C 2.953125 -3.21875 3 -3.46875 3.0625 -3.796875 C 2.96875 -3.828125 2.9375 -3.84375 2.90625 -3.84375 C 2.65625 -3.84375 2.40625 -3.65625 2.125 -3.25 L 1.90625 -2.9375 C 1.59375 -2.484375 1.5 -2.3125 1.375 -2.046875 L 1.4375 -2.359375 C 1.46875 -2.546875 1.53125 -2.875 1.578125 -3.046875 L 1.625 -3.25 C 1.65625 -3.390625 1.671875 -3.484375 1.671875 -3.578125 C 1.671875 -3.75 1.609375 -3.84375 1.484375 -3.84375 C 1.328125 -3.84375 1.015625 -3.671875 0.4375 -3.25 L 0.203125 -3.09375 L 0.265625 -2.9375 L 0.515625 -3.09375 C 0.734375 -3.25 0.828125 -3.28125 0.90625 -3.28125 C 0.984375 -3.28125 1.03125 -3.21875 1.03125 -3.109375 C 1.03125 -2.640625 0.6875 -1 0.375 0.015625 L 0.453125 0.078125 C 0.578125 0.03125 0.703125 0.015625 0.890625 -0.03125 L 0.984375 -0.046875 L 1.1875 -1 C 1.34375 -1.671875 1.515625 -2.09375 1.875 -2.546875 C 2.140625 -2.890625 2.359375 -3.0625 2.53125 -3.0625 C 2.65625 -3.0625 2.734375 -3.015625 2.828125 -2.90625 Z M 2.9375 -2.90625 "/>
</g>
<g id="glyph-12-7">
<path d="M 5.8125 -0.828125 L 5.609375 -0.6875 C 5.375 -0.53125 5.203125 -0.453125 5.125 -0.453125 C 5.0625 -0.453125 5.015625 -0.515625 5.015625 -0.609375 C 5.015625 -0.6875 5.03125 -0.75 5.078125 -0.921875 L 5.671875 -3.296875 C 5.703125 -3.421875 5.734375 -3.546875 5.734375 -3.625 C 5.734375 -3.75 5.65625 -3.84375 5.515625 -3.84375 C 5.296875 -3.84375 4.984375 -3.703125 4.5 -3.359375 C 4 -3 3.71875 -2.71875 3.328125 -2.171875 L 3.5625 -3.265625 C 3.609375 -3.421875 3.625 -3.53125 3.625 -3.59375 C 3.625 -3.75 3.546875 -3.84375 3.421875 -3.84375 C 3.171875 -3.84375 2.8125 -3.671875 2.375 -3.328125 C 2.03125 -3.0625 1.859375 -2.890625 1.34375 -2.1875 L 1.609375 -3.25 C 1.640625 -3.375 1.65625 -3.5 1.65625 -3.59375 C 1.65625 -3.75 1.578125 -3.84375 1.46875 -3.84375 C 1.3125 -3.84375 1 -3.671875 0.421875 -3.25 L 0.1875 -3.09375 L 0.25 -2.9375 L 0.5 -3.09375 C 0.796875 -3.28125 0.828125 -3.296875 0.875 -3.296875 C 0.96875 -3.296875 1.015625 -3.21875 1.015625 -3.09375 C 1.015625 -2.6875 0.6875 -1.15625 0.359375 -0.015625 L 0.390625 0.078125 L 0.9375 -0.046875 L 1.109375 -0.859375 C 1.296875 -1.75 1.515625 -2.21875 1.953125 -2.6875 C 2.28125 -3.0625 2.640625 -3.296875 2.875 -3.296875 C 2.921875 -3.296875 2.953125 -3.234375 2.953125 -3.125 C 2.953125 -2.859375 2.78125 -1.9375 2.453125 -0.546875 L 2.328125 -0.015625 L 2.359375 0.078125 L 2.921875 -0.046875 L 3.078125 -0.90625 C 3.21875 -1.546875 3.484375 -2.140625 3.828125 -2.53125 C 4.265625 -3.015625 4.671875 -3.296875 4.921875 -3.296875 C 4.984375 -3.296875 5.03125 -3.234375 5.03125 -3.09375 C 5.03125 -2.90625 5 -2.796875 4.828125 -2.109375 C 4.703125 -1.609375 4.5625 -1.125 4.484375 -0.859375 C 4.421875 -0.625 4.375 -0.421875 4.375 -0.25 C 4.375 -0.046875 4.46875 0.078125 4.625 0.078125 C 4.828125 0.078125 5.109375 -0.09375 5.890625 -0.671875 Z M 5.8125 -0.828125 "/>
</g>
</g>
<clipPath id="clip-0">
<path clip-rule="nonzero" d="M 0.0546875 0 L 437.175781 0 L 437.175781 264.402344 L 0.0546875 264.402344 Z M 0.0546875 0 "/>
</clipPath>
</defs>
<path fill-rule="nonzero" fill="rgb(97.645569%, 96.470642%, 94.119263%)" fill-opacity="1" d="M 10.503906 244.003906 L 10.503906 20.398438 C 10.503906 14.902344 14.957031 10.445312 20.453125 10.445312 L 416.777344 10.445312 C 422.273438 10.445312 426.730469 14.902344 426.730469 20.398438 L 426.730469 244.003906 C 426.730469 249.5 422.273438 253.953125 416.777344 253.953125 L 20.453125 253.953125 C 14.957031 253.953125 10.503906 249.5 10.503906 244.003906 Z M 10.503906 244.003906 "/>
<g clip-path="url(#clip-0)">
<path fill="none" stroke-width="0.99628" stroke-linecap="butt" stroke-linejoin="miter" stroke="rgb(83.137512%, 78.823853%, 72.155762%)" stroke-opacity="1" stroke-miterlimit="10" d="M -42.518388 -41.062527 L -42.518388 182.795521 C -42.518388 188.297823 -38.060233 192.759889 -32.557931 192.759889 L 364.213966 192.759889 C 369.716268 192.759889 374.178334 188.297823 374.178334 182.795521 L 374.178334 -41.062527 C 374.178334 -46.564829 369.716268 -51.022984 364.213966 -51.022984 L -32.557931 -51.022984 C -38.060233 -51.022984 -42.518388 -46.564829 -42.518388 -41.062527 Z M -42.518388 -41.062527 " transform="matrix(0.998872, 0, 0, -0.998872, 52.974321, 202.98771)"/>
</g>
<g fill="rgb(23.922729%, 20.783997%, 18.824768%)" fill-opacity="1">
<use xlink:href="#glyph-0-0" x="114.656646" y="32.931801"/>
<use xlink:href="#glyph-0-1" x="121.953031" y="32.931801"/>
<use xlink:href="#glyph-0-2" x="129.249417" y="32.931801"/>
<use xlink:href="#glyph-0-3" x="133.226006" y="32.931801"/>
<use xlink:href="#glyph-0-4" x="137.871332" y="32.931801"/>
<use xlink:href="#glyph-0-5" x="144.510923" y="32.931801"/>
<use xlink:href="#glyph-0-6" x="151.807308" y="32.931801"/>
</g>
<g fill="rgb(23.922729%, 20.783997%, 18.824768%)" fill-opacity="1">
<use xlink:href="#glyph-0-4" x="161.432327" y="32.931801"/>
<use xlink:href="#glyph-0-7" x="168.071919" y="32.931801"/>
</g>
<g fill="rgb(23.922729%, 20.783997%, 18.824768%)" fill-opacity="1">
<use xlink:href="#glyph-0-8" x="175.702672" y="32.931801"/>
</g>
<g fill="rgb(23.922729%, 20.783997%, 18.824768%)" fill-opacity="1">
<use xlink:href="#glyph-0-9" x="184.658955" y="32.931801"/>
<use xlink:href="#glyph-0-10" x="192.624076" y="32.931801"/>
<use xlink:href="#glyph-0-3" x="198.594932" y="32.931801"/>
<use xlink:href="#glyph-0-1" x="203.240257" y="32.931801"/>
<use xlink:href="#glyph-0-4" x="210.536643" y="32.931801"/>
<use xlink:href="#glyph-0-11" x="217.176234" y="32.931801"/>
<use xlink:href="#glyph-0-12" x="224.472619" y="32.931801"/>
<use xlink:href="#glyph-0-12" x="228.449209" y="32.931801"/>
<use xlink:href="#glyph-0-13" x="232.425799" y="32.931801"/>
<use xlink:href="#glyph-0-14" x="236.402389" y="32.931801"/>
</g>
<g fill="rgb(23.922729%, 20.783997%, 18.824768%)" fill-opacity="1">
<use xlink:href="#glyph-1-0" x="241.179073" y="32.931801"/>
</g>
<g fill="rgb(23.922729%, 20.783997%, 18.824768%)" fill-opacity="1">
<use xlink:href="#glyph-0-15" x="247.305171" y="32.931801"/>
</g>
<g fill="rgb(23.922729%, 20.783997%, 18.824768%)" fill-opacity="1">
<use xlink:href="#glyph-0-16" x="254.267188" y="32.931801"/>
<use xlink:href="#glyph-0-13" x="264.214633" y="32.931801"/>
<use xlink:href="#glyph-0-17" x="268.191223" y="32.931801"/>
<use xlink:href="#glyph-0-2" x="273.493343" y="32.931801"/>
<use xlink:href="#glyph-0-3" x="277.469933" y="32.931801"/>
<use xlink:href="#glyph-0-13" x="282.115258" y="32.931801"/>
<use xlink:href="#glyph-0-18" x="286.091848" y="32.931801"/>
<use xlink:href="#glyph-0-11" x="293.388233" y="32.931801"/>
<use xlink:href="#glyph-0-2" x="300.684619" y="32.931801"/>
<use xlink:href="#glyph-0-13" x="304.661208" y="32.931801"/>
<use xlink:href="#glyph-0-4" x="308.637798" y="32.931801"/>
<use xlink:href="#glyph-0-1" x="315.277389" y="32.931801"/>
</g>
<path fill="none" stroke-width="0.99628" stroke-linecap="butt" stroke-linejoin="miter" stroke="rgb(23.922729%, 20.783997%, 18.824768%)" stroke-opacity="1" stroke-miterlimit="10" d="M -8.503446 -0.00057202 L 230.887753 -0.00057202 " transform="matrix(0.998872, 0, 0, -0.998872, 52.974321, 202.98771)"/>
<path fill-rule="nonzero" fill="rgb(23.922729%, 20.783997%, 18.824768%)" fill-opacity="1" stroke-width="0.99628" stroke-linecap="butt" stroke-linejoin="miter" stroke="rgb(23.922729%, 20.783997%, 18.824768%)" stroke-opacity="1" stroke-miterlimit="10" d="M 5.74616 -0.00057202 L 1.546108 1.696655 L 2.946125 -0.00057202 L 1.546108 -1.6978 Z M 5.74616 -0.00057202 " transform="matrix(0.998872, 0, 0, -0.998872, 280.908761, 202.98771)"/>
<g fill="rgb(23.922729%, 20.783997%, 18.824768%)" fill-opacity="1">
<use xlink:href="#glyph-2-0" x="292.470791" y="204.017547"/>
</g>
<path fill="none" stroke-width="0.99628" stroke-linecap="butt" stroke-linejoin="miter" stroke="rgb(23.922729%, 20.783997%, 18.824768%)" stroke-opacity="1" stroke-miterlimit="10" d="M -0.00166631 -8.502352 L -0.00166631 151.518043 " transform="matrix(0.998872, 0, 0, -0.998872, 52.974321, 202.98771)"/>
<path fill-rule="nonzero" fill="rgb(23.922729%, 20.783997%, 18.824768%)" fill-opacity="1" stroke-width="0.99628" stroke-linecap="butt" stroke-linejoin="miter" stroke="rgb(23.922729%, 20.783997%, 18.824768%)" stroke-opacity="1" stroke-miterlimit="10" d="M 5.743689 0.00166631 L 1.543638 1.698894 L 2.943655 0.00166631 L 1.543638 -1.695561 Z M 5.743689 0.00166631 " transform="matrix(0, -0.998872, -0.998872, 0, 52.974321, 54.334865)"/>
<g fill="rgb(23.922729%, 20.783997%, 18.824768%)" fill-opacity="1">
<use xlink:href="#glyph-3-0" x="43.100474" y="40.966725"/>
</g>
<g fill="rgb(23.922729%, 20.783997%, 18.824768%)" fill-opacity="1">
<use xlink:href="#glyph-4-0" x="50.535085" y="40.966725"/>
</g>
<g fill="rgb(23.922729%, 20.783997%, 18.824768%)" fill-opacity="1">
<use xlink:href="#glyph-3-1" x="54.872025" y="40.966725"/>
</g>
<g fill="rgb(23.922729%, 20.783997%, 18.824768%)" fill-opacity="1">
<use xlink:href="#glyph-4-1" x="59.574145" y="40.966725"/>
</g>
<path fill="none" stroke-width="0.59776" stroke-linecap="butt" stroke-linejoin="miter" stroke="rgb(23.922729%, 20.783997%, 18.824768%)" stroke-opacity="1" stroke-miterlimit="10" d="M -0.00166631 -4.251462 L -0.00166631 4.250318 " transform="matrix(0.998872, 0, 0, -0.998872, 52.974321, 202.98771)"/>
<path fill="none" stroke-width="0.59776" stroke-linecap="butt" stroke-linejoin="miter" stroke="rgb(23.922729%, 20.783997%, 18.824768%)" stroke-opacity="1" stroke-miterlimit="10" d="M 113.38799 -4.251462 L 113.38799 4.250318 " transform="matrix(0.998872, 0, 0, -0.998872, 52.974321, 202.98771)"/>
<path fill="none" stroke-width="0.59776" stroke-linecap="butt" stroke-linejoin="miter" stroke="rgb(23.922729%, 20.783997%, 18.824768%)" stroke-opacity="1" stroke-miterlimit="10" d="M 226.773736 -4.251462 L 226.773736 4.250318 " transform="matrix(0.998872, 0, 0, -0.998872, 52.974321, 202.98771)"/>
<g fill="rgb(23.922729%, 20.783997%, 18.824768%)" fill-opacity="1">
<use xlink:href="#glyph-5-0" x="50.735849" y="216.867032"/>
</g>
<g fill="rgb(23.922729%, 20.783997%, 18.824768%)" fill-opacity="1">
<use xlink:href="#glyph-6-0" x="164.491354" y="215.612449"/>
</g>
<path fill="none" stroke-width="0.359" stroke-linecap="butt" stroke-linejoin="miter" stroke="rgb(23.922729%, 20.783997%, 18.824768%)" stroke-opacity="1" stroke-miterlimit="10" d="M 0.00083477 -0.000351516 L 3.485235 -0.000351516 " transform="matrix(0.998872, 0, 0, -0.998872, 164.491354, 216.901993)"/>
<g fill="rgb(23.922729%, 20.783997%, 18.824768%)" fill-opacity="1">
<use xlink:href="#glyph-6-1" x="164.491354" y="222.230973"/>
</g>
<g fill="rgb(23.922729%, 20.783997%, 18.824768%)" fill-opacity="1">
<use xlink:href="#glyph-5-1" x="277.250983" y="217.00188"/>
</g>
<path fill="none" stroke-width="0.59776" stroke-linecap="butt" stroke-linejoin="miter" stroke="rgb(23.922729%, 20.783997%, 18.824768%)" stroke-opacity="1" stroke-miterlimit="10" d="M -4.252556 127.561325 L 4.253134 127.561325 " transform="matrix(0.998872, 0, 0, -0.998872, 52.974321, 202.98771)"/>
<g fill="rgb(23.922729%, 20.783997%, 18.824768%)" fill-opacity="1">
<use xlink:href="#glyph-5-2" x="26.764926" y="77.571377"/>
<use xlink:href="#glyph-5-3" x="29.371205" y="77.571377"/>
<use xlink:href="#glyph-5-4" x="34.261335" y="77.571377"/>
</g>
<g fill="rgb(23.922729%, 20.783997%, 18.824768%)" fill-opacity="1">
<use xlink:href="#glyph-5-5" x="40.736728" y="77.571377"/>
</g>
<path fill="none" stroke-width="0.79701" stroke-linecap="butt" stroke-linejoin="miter" stroke="rgb(83.137512%, 78.823853%, 72.155762%)" stroke-opacity="1" stroke-dasharray="2.98883 2.98883" stroke-miterlimit="10" d="M -0.00166631 127.561325 L 113.38799 127.561325 " transform="matrix(0.998872, 0, 0, -0.998872, 52.974321, 202.98771)"/>
<path fill="none" stroke-width="0.79701" stroke-linecap="butt" stroke-linejoin="miter" stroke="rgb(83.137512%, 78.823853%, 72.155762%)" stroke-opacity="1" stroke-dasharray="2.98883 2.98883" stroke-miterlimit="10" d="M 113.38799 -0.00057202 L 113.38799 127.561325 " transform="matrix(0.998872, 0, 0, -0.998872, 52.974321, 202.98771)"/>
<path fill="none" stroke-width="2.49069" stroke-linecap="butt" stroke-linejoin="miter" stroke="rgb(48.234558%, 59.214783%, 67.843628%)" stroke-opacity="1" stroke-miterlimit="10" d="M 5.668794 21.543267 C 5.668794 21.543267 9.767168 32.751226 11.339255 36.568032 C 12.911341 40.380928 15.433718 45.812838 17.009715 49.039135 C 18.581801 52.265431 21.104179 56.98169 22.676265 59.81301 C 24.252262 62.644329 26.774639 66.973432 28.346725 69.448882 C 29.918812 71.928242 32.441189 75.467391 34.017186 77.669094 C 35.589272 79.874708 38.11165 83.316091 39.683736 85.32226 C 41.259733 87.32843 43.78211 90.355283 45.354196 92.126813 C 46.930193 93.898343 49.45257 96.506755 51.024657 98.078841 C 52.596743 99.654838 55.11912 102.048164 56.695117 103.463823 C 58.267204 104.883394 60.789581 107.026437 62.361667 108.28567 C 63.937664 109.544903 66.460041 111.476771 68.032128 112.53656 C 69.604214 113.60026 72.130502 115.035473 73.702588 115.938836 C 75.274674 116.842199 77.797052 118.269591 79.373049 119.055634 C 80.945135 119.841677 83.467512 120.940574 85.039598 121.609297 C 86.611685 122.27802 89.137973 123.326078 90.710059 123.87357 C 92.282145 124.424974 94.804522 125.183642 96.380519 125.574709 C 97.952606 125.969685 100.474983 126.474161 102.047069 126.708801 C 103.623066 126.947351 106.145443 127.158527 107.71753 127.275847 C 109.289616 127.397077 111.815904 127.561325 113.38799 127.561325 C 114.960076 127.561325 117.482454 127.397077 119.058451 127.275847 C 120.630537 127.158527 123.152914 126.947351 124.725001 126.708801 C 126.297087 126.474161 128.823375 125.969685 130.395461 125.574709 C 131.967547 125.183642 134.489925 124.424974 136.065922 123.87357 C 137.638008 123.326078 140.160385 122.27802 141.732471 121.609297 C 143.308468 120.940574 145.830846 119.841677 147.402932 119.055634 C 148.975018 118.269591 151.497395 116.842199 153.073392 115.938836 C 154.645479 115.035473 157.167856 113.60026 158.743853 112.53656 C 160.315939 111.476771 162.838316 109.544903 164.410403 108.28567 C 165.9864 107.026437 168.508777 104.883394 170.080863 103.463823 C 171.652949 102.048164 174.175327 99.654838 175.751324 98.078841 C 177.32341 96.506755 179.845787 93.898343 181.417873 92.126813 C 182.99387 90.355283 185.516248 87.32843 187.088334 85.32226 C 188.66042 83.316091 191.186708 79.874708 192.758794 77.669094 C 194.330881 75.467391 196.853258 71.928242 198.429255 69.448882 C 200.001341 66.973432 202.523718 62.644329 204.095805 59.81301 C 205.671802 56.98169 208.194179 52.265431 209.766265 49.039135 C 211.338352 45.812838 213.860729 40.380928 215.436726 36.568032 C 217.008812 32.751226 221.103276 21.543267 221.103276 21.543267 " transform="matrix(0.998872, 0, 0, -0.998872, 52.974321, 202.98771)"/>
<path fill-rule="nonzero" fill="rgb(48.234558%, 59.214783%, 67.843628%)" fill-opacity="1" d="M 169.21875 75.570312 C 169.21875 73.921875 167.882812 72.585938 166.234375 72.585938 C 164.585938 72.585938 163.25 73.921875 163.25 75.570312 C 163.25 77.21875 164.585938 78.554688 166.234375 78.554688 C 167.882812 78.554688 169.21875 77.21875 169.21875 75.570312 Z M 169.21875 75.570312 "/>
<path fill="none" stroke-width="0.59776" stroke-linecap="butt" stroke-linejoin="miter" stroke="rgb(48.234558%, 43.920898%, 40.391541%)" stroke-opacity="1" stroke-miterlimit="10" d="M 249.451667 -14.020297 L 249.451667 48.034094 C 249.451667 49.684394 250.789114 51.025751 252.439413 51.025751 L 359.849667 51.025751 C 361.499967 51.025751 362.837413 49.684394 362.837413 48.034094 L 362.837413 -14.020297 C 362.837413 -15.670596 361.499967 -17.008043 359.849667 -17.008043 L 252.439413 -17.008043 C 250.789114 -17.008043 249.451667 -15.670596 249.451667 -14.020297 Z M 249.451667 -14.020297 " transform="matrix(0.998872, 0, 0, -0.998872, 52.974321, 202.98771)"/>
<g fill="rgb(23.922729%, 20.783997%, 18.824768%)" fill-opacity="1">
<use xlink:href="#glyph-7-0" x="332.771269" y="163.787989"/>
<use xlink:href="#glyph-7-1" x="338.243558" y="163.787989"/>
<use xlink:href="#glyph-7-2" x="343.223251" y="163.787989"/>
</g>
<g fill="rgb(23.922729%, 20.783997%, 18.824768%)" fill-opacity="1">
<use xlink:href="#glyph-7-3" x="352.922906" y="163.787989"/>
<use xlink:href="#glyph-7-4" x="357.401047" y="163.787989"/>
<use xlink:href="#glyph-7-5" x="362.873336" y="163.787989"/>
<use xlink:href="#glyph-7-6" x="365.855779" y="163.787989"/>
<use xlink:href="#glyph-7-1" x="369.339773" y="163.787989"/>
<use xlink:href="#glyph-7-7" x="374.319466" y="163.787989"/>
<use xlink:href="#glyph-7-8" x="379.791755" y="163.787989"/>
</g>
<g fill="rgb(48.234558%, 43.920898%, 40.391541%)" fill-opacity="1">
<use xlink:href="#glyph-3-1" x="348.311715" y="175.077237"/>
</g>
<g fill="rgb(48.234558%, 43.920898%, 40.391541%)" fill-opacity="1">
<use xlink:href="#glyph-8-0" x="355.505601" y="175.077237"/>
</g>
<g fill="rgb(48.234558%, 43.920898%, 40.391541%)" fill-opacity="1">
<use xlink:href="#glyph-5-0" x="365.352753" y="175.077237"/>
</g>
<path fill-rule="nonzero" fill="rgb(48.234558%, 59.214783%, 67.843628%)" fill-opacity="1" d="M 324.796875 202.988281 L 324.796875 184.582031 L 341.785156 184.582031 L 341.785156 202.988281 Z M 324.796875 202.988281 "/>
<path fill-rule="nonzero" fill="rgb(79.293823%, 83.686829%, 87.136841%)" fill-opacity="1" d="M 353.113281 202.988281 L 353.113281 200.722656 L 370.101562 200.722656 L 370.101562 202.988281 Z M 353.113281 202.988281 "/>
<g fill="rgb(23.922729%, 20.783997%, 18.824768%)" fill-opacity="1">
<use xlink:href="#glyph-9-0" x="328.152486" y="211.359254"/>
</g>
<g fill="rgb(23.922729%, 20.783997%, 18.824768%)" fill-opacity="1">
<use xlink:href="#glyph-10-0" x="331.978236" y="211.359254"/>
</g>
<g fill="rgb(23.922729%, 20.783997%, 18.824768%)" fill-opacity="1">
<use xlink:href="#glyph-11-0" x="336.070559" y="211.359254"/>
</g>
<g fill="rgb(23.922729%, 20.783997%, 18.824768%)" fill-opacity="1">
<use xlink:href="#glyph-9-0" x="356.467502" y="211.392216"/>
</g>
<g fill="rgb(23.922729%, 20.783997%, 18.824768%)" fill-opacity="1">
<use xlink:href="#glyph-10-0" x="360.293252" y="211.392216"/>
</g>
<g fill="rgb(23.922729%, 20.783997%, 18.824768%)" fill-opacity="1">
<use xlink:href="#glyph-11-1" x="364.385575" y="211.392216"/>
</g>
<path fill="none" stroke-width="0.79701" stroke-linecap="butt" stroke-linejoin="miter" stroke="rgb(48.234558%, 43.920898%, 40.391541%)" stroke-opacity="1" stroke-miterlimit="10" d="M 204.095805 34.01437 L 245.016976 28.899223 " transform="matrix(0.998872, 0, 0, -0.998872, 52.974321, 202.98771)"/>
<path fill-rule="nonzero" fill="rgb(48.234558%, 43.920898%, 40.391541%)" fill-opacity="1" stroke-width="0.79701" stroke-linecap="butt" stroke-linejoin="miter" stroke="rgb(48.234558%, 43.920898%, 40.391541%)" stroke-opacity="1" stroke-miterlimit="10" d="M 6.014257 0.000968001 L 1.237337 1.92626 L 2.818148 -0.000447557 L 1.237774 -1.924206 Z M 6.014257 0.000968001 " transform="matrix(0.99114, 0.12388, 0.12388, -0.99114, 295.120938, 173.794975)"/>
<path fill="none" stroke-width="0.59776" stroke-linecap="butt" stroke-linejoin="miter" stroke="rgb(48.234558%, 43.920898%, 40.391541%)" stroke-opacity="1" stroke-miterlimit="10" d="M 249.451667 71.020968 L 249.451667 150.08283 C 249.451667 151.733129 250.789114 153.074487 252.439413 153.074487 L 359.849667 153.074487 C 361.499967 153.074487 362.837413 151.733129 362.837413 150.08283 L 362.837413 71.020968 C 362.837413 69.370668 361.499967 68.033222 359.849667 68.033222 L 252.439413 68.033222 C 250.789114 68.033222 249.451667 69.370668 249.451667 71.020968 Z M 249.451667 71.020968 " transform="matrix(0.998872, 0, 0, -0.998872, 52.974321, 202.98771)"/>
<g fill="rgb(23.922729%, 20.783997%, 18.824768%)" fill-opacity="1">
<use xlink:href="#glyph-7-9" x="332.771269" y="61.85513"/>
<use xlink:href="#glyph-7-10" x="341.727552" y="61.85513"/>
<use xlink:href="#glyph-7-11" x="346.205693" y="61.85513"/>
</g>
<g fill="rgb(23.922729%, 20.783997%, 18.824768%)" fill-opacity="1">
<use xlink:href="#glyph-7-3" x="352.922906" y="61.85513"/>
<use xlink:href="#glyph-7-4" x="357.401047" y="61.85513"/>
<use xlink:href="#glyph-7-5" x="362.873336" y="61.85513"/>
<use xlink:href="#glyph-7-6" x="365.855779" y="61.85513"/>
<use xlink:href="#glyph-7-1" x="369.339773" y="61.85513"/>
<use xlink:href="#glyph-7-7" x="374.319466" y="61.85513"/>
<use xlink:href="#glyph-7-8" x="379.791755" y="61.85513"/>
</g>
<g fill="rgb(48.234558%, 43.920898%, 40.391541%)" fill-opacity="1">
<use xlink:href="#glyph-3-1" x="347.615501" y="73.954463"/>
</g>
<g fill="rgb(48.234558%, 43.920898%, 40.391541%)" fill-opacity="1">
<use xlink:href="#glyph-4-2" x="354.809388" y="73.954463"/>
</g>
<g fill="rgb(48.234558%, 43.920898%, 40.391541%)" fill-opacity="1">
<use xlink:href="#glyph-6-0" x="365.853899" y="70.426448"/>
</g>
<path fill="none" stroke-width="0.359" stroke-linecap="butt" stroke-linejoin="miter" stroke="rgb(48.234558%, 43.920898%, 40.391541%)" stroke-opacity="1" stroke-miterlimit="10" d="M 0.00157123 0.00114886 L 3.485971 0.00114886 " transform="matrix(0.998872, 0, 0, -0.998872, 365.853899, 71.715991)"/>
<g fill="rgb(48.234558%, 43.920898%, 40.391541%)" fill-opacity="1">
<use xlink:href="#glyph-6-1" x="365.853899" y="77.044972"/>
</g>
<path fill-rule="nonzero" fill="rgb(48.234558%, 59.214783%, 67.843628%)" fill-opacity="1" d="M 324.796875 118.042969 L 324.796875 91.144531 L 341.785156 91.144531 L 341.785156 118.042969 Z M 324.796875 118.042969 "/>
<path fill-rule="nonzero" fill="rgb(48.234558%, 59.214783%, 67.843628%)" fill-opacity="1" d="M 353.113281 118.042969 L 353.113281 91.144531 L 370.101562 91.144531 L 370.101562 118.042969 Z M 353.113281 118.042969 "/>
<g fill="rgb(23.922729%, 20.783997%, 18.824768%)" fill-opacity="1">
<use xlink:href="#glyph-9-0" x="328.152486" y="126.416203"/>
</g>
<g fill="rgb(23.922729%, 20.783997%, 18.824768%)" fill-opacity="1">
<use xlink:href="#glyph-10-0" x="331.978236" y="126.416203"/>
</g>
<g fill="rgb(23.922729%, 20.783997%, 18.824768%)" fill-opacity="1">
<use xlink:href="#glyph-11-0" x="336.070559" y="126.416203"/>
</g>
<g fill="rgb(23.922729%, 20.783997%, 18.824768%)" fill-opacity="1">
<use xlink:href="#glyph-9-0" x="356.467502" y="126.448167"/>
</g>
<g fill="rgb(23.922729%, 20.783997%, 18.824768%)" fill-opacity="1">
<use xlink:href="#glyph-10-0" x="360.293252" y="126.448167"/>
</g>
<g fill="rgb(23.922729%, 20.783997%, 18.824768%)" fill-opacity="1">
<use xlink:href="#glyph-11-1" x="364.385575" y="126.448167"/>
</g>
<g fill="rgb(47.840881%, 60.392761%, 49.412537%)" fill-opacity="1">
<use xlink:href="#glyph-12-0" x="342.311492" y="128.316057"/>
</g>
<g fill="rgb(47.840881%, 60.392761%, 49.412537%)" fill-opacity="1">
<use xlink:href="#glyph-12-1" x="349.1262" y="128.316057"/>
<use xlink:href="#glyph-12-2" x="353.552576" y="128.316057"/>
<use xlink:href="#glyph-12-3" x="357.978951" y="128.316057"/>
<use xlink:href="#glyph-12-4" x="360.192139" y="128.316057"/>
<use xlink:href="#glyph-12-5" x="362.405327" y="128.316057"/>
<use xlink:href="#glyph-12-6" x="365.940059" y="128.316057"/>
<use xlink:href="#glyph-12-7" x="369.03693" y="128.316057"/>
</g>
<path fill="none" stroke-width="0.79701" stroke-linecap="butt" stroke-linejoin="miter" stroke="rgb(48.234558%, 43.920898%, 40.391541%)" stroke-opacity="1" stroke-miterlimit="10" d="M 127.560231 127.561325 C 174.738462 135.879304 201.546053 113.389084 244.98178 113.389084 " transform="matrix(0.998872, 0, 0, -0.998872, 52.974321, 202.98771)"/>
<path fill-rule="nonzero" fill="rgb(48.234558%, 43.920898%, 40.391541%)" fill-opacity="1" stroke-width="0.79701" stroke-linecap="butt" stroke-linejoin="miter" stroke="rgb(48.234558%, 43.920898%, 40.391541%)" stroke-opacity="1" stroke-miterlimit="10" d="M 6.014846 0.00184449 L 1.236016 1.92589 L 2.815924 0.00184449 L 1.236016 -1.926112 Z M 6.014846 0.00184449 " transform="matrix(0.998872, 0, 0, -0.998872, 295.066159, 89.728405)"/>
</svg>
